SplineFontDB: 3.0
FontName: IstokWeb-Bold
FullName: Istok Web Bold
FamilyName: Istok Web
Weight: Bold
Copyright: (C) 2009, 2010, 2011 Andrey V. Panov
Version: 0.4.2.1
ItalicAngle: 0
UnderlinePosition: -204
UnderlineWidth: 102
Ascent: 1548
Descent: 500
sfntRevision: 0x00006666
LayerCount: 2
Layer: 0 1 "Back"  1
Layer: 1 1 "Fore"  0
XUID: [1021 288 713564382 4048652]
FSType: 0
OS2Version: 4
OS2_WeightWidthSlopeOnly: 0
OS2_UseTypoMetrics: 1
CreationTime: 1225286394
ModificationTime: 1310106232
PfmFamily: 33
TTFWeight: 700
TTFWidth: 5
LineGap: 0
VLineGap: 0
Panose: 2 15 7 3 3 4 3 2 2 4
OS2TypoAscent: 2061
OS2TypoAOffset: 0
OS2TypoDescent: -887
OS2TypoDOffset: 0
OS2TypoLinegap: 0
OS2WinAscent: 2061
OS2WinAOffset: 0
OS2WinDescent: 887
OS2WinDOffset: 0
HheadAscent: 2061
HheadAOffset: 0
HheadDescent: -887
HheadDOffset: 0
OS2SubXSize: 1331
OS2SubYSize: 1433
OS2SubXOff: 0
OS2SubYOff: 286
OS2SupXSize: 1331
OS2SupYSize: 1433
OS2SupXOff: 0
OS2SupYOff: 983
OS2StrikeYSize: 102
OS2StrikeYPos: 530
OS2FamilyClass: 2048
OS2Vendor: 'PfEd'
OS2CodePages: 00000016.00000000
OS2UnicodeRanges: a00002ff.5000405b.00000000.00000000
Lookup: 4 0 1 "'liga' Standard Ligatures in Cyrillic lookup 0"  {"'liga' Standard Ligatures in Cyrillic lookup 0 subtable"  } ['liga' ('cyrl' <'MKD ' 'SRB ' 'dflt' > ) ]
Lookup: 4 0 1 "'liga' Standard Ligatures in Latin lookup 1"  {"'liga' Standard Ligatures in Latin lookup 1 subtable"  } ['liga' ('latn' <'NLD ' 'VIT ' 'dflt' > ) ]
Lookup: 4 0 1 "'liga' Standard Ligatures in Latin lookup 2"  {"'liga' Standard Ligatures in Latin lookup 2 subtable"  } ['liga' ('latn' <'AZE ' 'NLD ' 'TRK ' 'VIT ' 'dflt' > ) ]
Lookup: 1 0 0 "'tnum' Tabular Numbers lookup 3"  {"'tnum' Tabular Numbers lookup 3 subtable"  } ['tnum' ('cyrl' <'dflt' > 'grek' <'dflt' > 'latn' <'dflt' > ) ]
Lookup: 1 0 0 "'onum' Oldstyle Figures lookup 4"  {"'onum' Oldstyle Figures lookup 4 subtable" ("oldstyle" ) } ['onum' ('cyrl' <'dflt' > 'grek' <'dflt' > 'latn' <'dflt' > ) ]

StartChar: .notdef
Encoding: 0 -1 0
AltUni2: 000000.ffffffff.0
Width: 1260
Flags: W
LayerCount: 2
Fore
SplineSet
200 0 m 2,0,1
 140 0 140 0 140 60 c 2,2,-1
 140 1374 l 2,3,4
 140 1434 140 1434 192 1434 c 2,5,-1
 1060 1434 l 2,6,7
 1120 1434 1120 1434 1120 1374 c 2,8,-1
 1120 60 l 2,9,10
 1120 0 1120 0 1060 0 c 2,11,-1
 200 0 l 2,0,1
320 180 m 1,12,-1
 940 180 l 1,13,-1
 940 1254 l 1,14,-1
 320 1254 l 1,15,-1
 320 180 l 1,12,-1
EndSplineSet
EndChar

StartChar: exclam
Encoding: 33 33 4
Width: 668
GlyphClass: 2
Flags: W
LayerCount: 2
Fore
SplineSet
184 1359 m 2,0,1
 182 1434 182 1434 254 1434 c 2,2,-1
 414 1434 l 2,3,4
 486 1434 486 1434 484 1359 c 2,5,-1
 457 485 l 2,6,7
 455 420 455 420 392 420 c 2,8,-1
 276 420 l 2,9,10
 213 420 213 420 211 485 c 2,11,-1
 184 1359 l 2,0,1
258 0 m 2,12,13
 188 0 188 0 188 75 c 2,14,-1
 188 209 l 2,15,16
 188 284 188 284 258 284 c 2,17,-1
 410 284 l 2,18,19
 480 284 480 284 480 209 c 2,20,-1
 480 75 l 2,21,22
 480 0 480 0 410 0 c 2,23,-1
 258 0 l 2,12,13
EndSplineSet
EndChar

StartChar: numbersign
Encoding: 35 35 6
Width: 1416
GlyphClass: 2
Flags: W
LayerCount: 2
Fore
SplineSet
129 344 m 2,0,1
 69 344 69 344 77 394 c 1,2,-1
 92 474 l 2,3,4
 101 524 101 524 160 524 c 2,5,-1
 341 524 l 1,6,-1
 406 898 l 1,7,-1
 226 898 l 2,8,9
 167 898 167 898 175 948 c 2,10,-1
 189 1028 l 2,11,12
 198 1078 198 1078 258 1078 c 2,13,-1
 438 1078 l 1,14,-1
 488 1362 l 2,15,16
 499 1422 499 1422 549 1422 c 2,17,-1
 635 1422 l 2,18,19
 685 1422 685 1422 674 1362 c 2,20,-1
 624 1078 l 1,21,-1
 922 1078 l 1,22,-1
 972 1362 l 2,23,24
 983 1422 983 1422 1033 1422 c 2,25,-1
 1119 1422 l 2,26,27
 1169 1422 1169 1422 1158 1362 c 2,28,-1
 1108 1078 l 1,29,-1
 1288 1078 l 2,30,31
 1347 1078 1347 1078 1339 1028 c 2,32,-1
 1325 948 l 2,33,34
 1316 898 1316 898 1256 898 c 2,35,-1
 1076 898 l 1,36,-1
 1011 524 l 1,37,-1
 1190 524 l 2,38,39
 1250 524 1250 524 1242 474 c 1,40,-1
 1227 394 l 2,41,42
 1218 344 1218 344 1159 344 c 2,43,-1
 979 344 l 1,44,-1
 929 60 l 2,45,46
 918 0 918 0 868 0 c 2,47,-1
 782 0 l 2,48,49
 732 0 732 0 743 60 c 2,50,-1
 793 344 l 1,51,-1
 495 344 l 1,52,-1
 445 60 l 2,53,54
 434 0 434 0 384 0 c 2,55,-1
 298 0 l 2,56,57
 248 0 248 0 259 60 c 2,58,-1
 309 344 l 1,59,-1
 129 344 l 2,0,1
527 524 m 1,60,-1
 825 524 l 1,61,-1
 890 898 l 1,62,-1
 592 898 l 1,63,-1
 527 524 l 1,60,-1
EndSplineSet
EndChar

StartChar: dollar
Encoding: 36 36 7
Width: 1200
GlyphClass: 2
Flags: W
LayerCount: 2
Fore
SplineSet
136 84 m 0,0,1
 64 149 64 149 100 200 c 2,2,-1
 169 298 l 2,3,4
 203 346 203 346 273 288 c 0,5,6
 327 243 327 243 401.5 219.5 c 128,-1,7
 476 196 476 196 530 189 c 1,8,-1
 530 612 l 1,9,10
 451 641 451 641 361 691 c 0,11,12
 315 717 315 717 260.5 772.5 c 128,-1,13
 206 828 206 828 173 901 c 128,-1,14
 140 974 140 974 140 1082 c 0,15,16
 140 1224 140 1224 220 1315 c 128,-1,17
 300 1406 300 1406 370 1426.5 c 128,-1,18
 440 1447 440 1447 530 1454 c 1,19,-1
 530 1556 l 2,20,21
 530 1616 530 1616 580 1616 c 2,22,-1
 660 1616 l 2,23,24
 710 1616 710 1616 710 1556 c 2,25,-1
 710 1454 l 1,26,27
 782 1445 782 1445 860 1414 c 128,-1,28
 938 1383 938 1383 987 1347 c 0,29,30
 1045 1304 1045 1304 1014 1257 c 2,31,-1
 946 1153 l 2,32,33
 910 1099 910 1099 860 1145 c 0,34,35
 822 1180 822 1180 782 1197 c 128,-1,36
 742 1214 742 1214 710 1223 c 1,37,-1
 710 833 l 1,38,39
 793 804 793 804 880 759 c 0,40,41
 944 726 944 726 990 679 c 128,-1,42
 1036 632 1036 632 1067.5 562 c 128,-1,43
 1099 492 1099 492 1099 373 c 0,44,45
 1099 240 1099 240 1040.5 151 c 128,-1,46
 982 62 982 62 903 21 c 128,-1,47
 824 -20 824 -20 710 -32 c 1,48,-1
 710 -150 l 2,49,50
 710 -210 710 -210 660 -210 c 2,51,-1
 580 -210 l 2,52,53
 530 -210 530 -210 530 -150 c 2,54,-1
 530 -32 l 1,55,56
 428 -27 428 -27 314.5 -1.5 c 128,-1,57
 201 24 201 24 136 84 c 0,0,1
396 1084 m 0,58,59
 396 1012 396 1012 426 975 c 128,-1,60
 456 938 456 938 488 923 c 0,61,62
 505 915 505 915 530 905 c 1,63,-1
 530 1229 l 1,64,65
 475 1219 475 1219 435.5 1180.5 c 128,-1,66
 396 1142 396 1142 396 1084 c 0,58,59
710 192 m 1,67,68
 747 203 747 203 793 237.5 c 128,-1,69
 839 272 839 272 839 366 c 0,70,71
 839 431 839 431 818.5 468.5 c 128,-1,72
 798 506 798 506 744 532 c 0,73,74
 728 540 728 540 710 548 c 1,75,-1
 710 192 l 1,67,68
EndSplineSet
EndChar

StartChar: ampersand
Encoding: 38 38 9
Width: 1440
GlyphClass: 2
Flags: W
LayerCount: 2
Fore
SplineSet
112 316 m 0,0,1
 112 464 112 464 187 577 c 128,-1,2
 262 690 262 690 443 820 c 1,3,4
 372 900 372 900 321 970.5 c 128,-1,5
 270 1041 270 1041 270 1164 c 0,6,7
 270 1284 270 1284 364.5 1376 c 128,-1,8
 459 1468 459 1468 676 1468 c 0,9,10
 810 1468 810 1468 925.5 1400 c 128,-1,11
 1041 1332 1041 1332 1041 1165 c 0,12,13
 1041 1041 1041 1041 989 953.5 c 128,-1,14
 937 866 937 866 815 774 c 1,15,-1
 1055 460 l 1,16,17
 1100 502 1100 502 1137 556 c 128,-1,18
 1174 610 1174 610 1187 640 c 0,19,20
 1215 705 1215 705 1274 670 c 2,21,-1
 1380 606 l 1,22,23
 1410 590 1410 590 1386 531 c 0,24,25
 1358 462 1358 462 1315 400 c 128,-1,26
 1272 338 1272 338 1197 273 c 1,27,-1
 1353 66 l 2,28,29
 1403 0 1403 0 1322 0 c 2,30,-1
 1137 0 l 2,31,32
 1063 0 1063 0 1020 59 c 2,33,-1
 984 108 l 1,34,35
 884 28 884 28 777 -3 c 128,-1,36
 670 -34 670 -34 529 -34 c 0,37,38
 348 -34 348 -34 230 50 c 128,-1,39
 112 134 112 134 112 316 c 0,0,1
412 328 m 0,40,41
 412 261 412 261 459.5 222.5 c 128,-1,42
 507 184 507 184 570 184 c 0,43,44
 654 184 654 184 715 206 c 128,-1,45
 776 228 776 228 846 288 c 1,46,-1
 590 624 l 1,47,48
 494 546 494 546 453 486 c 128,-1,49
 412 426 412 426 412 328 c 0,40,41
540 1153 m 0,50,51
 540 1083 540 1083 577.5 1039.5 c 128,-1,52
 615 996 615 996 660 951 c 1,53,54
 723 1008 723 1008 747 1038.5 c 128,-1,55
 771 1069 771 1069 771 1135 c 0,56,57
 771 1185 771 1185 739.5 1211.5 c 128,-1,58
 708 1238 708 1238 654 1238 c 0,59,60
 597 1238 597 1238 568.5 1205.5 c 128,-1,61
 540 1173 540 1173 540 1153 c 0,50,51
EndSplineSet
EndChar

StartChar: quotesingle
Encoding: 39 39 10
Width: 560
GlyphClass: 2
Flags: W
LayerCount: 2
Fore
SplineSet
142 1404 m 2,0,1
 139 1469 139 1469 193 1469 c 2,2,-1
 367 1469 l 2,3,4
 421 1469 421 1469 418 1404 c 2,5,-1
 394 884 l 2,6,7
 391 824 391 824 344 824 c 2,8,-1
 216 824 l 2,9,10
 169 824 169 824 166 884 c 2,11,-1
 142 1404 l 2,0,1
EndSplineSet
EndChar

StartChar: parenleft
Encoding: 40 40 11
Width: 740
GlyphClass: 2
Flags: W
LayerCount: 2
Fore
SplineSet
115 544 m 256,0,1
 115 914 115 914 243.5 1153 c 128,-1,2
 372 1392 372 1392 499 1514 c 0,3,4
 551 1564 551 1564 583 1538 c 2,5,-1
 667 1471 l 2,6,7
 701 1444 701 1444 667 1399 c 0,8,9
 588 1296 588 1296 501.5 1107.5 c 128,-1,10
 415 919 415 919 415 544 c 256,11,12
 415 169 415 169 501.5 -19.5 c 128,-1,13
 588 -208 588 -208 667 -311 c 0,14,15
 701 -356 701 -356 667 -383 c 2,16,-1
 583 -450 l 2,17,18
 551 -476 551 -476 499 -426 c 0,19,20
 372 -304 372 -304 243.5 -65 c 128,-1,21
 115 174 115 174 115 544 c 256,0,1
EndSplineSet
EndChar

StartChar: parenright
Encoding: 41 41 12
Width: 740
GlyphClass: 2
Flags: W
LayerCount: 2
Fore
SplineSet
73 -383 m 2,0,1
 39 -356 39 -356 73 -311 c 0,2,3
 152 -208 152 -208 238.5 -19.5 c 128,-1,4
 325 169 325 169 325 544 c 256,5,6
 325 919 325 919 238.5 1107.5 c 128,-1,7
 152 1296 152 1296 73 1399 c 0,8,9
 39 1444 39 1444 73 1471 c 2,10,-1
 157 1538 l 2,11,12
 189 1564 189 1564 241 1514 c 0,13,14
 368 1392 368 1392 496.5 1153 c 128,-1,15
 625 914 625 914 625 544 c 256,16,17
 625 174 625 174 496.5 -65 c 128,-1,18
 368 -304 368 -304 241 -426 c 0,19,20
 189 -476 189 -476 157 -450 c 2,21,-1
 73 -383 l 2,0,1
EndSplineSet
EndChar

StartChar: asterisk
Encoding: 42 42 13
Width: 960
GlyphClass: 2
Flags: W
LayerCount: 2
Fore
SplineSet
348 1058 m 1,0,-1
 152 1142 l 2,1,2
 66 1179 66 1179 108 1253 c 2,3,-1
 126 1284 l 2,4,5
 168 1356 168 1356 243 1300 c 2,6,-1
 414 1172 l 1,7,-1
 389 1385 l 2,8,9
 378 1478 378 1478 462 1478 c 2,10,-1
 498 1478 l 2,11,12
 582 1478 582 1478 571 1385 c 2,13,-1
 546 1172 l 1,14,-1
 717 1300 l 2,15,16
 793 1357 793 1357 835 1283 c 2,17,-1
 853 1252 l 2,18,19
 895 1179 895 1179 808 1142 c 2,20,-1
 612 1058 l 1,21,-1
 809 973 l 2,22,23
 895 936 895 936 853 864 c 2,24,-1
 835 833 l 2,25,26
 793 760 793 760 718 816 c 2,27,-1
 546 944 l 1,28,-1
 571 732 l 2,29,30
 582 638 582 638 497 638 c 2,31,-1
 462 638 l 2,32,33
 378 638 378 638 389 732 c 2,34,-1
 414 944 l 1,35,-1
 243 816 l 2,36,37
 167 759 167 759 125 832 c 2,38,-1
 107 863 l 2,39,40
 64 936 64 936 152 974 c 2,41,-1
 348 1058 l 1,0,-1
EndSplineSet
EndChar

StartChar: plus
Encoding: 43 43 14
Width: 1280
GlyphClass: 2
Flags: W
LayerCount: 2
Fore
SplineSet
135 632 m 2,0,1
 75 632 75 632 75 682 c 2,2,-1
 75 768 l 2,3,4
 75 818 75 818 135 818 c 2,5,-1
 547 818 l 1,6,-1
 547 1230 l 2,7,8
 547 1290 547 1290 597 1290 c 2,9,-1
 683 1290 l 2,10,11
 733 1290 733 1290 733 1230 c 2,12,-1
 733 818 l 1,13,-1
 1145 818 l 2,14,15
 1205 818 1205 818 1205 768 c 2,16,-1
 1205 682 l 2,17,18
 1205 632 1205 632 1145 632 c 2,19,-1
 733 632 l 1,20,-1
 733 220 l 2,21,22
 733 160 733 160 683 160 c 2,23,-1
 597 160 l 2,24,25
 547 160 547 160 547 220 c 2,26,-1
 547 632 l 1,27,-1
 135 632 l 2,0,1
EndSplineSet
Substitution2: "'tnum' Tabular Numbers lookup 3 subtable" plus.tab
EndChar

StartChar: comma
Encoding: 44 44 15
Width: 668
GlyphClass: 2
Flags: W
LayerCount: 2
Fore
SplineSet
256 0 m 2,0,1
 186 0 186 0 186 75 c 2,2,-1
 186 209 l 2,3,4
 186 284 186 284 256 284 c 2,5,-1
 412 284 l 2,6,7
 482 284 482 284 482 209 c 2,8,-1
 482 75 l 2,9,10
 482 -54 482 -54 465 -141.5 c 128,-1,11
 448 -229 448 -229 378 -283 c 0,12,13
 327 -322 327 -322 298 -291 c 2,14,-1
 260 -250 l 2,15,16
 224 -212 224 -212 271 -175 c 0,17,18
 303 -150 303 -150 314 -110 c 128,-1,19
 325 -70 325 -70 325 0 c 1,20,-1
 256 0 l 2,0,1
EndSplineSet
EndChar

StartChar: hyphen
Encoding: 45 45 16
Width: 700
GlyphClass: 2
Flags: W
LayerCount: 2
Fore
SplineSet
113 446 m 2,0,1
 53 446 53 446 53 496 c 2,2,-1
 53 610 l 2,3,4
 53 660 53 660 113 660 c 2,5,-1
 587 660 l 2,6,7
 647 660 647 660 647 610 c 2,8,-1
 647 496 l 2,9,10
 647 446 647 446 587 446 c 2,11,-1
 113 446 l 2,0,1
EndSplineSet
EndChar

StartChar: period
Encoding: 46 46 17
Width: 668
GlyphClass: 2
Flags: W
LayerCount: 2
Fore
SplineSet
258 0 m 2,0,1
 188 0 188 0 188 75 c 2,2,-1
 188 209 l 2,3,4
 188 284 188 284 258 284 c 2,5,-1
 410 284 l 2,6,7
 480 284 480 284 480 209 c 2,8,-1
 480 75 l 2,9,10
 480 0 480 0 410 0 c 2,11,-1
 258 0 l 2,0,1
EndSplineSet
EndChar

StartChar: slash
Encoding: 47 47 18
Width: 856
GlyphClass: 2
Flags: W
LayerCount: 2
Fore
SplineSet
34 -378 m 2,0,1
 -13 -360 -13 -360 9 -304 c 2,2,-1
 673 1426 l 2,3,4
 695 1482 695 1482 741 1464 c 2,5,-1
 822 1433 l 2,6,7
 869 1415 869 1415 847 1359 c 2,8,-1
 183 -371 l 2,9,10
 161 -427 161 -427 115 -409 c 2,11,-1
 34 -378 l 2,0,1
EndSplineSet
EndChar

StartChar: zero
Encoding: 48 48 19
Width: 1200
GlyphClass: 2
Flags: W
LayerCount: 2
Fore
SplineSet
88 711 m 256,0,1
 88 1116 88 1116 214 1286 c 128,-1,2
 340 1456 340 1456 600 1456 c 256,3,4
 860 1456 860 1456 986 1286 c 128,-1,5
 1112 1116 1112 1116 1112 711 c 256,6,7
 1112 306 1112 306 986 136 c 128,-1,8
 860 -34 860 -34 600 -34 c 256,9,10
 340 -34 340 -34 214 136 c 128,-1,11
 88 306 88 306 88 711 c 256,0,1
384 711 m 256,12,13
 384 526 384 526 414.5 355 c 128,-1,14
 445 184 445 184 600 184 c 256,15,16
 755 184 755 184 785.5 355 c 128,-1,17
 816 526 816 526 816 711 c 256,18,19
 816 896 816 896 785.5 1067 c 128,-1,20
 755 1238 755 1238 600 1238 c 256,21,22
 445 1238 445 1238 414.5 1067 c 128,-1,23
 384 896 384 896 384 711 c 256,12,13
EndSplineSet
Substitution2: "'onum' Oldstyle Figures lookup 4 subtable" zero.oldstyle
EndChar

StartChar: one
Encoding: 49 49 20
Width: 907
GlyphClass: 2
Flags: W
LayerCount: 2
Fore
SplineSet
155 1138 m 2,0,1
 129 1187 129 1187 190 1214 c 0,2,3
 248 1240 248 1240 311 1287 c 128,-1,4
 374 1334 374 1334 414 1384 c 0,5,6
 459 1440 459 1440 500 1440 c 2,7,-1
 659 1440 l 2,8,9
 719 1440 719 1440 719 1380 c 2,10,-1
 719 60 l 2,11,12
 719 0 719 0 659 0 c 2,13,-1
 499 0 l 2,14,15
 439 0 439 0 439 60 c 2,16,-1
 439 1011 l 2,17,18
 439 1051 439 1051 443 1091 c 1,19,-1
 439 1091 l 1,20,21
 408 1052 408 1052 371 1024 c 128,-1,22
 334 996 334 996 296 980 c 0,23,24
 249 960 249 960 225 1006 c 2,25,-1
 155 1138 l 2,0,1
EndSplineSet
Substitution2: "'onum' Oldstyle Figures lookup 4 subtable" one.oldstyle
Substitution2: "'tnum' Tabular Numbers lookup 3 subtable" one.tab
EndChar

StartChar: two
Encoding: 50 50 21
Width: 1200
GlyphClass: 2
Flags: W
LayerCount: 2
Fore
SplineSet
163 0 m 2,0,1
 88 0 88 0 88 65 c 2,2,-1
 88 113 l 2,3,4
 88 165 88 165 136 216 c 2,5,-1
 435 531 l 2,6,7
 570 674 570 674 682 785.5 c 128,-1,8
 794 897 794 897 794 1011 c 256,9,10
 794 1125 794 1125 737.5 1178.5 c 128,-1,11
 681 1232 681 1232 594 1232 c 0,12,13
 456 1232 456 1232 402 1168 c 128,-1,14
 348 1104 348 1104 324 1031 c 0,15,16
 301 960 301 960 240 980 c 2,17,-1
 139 1014 l 2,18,19
 90 1031 90 1031 111 1108 c 0,20,21
 150 1251 150 1251 270 1353.5 c 128,-1,22
 390 1456 390 1456 626 1456 c 0,23,24
 872 1456 872 1456 983 1329.5 c 128,-1,25
 1094 1203 1094 1203 1094 1055 c 0,26,27
 1094 861 1094 861 932 714.5 c 128,-1,28
 770 568 770 568 638 429 c 2,29,-1
 468 250 l 1,30,-1
 468 244 l 1,31,32
 528 248 528 248 568 248 c 2,33,-1
 1035 248 l 2,34,35
 1110 248 1110 248 1110 183 c 2,36,-1
 1110 65 l 2,37,38
 1110 0 1110 0 1035 0 c 2,39,-1
 163 0 l 2,0,1
EndSplineSet
Substitution2: "'onum' Oldstyle Figures lookup 4 subtable" two.oldstyle
EndChar

StartChar: three
Encoding: 51 51 22
Width: 1200
GlyphClass: 2
Flags: W
LayerCount: 2
Fore
SplineSet
100 102 m 0,0,1
 61 135 61 135 94 196 c 2,2,-1
 140 280 l 2,3,4
 173 341 173 341 247 289 c 0,5,6
 309 245 309 245 387 217.5 c 128,-1,7
 465 190 465 190 561 190 c 0,8,9
 693 190 693 190 750 261.5 c 128,-1,10
 807 333 807 333 807 422 c 0,11,12
 807 513 807 513 739.5 585.5 c 128,-1,13
 672 658 672 658 549 658 c 2,14,-1
 472 658 l 2,15,16
 407 658 407 658 407 711 c 2,17,-1
 407 821 l 2,18,19
 407 876 407 876 472 876 c 2,20,-1
 532 876 l 2,21,22
 624 876 624 876 694.5 933 c 128,-1,23
 765 990 765 990 765 1076 c 0,24,25
 765 1143 765 1143 718.5 1187.5 c 128,-1,26
 672 1232 672 1232 567 1232 c 0,27,28
 468 1232 468 1232 396 1203 c 128,-1,29
 324 1174 324 1174 282 1133 c 0,30,31
 222 1074 222 1074 179 1138 c 2,32,-1
 121 1223 l 2,33,34
 88 1271 88 1271 141 1321 c 0,35,36
 213 1390 213 1390 327 1423 c 128,-1,37
 441 1456 441 1456 550 1456 c 0,38,39
 807 1456 807 1456 932 1353.5 c 128,-1,40
 1057 1251 1057 1251 1057 1103 c 0,41,42
 1057 993 1057 993 971 902.5 c 128,-1,43
 885 812 885 812 789 778 c 1,44,-1
 789 774 l 1,45,46
 903 746 903 746 1005 651.5 c 128,-1,47
 1107 557 1107 557 1107 417 c 0,48,49
 1107 198 1107 198 969 82 c 128,-1,50
 831 -34 831 -34 548 -34 c 0,51,52
 429 -34 429 -34 301.5 2.5 c 128,-1,53
 174 39 174 39 100 102 c 0,0,1
EndSplineSet
Substitution2: "'onum' Oldstyle Figures lookup 4 subtable" three.oldstyle
EndChar

StartChar: four
Encoding: 52 52 23
Width: 1200
GlyphClass: 2
Flags: W
LayerCount: 2
Fore
SplineSet
127 312 m 2,0,1
 62 312 62 312 62 377 c 2,2,-1
 62 509 l 2,3,4
 62 566 62 566 92 608 c 2,5,-1
 646 1388 l 2,6,7
 683 1440 683 1440 739 1440 c 2,8,-1
 886 1440 l 2,9,10
 952 1440 952 1440 952 1375 c 2,11,-1
 952 560 l 1,12,-1
 1073 560 l 2,13,14
 1138 560 1138 560 1138 495 c 2,15,-1
 1138 377 l 2,16,17
 1138 312 1138 312 1074 312 c 2,18,-1
 952 312 l 1,19,-1
 952 65 l 2,20,21
 952 0 952 0 887 0 c 2,22,-1
 737 0 l 2,23,24
 672 0 672 0 672 65 c 2,25,-1
 672 312 l 1,26,-1
 127 312 l 2,0,1
341 560 m 1,27,-1
 672 560 l 1,28,-1
 672 947 l 2,29,30
 672 987 672 987 676 1027 c 1,31,-1
 672 1027 l 1,32,-1
 341 560 l 1,27,-1
EndSplineSet
Substitution2: "'onum' Oldstyle Figures lookup 4 subtable" four.oldstyle
EndChar

StartChar: five
Encoding: 53 53 24
Width: 1200
GlyphClass: 2
Flags: W
LayerCount: 2
Fore
SplineSet
101 101 m 0,0,1
 68 145 68 145 92 177 c 2,2,-1
 162 273 l 2,3,4
 204 331 204 331 264 276 c 0,5,6
 300 243 300 243 375 216.5 c 128,-1,7
 450 190 450 190 525 190 c 0,8,9
 639 190 639 190 717.5 254 c 128,-1,10
 796 318 796 318 796 441 c 0,11,12
 796 558 796 558 746 630 c 128,-1,13
 696 702 696 702 625 702 c 0,14,15
 564 702 564 702 513 692.5 c 128,-1,16
 462 683 462 683 407 635 c 0,17,18
 369 602 369 602 315 602 c 2,19,-1
 206 602 l 2,20,21
 141 602 141 602 141 667 c 2,22,-1
 141 1357 l 2,23,24
 141 1422 141 1422 206 1422 c 2,25,-1
 926 1422 l 2,26,27
 991 1422 991 1422 991 1357 c 2,28,-1
 991 1239 l 2,29,30
 991 1174 991 1174 926 1174 c 2,31,-1
 421 1174 l 1,32,-1
 421 929 l 2,33,34
 421 889 421 889 417 849 c 1,35,-1
 423 849 l 1,36,37
 476 895 476 895 541 910.5 c 128,-1,38
 606 926 606 926 680 926 c 0,39,40
 855 926 855 926 975.5 806.5 c 128,-1,41
 1096 687 1096 687 1096 437 c 0,42,43
 1096 207 1096 207 942.5 86.5 c 128,-1,44
 789 -34 789 -34 578 -34 c 0,45,46
 402 -34 402 -34 273.5 4.5 c 128,-1,47
 145 43 145 43 101 101 c 0,0,1
EndSplineSet
Substitution2: "'onum' Oldstyle Figures lookup 4 subtable" five.oldstyle
EndChar

StartChar: six
Encoding: 54 54 25
Width: 1200
GlyphClass: 2
Flags: W
LayerCount: 2
Fore
SplineSet
88 671 m 0,0,1
 88 1122 88 1122 249.5 1289 c 128,-1,2
 411 1456 411 1456 657 1456 c 0,3,4
 753 1456 753 1456 848 1428.5 c 128,-1,5
 943 1401 943 1401 994 1356 c 0,6,7
 1042 1313 1042 1313 1015 1272 c 2,8,-1
 949 1173 l 2,9,10
 917 1124 917 1124 856 1173 c 0,11,12
 826 1197 826 1197 768.5 1214.5 c 128,-1,13
 711 1232 711 1232 648 1232 c 0,14,15
 543 1232 543 1232 455 1133.5 c 128,-1,16
 367 1035 367 1035 367 799 c 1,17,-1
 371 799 l 1,18,19
 416 867 416 867 496 896.5 c 128,-1,20
 576 926 576 926 691 926 c 0,21,22
 900 926 900 926 1007 788.5 c 128,-1,23
 1114 651 1114 651 1114 448 c 0,24,25
 1114 228 1114 228 989 97 c 128,-1,26
 864 -34 864 -34 607 -34 c 0,27,28
 333 -34 333 -34 210.5 149.5 c 128,-1,29
 88 333 88 333 88 671 c 0,0,1
416 443 m 0,30,31
 416 321 416 321 466 255.5 c 128,-1,32
 516 190 516 190 612 190 c 0,33,34
 714 190 714 190 764 245 c 128,-1,35
 814 300 814 300 814 450 c 0,36,37
 814 582 814 582 764 642 c 128,-1,38
 714 702 714 702 624 702 c 0,39,40
 525 702 525 702 470.5 621 c 128,-1,41
 416 540 416 540 416 443 c 0,30,31
EndSplineSet
Substitution2: "'onum' Oldstyle Figures lookup 4 subtable" six.oldstyle
EndChar

StartChar: seven
Encoding: 55 55 26
Width: 1112
GlyphClass: 2
Flags: W
LayerCount: 2
Fore
SplineSet
148 1174 m 2,0,1
 83 1174 83 1174 83 1239 c 2,2,-1
 83 1357 l 2,3,4
 83 1422 83 1422 148 1422 c 2,5,-1
 964 1422 l 2,6,7
 1029 1422 1029 1422 1029 1357 c 2,8,-1
 1029 1244 l 2,9,10
 1029 1193 1029 1193 979 1137 c 0,11,12
 774 906 774 906 692 676 c 128,-1,13
 610 446 610 446 610 121 c 2,14,-1
 610 59 l 2,15,16
 610 -6 610 -6 545 -6 c 2,17,-1
 395 -6 l 2,18,19
 330 -6 330 -6 330 59 c 2,20,-1
 330 86 l 2,21,22
 330 447 330 447 449.5 693 c 128,-1,23
 569 939 569 939 767 1174 c 1,24,-1
 767 1178 l 1,25,26
 727 1174 727 1174 687 1174 c 2,27,-1
 148 1174 l 2,0,1
EndSplineSet
Substitution2: "'onum' Oldstyle Figures lookup 4 subtable" seven.oldstyle
Substitution2: "'tnum' Tabular Numbers lookup 3 subtable" seven.tab
EndChar

StartChar: eight
Encoding: 56 56 27
Width: 1200
GlyphClass: 2
Flags: W
LayerCount: 2
Fore
SplineSet
86 383 m 0,0,1
 86 555 86 555 191.5 650.5 c 128,-1,2
 297 746 297 746 373 767 c 1,3,-1
 373 772 l 1,4,5
 288 799 288 799 207.5 878.5 c 128,-1,6
 127 958 127 958 127 1088 c 0,7,8
 127 1244 127 1244 253.5 1350 c 128,-1,9
 380 1456 380 1456 600 1456 c 256,10,11
 820 1456 820 1456 946.5 1350 c 128,-1,12
 1073 1244 1073 1244 1073 1088 c 0,13,14
 1073 958 1073 958 992.5 878.5 c 128,-1,15
 912 799 912 799 827 772 c 1,16,-1
 827 767 l 1,17,18
 903 746 903 746 1008.5 650.5 c 128,-1,19
 1114 555 1114 555 1114 383 c 0,20,21
 1114 198 1114 198 993.5 82 c 128,-1,22
 873 -34 873 -34 600 -34 c 256,23,24
 327 -34 327 -34 206.5 82 c 128,-1,25
 86 198 86 198 86 383 c 0,0,1
386 413 m 0,26,27
 386 300 386 300 436 245 c 128,-1,28
 486 190 486 190 600 190 c 256,29,30
 714 190 714 190 764 245 c 128,-1,31
 814 300 814 300 814 413 c 0,32,33
 814 499 814 499 759.5 571.5 c 128,-1,34
 705 644 705 644 600 644 c 256,35,36
 495 644 495 644 440.5 571.5 c 128,-1,37
 386 499 386 499 386 413 c 0,26,27
419 1058 m 256,38,39
 419 978 419 978 464.5 932 c 128,-1,40
 510 886 510 886 600 886 c 256,41,42
 690 886 690 886 735.5 932 c 128,-1,43
 781 978 781 978 781 1058 c 256,44,45
 781 1138 781 1138 733.5 1185 c 128,-1,46
 686 1232 686 1232 600 1232 c 256,47,48
 514 1232 514 1232 466.5 1185 c 128,-1,49
 419 1138 419 1138 419 1058 c 256,38,39
EndSplineSet
Substitution2: "'onum' Oldstyle Figures lookup 4 subtable" eight.oldstyle
EndChar

StartChar: nine
Encoding: 57 57 28
Width: 1200
GlyphClass: 2
Flags: W
LayerCount: 2
Fore
SplineSet
86 974 m 0,0,1
 86 1194 86 1194 211 1325 c 128,-1,2
 336 1456 336 1456 593 1456 c 0,3,4
 867 1456 867 1456 989.5 1272.5 c 128,-1,5
 1112 1089 1112 1089 1112 751 c 0,6,7
 1112 300 1112 300 950.5 133 c 128,-1,8
 789 -34 789 -34 543 -34 c 0,9,10
 447 -34 447 -34 352 -6.5 c 128,-1,11
 257 21 257 21 206 66 c 0,12,13
 158 109 158 109 185 150 c 2,14,-1
 251 249 l 2,15,16
 283 298 283 298 344 249 c 0,17,18
 374 225 374 225 431.5 207.5 c 128,-1,19
 489 190 489 190 552 190 c 0,20,21
 657 190 657 190 745 288.5 c 128,-1,22
 833 387 833 387 833 623 c 1,23,-1
 829 623 l 1,24,25
 784 555 784 555 704 525.5 c 128,-1,26
 624 496 624 496 509 496 c 0,27,28
 300 496 300 496 193 633.5 c 128,-1,29
 86 771 86 771 86 974 c 0,0,1
386 972 m 0,30,31
 386 840 386 840 436 780 c 128,-1,32
 486 720 486 720 576 720 c 0,33,34
 675 720 675 720 729.5 801 c 128,-1,35
 784 882 784 882 784 979 c 0,36,37
 784 1101 784 1101 734 1166.5 c 128,-1,38
 684 1232 684 1232 588 1232 c 0,39,40
 486 1232 486 1232 436 1177 c 128,-1,41
 386 1122 386 1122 386 972 c 0,30,31
EndSplineSet
Substitution2: "'onum' Oldstyle Figures lookup 4 subtable" nine.oldstyle
EndChar

StartChar: less
Encoding: 60 60 31
Width: 1280
GlyphClass: 2
Flags: W
LayerCount: 2
Fore
SplineSet
128 634 m 2,0,1
 88 655 88 655 88 689 c 2,2,-1
 88 781 l 2,3,4
 88 815 88 815 128 836 c 2,5,-1
 1069 1337 l 2,6,7
 1122 1365 1122 1365 1146 1321 c 2,8,-1
 1183 1250 l 2,9,10
 1206 1206 1206 1206 1154 1178 c 2,11,-1
 320 736 l 1,12,-1
 320 734 l 1,13,-1
 1154 292 l 2,14,15
 1206 264 1206 264 1183 220 c 2,16,-1
 1146 149 l 2,17,18
 1122 105 1122 105 1069 133 c 2,19,-1
 128 634 l 2,0,1
EndSplineSet
EndChar

StartChar: greater
Encoding: 62 62 33
Width: 1280
GlyphClass: 2
Flags: W
LayerCount: 2
Fore
SplineSet
97 220 m 2,0,1
 74 264 74 264 126 292 c 2,2,-1
 960 734 l 1,3,-1
 960 736 l 1,4,-1
 126 1178 l 2,5,6
 74 1206 74 1206 97 1250 c 2,7,-1
 134 1321 l 2,8,9
 158 1365 158 1365 211 1337 c 2,10,-1
 1152 836 l 2,11,12
 1192 815 1192 815 1192 781 c 2,13,-1
 1192 689 l 2,14,15
 1192 655 1192 655 1152 634 c 2,16,-1
 211 133 l 2,17,18
 158 105 158 105 134 149 c 2,19,-1
 97 220 l 2,0,1
EndSplineSet
EndChar

StartChar: question
Encoding: 63 63 34
Width: 1106
GlyphClass: 2
Flags: W
LayerCount: 2
Fore
SplineSet
114 1158 m 2,0,1
 62 1191 62 1191 101 1260 c 0,2,3
 142 1332 142 1332 256 1400 c 128,-1,4
 370 1468 370 1468 544 1468 c 0,5,6
 781 1468 781 1468 893.5 1361 c 128,-1,7
 1006 1254 1006 1254 1006 1068 c 0,8,9
 1006 927 1006 927 840.5 763.5 c 128,-1,10
 675 600 675 600 675 494 c 2,11,-1
 675 478 l 2,12,13
 675 413 675 413 610 413 c 2,14,-1
 460 413 l 2,15,16
 395 413 395 413 395 478 c 2,17,-1
 395 508 l 2,18,19
 395 672 395 672 550.5 834 c 128,-1,20
 706 996 706 996 706 1074 c 0,21,22
 706 1155 706 1155 668.5 1199.5 c 128,-1,23
 631 1244 631 1244 534 1244 c 0,24,25
 448 1244 448 1244 395 1205 c 128,-1,26
 342 1166 342 1166 308 1110 c 0,27,28
 275 1055 275 1055 219 1091 c 2,29,-1
 114 1158 l 2,0,1
459 0 m 2,30,31
 389 0 389 0 389 75 c 2,32,-1
 389 209 l 2,33,34
 389 284 389 284 459 284 c 2,35,-1
 611 284 l 2,36,37
 681 284 681 284 681 209 c 2,38,-1
 681 75 l 2,39,40
 681 0 681 0 611 0 c 2,41,-1
 459 0 l 2,30,31
EndSplineSet
EndChar

StartChar: at
Encoding: 64 64 35
Width: 2074
GlyphClass: 2
Flags: W
LayerCount: 2
Fore
SplineSet
112 564 m 0,0,1
 112 964 112 964 375.5 1232 c 128,-1,2
 639 1500 639 1500 1063 1500 c 0,3,4
 1451 1500 1451 1500 1706.5 1288 c 128,-1,5
 1962 1076 1962 1076 1962 700 c 0,6,7
 1962 406 1962 406 1818.5 253 c 128,-1,8
 1675 100 1675 100 1439 100 c 0,9,10
 1337 100 1337 100 1275 133.5 c 128,-1,11
 1213 167 1213 167 1189 271 c 1,12,-1
 1187 271 l 1,13,14
 1126 194 1126 194 1058 147 c 128,-1,15
 990 100 990 100 872 100 c 0,16,17
 755 100 755 100 659.5 188 c 128,-1,18
 564 276 564 276 564 487 c 0,19,20
 564 714 564 714 715.5 878.5 c 128,-1,21
 867 1043 867 1043 1075 1043 c 0,22,23
 1215 1043 1215 1043 1266 897 c 1,24,-1
 1270 897 l 1,25,-1
 1284 958 l 2,26,27
 1295 1006 1295 1006 1343 1006 c 2,28,-1
 1482 1006 l 2,29,30
 1533 1006 1533 1006 1521 954 c 2,31,-1
 1401 422 l 2,32,33
 1384 347 1384 347 1392.5 313.5 c 128,-1,34
 1401 280 1401 280 1450 280 c 0,35,36
 1595 280 1595 280 1684.5 378 c 128,-1,37
 1774 476 1774 476 1774 661 c 0,38,39
 1774 972 1774 972 1586.5 1145 c 128,-1,40
 1399 1318 1399 1318 1063 1318 c 0,41,42
 731 1318 731 1318 515.5 1105 c 128,-1,43
 300 892 300 892 300 570 c 0,44,45
 300 244 300 244 513.5 34 c 128,-1,46
 727 -176 727 -176 1061 -176 c 0,47,48
 1211 -176 1211 -176 1324.5 -153 c 128,-1,49
 1438 -130 1438 -130 1582 -50 c 0,50,51
 1627 -25 1627 -25 1641 -47 c 2,52,-1
 1703 -140 l 2,53,54
 1730 -181 1730 -181 1687 -206 c 0,55,56
 1539 -294 1539 -294 1363.5 -326 c 128,-1,57
 1188 -358 1188 -358 1050 -358 c 0,58,59
 647 -358 647 -358 379.5 -95 c 128,-1,60
 112 168 112 168 112 564 c 0,0,1
806 433 m 0,61,62
 806 366 806 366 838 323 c 128,-1,63
 870 280 870 280 924 280 c 0,64,65
 1017 280 1017 280 1099 376.5 c 128,-1,66
 1181 473 1181 473 1196 582 c 0,67,68
 1205 648 1205 648 1205 704 c 0,69,70
 1205 768 1205 768 1169 815.5 c 128,-1,71
 1133 863 1133 863 1079 863 c 0,72,73
 987 863 987 863 896.5 757 c 128,-1,74
 806 651 806 651 806 433 c 0,61,62
EndSplineSet
EndChar

StartChar: A
Encoding: 65 65 36
Width: 1394
GlyphClass: 2
Flags: W
AnchorPoint: "Anchor-3" 697 1468 basechar 0
AnchorPoint: "Anchor-2" 697 0 basechar 0
AnchorPoint: "Anchor-1" 1172 0 basechar 0
LayerCount: 2
Fore
SplineSet
90 0 m 2,0,1
 18 0 18 0 43 66 c 2,2,-1
 533 1353 l 2,3,4
 564 1434 564 1434 627 1434 c 2,5,-1
 767 1434 l 2,6,7
 830 1434 830 1434 861 1353 c 2,8,-1
 1351 66 l 2,9,10
 1376 0 1376 0 1304 0 c 2,11,-1
 1145 0 l 2,12,13
 1079 0 1079 0 1053 69 c 2,14,-1
 951 338 l 1,15,-1
 443 338 l 1,16,-1
 341 69 l 2,17,18
 315 0 315 0 249 0 c 2,19,-1
 90 0 l 2,0,1
536 586 m 1,20,-1
 858 586 l 1,21,-1
 735 904 l 2,22,23
 713 960 713 960 708.5 985.5 c 128,-1,24
 704 1011 704 1011 699 1061 c 1,25,-1
 695 1061 l 1,26,27
 690 1011 690 1011 685.5 985.5 c 128,-1,28
 681 960 681 960 659 904 c 2,29,-1
 536 586 l 1,20,-1
EndSplineSet
EndChar

StartChar: B
Encoding: 66 66 37
Width: 1379
GlyphClass: 2
Flags: W
AnchorPoint: "Anchor-3" 672 1468 basechar 0
AnchorPoint: "Anchor-2" 672 0 basechar 0
LayerCount: 2
Fore
SplineSet
240 0 m 2,0,1
 160 0 160 0 160 75 c 2,2,-1
 160 1359 l 2,3,4
 160 1434 160 1434 240 1434 c 2,5,-1
 580 1434 l 2,6,7
 964 1434 964 1434 1098.5 1339.5 c 128,-1,8
 1233 1245 1233 1245 1233 1049 c 0,9,10
 1233 912 1233 912 1132.5 837 c 128,-1,11
 1032 762 1032 762 938 750 c 1,12,-1
 938 747 l 1,13,14
 1029 741 1029 741 1152 655 c 128,-1,15
 1275 569 1275 569 1275 412 c 0,16,17
 1275 228 1275 228 1125 114 c 128,-1,18
 975 0 975 0 630 0 c 2,19,-1
 240 0 l 2,0,1
452 244 m 1,20,-1
 598 244 l 2,21,22
 810 244 810 244 886.5 281 c 128,-1,23
 963 318 963 318 963 431 c 0,24,25
 963 537 963 537 874.5 577.5 c 128,-1,26
 786 618 786 618 598 618 c 2,27,-1
 452 618 l 1,28,-1
 452 244 l 1,20,-1
452 854 m 1,29,-1
 583 854 l 2,30,31
 712 854 712 854 824.5 899 c 128,-1,32
 937 944 937 944 937 1039 c 0,33,34
 937 1113 937 1113 874.5 1151.5 c 128,-1,35
 812 1190 812 1190 583 1190 c 2,36,-1
 452 1190 l 1,37,-1
 452 854 l 1,29,-1
EndSplineSet
EndChar

StartChar: C
Encoding: 67 67 38
Width: 1418
GlyphClass: 2
Flags: W
AnchorPoint: "Anchor-3" 766 1468 basechar 0
AnchorPoint: "Anchor-2" 766 0 basechar 0
LayerCount: 2
Fore
SplineSet
86 717 m 256,0,1
 86 1062 86 1062 261 1265 c 128,-1,2
 436 1468 436 1468 766 1468 c 0,3,4
 956 1468 956 1468 1088 1409 c 128,-1,5
 1220 1350 1220 1350 1274 1238 c 0,6,7
 1310 1164 1310 1164 1262 1138 c 2,8,-1
 1142 1074 l 2,9,10
 1079 1040 1079 1040 1038 1112 c 0,11,12
 1012 1158 1012 1158 941.5 1195 c 128,-1,13
 871 1232 871 1232 776 1232 c 0,14,15
 566 1232 566 1232 482 1099.5 c 128,-1,16
 398 967 398 967 398 717 c 256,17,18
 398 467 398 467 482 334.5 c 128,-1,19
 566 202 566 202 776 202 c 0,20,21
 889 202 889 202 966.5 253 c 128,-1,22
 1044 304 1044 304 1074 350 c 0,23,24
 1123 425 1123 425 1178 388 c 2,25,-1
 1298 308 l 2,26,27
 1347 275 1347 275 1308 208 c 0,28,29
 1250 108 1250 108 1109 37 c 128,-1,30
 968 -34 968 -34 766 -34 c 0,31,32
 441 -34 441 -34 263.5 169 c 128,-1,33
 86 372 86 372 86 717 c 256,0,1
EndSplineSet
EndChar

StartChar: D
Encoding: 68 68 39
Width: 1450
GlyphClass: 2
Flags: W
AnchorPoint: "Anchor-3" 716 1468 basechar 0
AnchorPoint: "Anchor-2" 716 0 basechar 0
LayerCount: 2
Fore
SplineSet
230 0 m 2,0,1
 160 0 160 0 160 75 c 2,2,-1
 160 1359 l 2,3,4
 160 1434 160 1434 230 1434 c 2,5,-1
 579 1434 l 2,6,7
 1039 1434 1039 1434 1201.5 1248 c 128,-1,8
 1364 1062 1364 1062 1364 719 c 256,9,10
 1364 376 1364 376 1201.5 188 c 128,-1,11
 1039 0 1039 0 579 0 c 2,12,-1
 230 0 l 2,0,1
452 248 m 1,13,-1
 560 248 l 2,14,15
 870 248 870 248 961 363.5 c 128,-1,16
 1052 479 1052 479 1052 719 c 256,17,18
 1052 959 1052 959 961 1073.5 c 128,-1,19
 870 1188 870 1188 560 1188 c 2,20,-1
 452 1188 l 1,21,-1
 452 248 l 1,13,-1
EndSplineSet
EndChar

StartChar: E
Encoding: 69 69 40
Width: 1280
GlyphClass: 2
Flags: W
AnchorPoint: "Anchor-3" 678 1468 basechar 0
AnchorPoint: "Anchor-2" 678 0 basechar 0
AnchorPoint: "Anchor-1" 678 0 basechar 0
LayerCount: 2
Fore
SplineSet
230 0 m 2,0,1
 160 0 160 0 160 75 c 2,2,-1
 160 1359 l 2,3,4
 160 1434 160 1434 230 1434 c 2,5,-1
 1088 1434 l 2,6,7
 1163 1434 1163 1434 1163 1369 c 2,8,-1
 1163 1251 l 2,9,10
 1163 1186 1163 1186 1088 1186 c 2,11,-1
 452 1186 l 1,12,-1
 452 868 l 1,13,-1
 1035 868 l 2,14,15
 1110 868 1110 868 1110 803 c 2,16,-1
 1110 685 l 2,17,18
 1110 620 1110 620 1035 620 c 2,19,-1
 452 620 l 1,20,-1
 452 248 l 1,21,-1
 1120 248 l 2,22,23
 1195 248 1195 248 1195 183 c 2,24,-1
 1195 65 l 2,25,26
 1195 0 1195 0 1120 0 c 2,27,-1
 230 0 l 2,0,1
EndSplineSet
EndChar

StartChar: F
Encoding: 70 70 41
Width: 1176
GlyphClass: 2
Flags: W
AnchorPoint: "Anchor-3" 628 1468 basechar 0
AnchorPoint: "Anchor-2" 628 0 basechar 0
LayerCount: 2
Fore
SplineSet
230 0 m 2,0,1
 160 0 160 0 160 75 c 2,2,-1
 160 1359 l 2,3,4
 160 1434 160 1434 230 1434 c 2,5,-1
 1021 1434 l 2,6,7
 1096 1434 1096 1434 1096 1369 c 2,8,-1
 1096 1251 l 2,9,10
 1096 1186 1096 1186 1021 1186 c 2,11,-1
 452 1186 l 1,12,-1
 452 838 l 1,13,-1
 939 838 l 2,14,15
 1014 838 1014 838 1014 773 c 2,16,-1
 1014 655 l 2,17,18
 1014 590 1014 590 939 590 c 2,19,-1
 452 590 l 1,20,-1
 452 75 l 2,21,22
 452 0 452 0 382 0 c 2,23,-1
 230 0 l 2,0,1
EndSplineSet
EndChar

StartChar: G
Encoding: 71 71 42
Width: 1506
GlyphClass: 2
Flags: W
AnchorPoint: "Anchor-3" 776 1468 basechar 0
AnchorPoint: "Anchor-2" 776 0 basechar 0
LayerCount: 2
Fore
SplineSet
86 717 m 256,0,1
 86 1062 86 1062 266 1265 c 128,-1,2
 446 1468 446 1468 776 1468 c 0,3,4
 975 1468 975 1468 1088.5 1417 c 128,-1,5
 1202 1366 1202 1366 1288 1259 c 0,6,7
 1340 1194 1340 1194 1285 1158 c 2,8,-1
 1171 1084 l 2,9,10
 1121 1051 1121 1051 1064 1113 c 0,11,12
 1017 1164 1017 1164 945 1198 c 128,-1,13
 873 1232 873 1232 786 1232 c 0,14,15
 576 1232 576 1232 487 1099.5 c 128,-1,16
 398 967 398 967 398 717 c 256,17,18
 398 467 398 467 487 334.5 c 128,-1,19
 576 202 576 202 786 202 c 0,20,21
 888 202 888 202 962 222.5 c 128,-1,22
 1036 243 1036 243 1102 297 c 1,23,-1
 1102 476 l 1,24,-1
 885 476 l 2,25,26
 810 476 810 476 810 541 c 2,27,-1
 810 659 l 2,28,29
 810 724 810 724 885 724 c 2,30,-1
 1319 724 l 2,31,32
 1394 724 1394 724 1394 659 c 2,33,-1
 1394 151 l 1,34,35
 1254 48 1254 48 1111.5 7 c 128,-1,36
 969 -34 969 -34 776 -34 c 0,37,38
 451 -34 451 -34 268.5 169 c 128,-1,39
 86 372 86 372 86 717 c 256,0,1
EndSplineSet
EndChar

StartChar: H
Encoding: 72 72 43
Width: 1442
GlyphClass: 2
Flags: W
AnchorPoint: "Anchor-3" 721 1468 basechar 0
AnchorPoint: "Anchor-2" 721 0 basechar 0
LayerCount: 2
Fore
SplineSet
230 0 m 2,0,1
 160 0 160 0 160 75 c 2,2,-1
 160 1359 l 2,3,4
 160 1434 160 1434 230 1434 c 2,5,-1
 382 1434 l 2,6,7
 452 1434 452 1434 452 1359 c 2,8,-1
 452 870 l 1,9,-1
 990 870 l 1,10,-1
 990 1359 l 2,11,12
 990 1434 990 1434 1060 1434 c 2,13,-1
 1212 1434 l 2,14,15
 1282 1434 1282 1434 1282 1359 c 2,16,-1
 1282 75 l 2,17,18
 1282 0 1282 0 1212 0 c 2,19,-1
 1060 0 l 2,20,21
 990 0 990 0 990 75 c 2,22,-1
 990 622 l 1,23,-1
 452 622 l 1,24,-1
 452 75 l 2,25,26
 452 0 452 0 382 0 c 2,27,-1
 230 0 l 2,0,1
EndSplineSet
EndChar

StartChar: I
Encoding: 73 73 44
Width: 612
GlyphClass: 2
Flags: W
AnchorPoint: "Anchor-3" 306 1468 basechar 0
AnchorPoint: "Anchor-2" 306 0 basechar 0
AnchorPoint: "Anchor-1" 306 0 basechar 0
LayerCount: 2
Fore
SplineSet
230 0 m 2,0,1
 160 0 160 0 160 75 c 2,2,-1
 160 1359 l 2,3,4
 160 1434 160 1434 230 1434 c 2,5,-1
 382 1434 l 2,6,7
 452 1434 452 1434 452 1359 c 2,8,-1
 452 75 l 2,9,10
 452 0 452 0 382 0 c 2,11,-1
 230 0 l 2,0,1
EndSplineSet
EndChar

StartChar: J
Encoding: 74 74 45
Width: 947
GlyphClass: 2
Flags: W
AnchorPoint: "Anchor-3" 641 1468 basechar 0
AnchorPoint: "Anchor-2" 411 0 basechar 0
LayerCount: 2
Fore
SplineSet
77 19 m 0,0,1
 24 50 24 50 37 94 c 2,2,-1
 79 231 l 2,3,4
 97 290 97 290 173 243 c 0,5,6
 238 202 238 202 318 202 c 0,7,8
 428 202 428 202 461.5 278 c 128,-1,9
 495 354 495 354 495 531 c 2,10,-1
 495 1359 l 2,11,12
 495 1434 495 1434 565 1434 c 2,13,-1
 717 1434 l 2,14,15
 787 1434 787 1434 787 1359 c 2,16,-1
 787 551 l 2,17,18
 787 183 787 183 663.5 74.5 c 128,-1,19
 540 -34 540 -34 321 -34 c 0,20,21
 168 -34 168 -34 77 19 c 0,0,1
EndSplineSet
EndChar

StartChar: K
Encoding: 75 75 46
Width: 1361
GlyphClass: 2
Flags: W
AnchorPoint: "Anchor-3" 742 1468 basechar 0
AnchorPoint: "Anchor-2" 742 0 basechar 0
LayerCount: 2
Fore
SplineSet
230 0 m 2,0,1
 160 0 160 0 160 75 c 2,2,-1
 160 1359 l 2,3,4
 160 1434 160 1434 230 1434 c 2,5,-1
 382 1434 l 2,6,7
 452 1434 452 1434 452 1359 c 2,8,-1
 452 961 l 2,9,10
 452 901 452 901 447 841 c 1,11,-1
 454 841 l 1,12,-1
 940 1375 l 2,13,14
 994 1434 994 1434 1032 1434 c 2,15,-1
 1233 1434 l 2,16,17
 1350 1434 1350 1434 1271 1348 c 2,18,-1
 816 850 l 1,19,-1
 1303 86 l 2,20,21
 1358 0 1358 0 1265 0 c 2,22,-1
 1078 0 l 2,23,24
 1026 0 1026 0 988 59 c 2,25,-1
 620 636 l 1,26,-1
 452 447 l 1,27,-1
 452 75 l 2,28,29
 452 0 452 0 382 0 c 2,30,-1
 230 0 l 2,0,1
EndSplineSet
EndChar

StartChar: L
Encoding: 76 76 47
Width: 1162
GlyphClass: 2
Flags: W
AnchorPoint: "Anchor-3" 635 1468 basechar 0
AnchorPoint: "Anchor-2" 635 0 basechar 0
LayerCount: 2
Fore
SplineSet
230 0 m 2,0,1
 160 0 160 0 160 75 c 2,2,-1
 160 1359 l 2,3,4
 160 1434 160 1434 230 1434 c 2,5,-1
 392 1434 l 2,6,7
 452 1434 452 1434 452 1359 c 2,8,-1
 452 248 l 1,9,-1
 1035 248 l 2,10,11
 1110 248 1110 248 1110 183 c 2,12,-1
 1110 65 l 2,13,14
 1110 0 1110 0 1035 0 c 2,15,-1
 230 0 l 2,0,1
EndSplineSet
EndChar

StartChar: M
Encoding: 77 77 48
Width: 1828
GlyphClass: 2
Flags: W
AnchorPoint: "Anchor-3" 914 1468 basechar 0
AnchorPoint: "Anchor-2" 914 0 basechar 0
LayerCount: 2
Fore
SplineSet
230 0 m 2,0,1
 160 0 160 0 160 75 c 2,2,-1
 160 1359 l 2,3,4
 160 1434 160 1434 230 1434 c 2,5,-1
 520 1434 l 2,6,7
 578 1434 578 1434 603 1354 c 2,8,-1
 874 477 l 2,9,10
 892 420 892 420 899 383.5 c 128,-1,11
 906 347 906 347 911 297 c 1,12,-1
 917 297 l 1,13,14
 922 347 922 347 929 383.5 c 128,-1,15
 936 420 936 420 954 477 c 2,16,-1
 1225 1354 l 2,17,18
 1250 1434 1250 1434 1308 1434 c 2,19,-1
 1598 1434 l 2,20,21
 1668 1434 1668 1434 1668 1359 c 2,22,-1
 1668 75 l 2,23,24
 1668 0 1668 0 1598 0 c 2,25,-1
 1446 0 l 2,26,27
 1376 0 1376 0 1376 75 c 2,28,-1
 1376 901 l 2,29,30
 1376 961 1376 961 1381 1021 c 1,31,-1
 1374 1021 l 1,32,-1
 1085 81 l 2,33,34
 1060 0 1060 0 999 0 c 2,35,-1
 829 0 l 2,36,37
 768 0 768 0 743 81 c 2,38,-1
 454 1021 l 1,39,-1
 447 1021 l 1,40,41
 452 961 452 961 452 901 c 2,42,-1
 452 75 l 2,43,44
 452 0 452 0 382 0 c 2,45,-1
 230 0 l 2,0,1
EndSplineSet
EndChar

StartChar: N
Encoding: 78 78 49
Width: 1472
GlyphClass: 2
Flags: W
AnchorPoint: "Anchor-3" 736 1468 basechar 0
AnchorPoint: "Anchor-2" 736 0 basechar 0
LayerCount: 2
Fore
SplineSet
230 0 m 2,0,1
 160 0 160 0 160 75 c 2,2,-1
 160 1359 l 2,3,4
 160 1434 160 1434 230 1434 c 2,5,-1
 378 1434 l 2,6,7
 464 1434 464 1434 508 1364 c 2,8,-1
 1018 545 l 1,9,-1
 1025 545 l 1,10,11
 1020 605 1020 605 1020 665 c 2,12,-1
 1020 1359 l 2,13,14
 1020 1434 1020 1434 1090 1434 c 2,15,-1
 1242 1434 l 2,16,17
 1312 1434 1312 1434 1312 1359 c 2,18,-1
 1312 75 l 2,19,20
 1312 0 1312 0 1242 0 c 2,21,-1
 1104 0 l 2,22,23
 1018 0 1018 0 974 70 c 2,24,-1
 454 904 l 1,25,-1
 447 904 l 1,26,27
 452 844 452 844 452 784 c 2,28,-1
 452 75 l 2,29,30
 452 0 452 0 382 0 c 2,31,-1
 230 0 l 2,0,1
EndSplineSet
EndChar

StartChar: O
Encoding: 79 79 50
Width: 1544
GlyphClass: 2
Flags: W
AnchorPoint: "Anchor-3" 772 1468 basechar 0
AnchorPoint: "Anchor-2" 772 0 basechar 0
AnchorPoint: "Anchor-1" 772 0 basechar 0
LayerCount: 2
Fore
SplineSet
86 717 m 256,0,1
 86 1062 86 1062 264 1265 c 128,-1,2
 442 1468 442 1468 772 1468 c 256,3,4
 1102 1468 1102 1468 1280 1265 c 128,-1,5
 1458 1062 1458 1062 1458 717 c 256,6,7
 1458 372 1458 372 1280 169 c 128,-1,8
 1102 -34 1102 -34 772 -34 c 256,9,10
 442 -34 442 -34 264 169 c 128,-1,11
 86 372 86 372 86 717 c 256,0,1
398 717 m 256,12,13
 398 467 398 467 487.5 334.5 c 128,-1,14
 577 202 577 202 772 202 c 256,15,16
 967 202 967 202 1056.5 334.5 c 128,-1,17
 1146 467 1146 467 1146 717 c 256,18,19
 1146 967 1146 967 1056.5 1099.5 c 128,-1,20
 967 1232 967 1232 772 1232 c 256,21,22
 577 1232 577 1232 487.5 1099.5 c 128,-1,23
 398 967 398 967 398 717 c 256,12,13
EndSplineSet
EndChar

StartChar: P
Encoding: 80 80 51
Width: 1328
GlyphClass: 2
Flags: W
AnchorPoint: "Anchor-3" 656 1468 basechar 0
AnchorPoint: "Anchor-2" 656 0 basechar 0
LayerCount: 2
Fore
SplineSet
230 0 m 2,0,1
 160 0 160 0 160 75 c 2,2,-1
 160 1359 l 2,3,4
 160 1434 160 1434 230 1434 c 2,5,-1
 604 1434 l 2,6,7
 964 1434 964 1434 1103.5 1317 c 128,-1,8
 1243 1200 1243 1200 1243 985 c 256,9,10
 1243 770 1243 770 1103.5 653 c 128,-1,11
 964 536 964 536 604 536 c 2,12,-1
 452 536 l 1,13,-1
 452 75 l 2,14,15
 452 0 452 0 382 0 c 2,16,-1
 230 0 l 2,0,1
452 780 m 1,17,-1
 603 780 l 2,18,19
 803 780 803 780 875 827.5 c 128,-1,20
 947 875 947 875 947 985 c 256,21,22
 947 1095 947 1095 875 1142.5 c 128,-1,23
 803 1190 803 1190 603 1190 c 2,24,-1
 452 1190 l 1,25,-1
 452 780 l 1,17,-1
EndSplineSet
EndChar

StartChar: Q
Encoding: 81 81 52
Width: 1544
GlyphClass: 2
Flags: W
AnchorPoint: "Anchor-3" 772 1468 basechar 0
AnchorPoint: "Anchor-2" 772 -400 basechar 0
LayerCount: 2
Fore
SplineSet
86 717 m 256,0,1
 86 1062 86 1062 264 1265 c 128,-1,2
 442 1468 442 1468 772 1468 c 256,3,4
 1102 1468 1102 1468 1280 1265 c 128,-1,5
 1458 1062 1458 1062 1458 717 c 256,6,7
 1458 372 1458 372 1280 169 c 0,8,9
 1144 14 1144 14 919 -23 c 1,10,11
 928 -113 928 -113 966.5 -157.5 c 128,-1,12
 1005 -202 1005 -202 1116 -202 c 0,13,14
 1167 -202 1167 -202 1222 -188 c 0,15,16
 1272 -175 1272 -175 1280 -210 c 2,17,-1
 1308 -326 l 2,18,19
 1317 -365 1317 -365 1272 -376 c 0,20,21
 1154 -407 1154 -407 1084 -407 c 0,22,23
 816 -407 816 -407 726.5 -294 c 128,-1,24
 637 -181 637 -181 626 -23 c 1,25,26
 400 13 400 13 264 169 c 0,27,28
 86 372 86 372 86 717 c 256,0,1
398 717 m 256,29,30
 398 467 398 467 487.5 334.5 c 128,-1,31
 577 202 577 202 772 202 c 256,32,33
 967 202 967 202 1056.5 334.5 c 128,-1,34
 1146 467 1146 467 1146 717 c 256,35,36
 1146 967 1146 967 1056.5 1099.5 c 128,-1,37
 967 1232 967 1232 772 1232 c 256,38,39
 577 1232 577 1232 487.5 1099.5 c 128,-1,40
 398 967 398 967 398 717 c 256,29,30
EndSplineSet
EndChar

StartChar: R
Encoding: 82 82 53
Width: 1428
GlyphClass: 2
Flags: W
AnchorPoint: "Anchor-3" 656 1468 basechar 0
AnchorPoint: "Anchor-2" 656 0 basechar 0
LayerCount: 2
Fore
SplineSet
230 0 m 2,0,1
 160 0 160 0 160 75 c 2,2,-1
 160 1359 l 2,3,4
 160 1434 160 1434 230 1434 c 2,5,-1
 693 1434 l 2,6,7
 1002 1434 1002 1434 1144 1338.5 c 128,-1,8
 1286 1243 1286 1243 1286 1028 c 0,9,10
 1286 868 1286 868 1171 773 c 128,-1,11
 1056 678 1056 678 879 647 c 1,12,-1
 879 645 l 1,13,14
 975 609 975 609 1024 545 c 128,-1,15
 1073 481 1073 481 1104 433 c 2,16,-1
 1324 86 l 2,17,18
 1379 0 1379 0 1286 0 c 2,19,-1
 1112 0 l 2,20,21
 1057 0 1057 0 1022 59 c 2,22,-1
 820 396 l 2,23,24
 787 450 787 450 699.5 514.5 c 128,-1,25
 612 579 612 579 526 579 c 2,26,-1
 452 579 l 1,27,-1
 452 75 l 2,28,29
 452 0 452 0 382 0 c 2,30,-1
 230 0 l 2,0,1
452 827 m 1,31,-1
 631 827 l 2,32,33
 831 827 831 827 915.5 872.5 c 128,-1,34
 1000 918 1000 918 1000 1017 c 0,35,36
 1000 1125 1000 1125 918.5 1157.5 c 128,-1,37
 837 1190 837 1190 679 1190 c 2,38,-1
 452 1190 l 1,39,-1
 452 827 l 1,31,-1
EndSplineSet
EndChar

StartChar: S
Encoding: 83 83 54
Width: 1308
GlyphClass: 2
Flags: W
AnchorPoint: "Anchor-3" 663 1468 basechar 0
AnchorPoint: "Anchor-2" 635 0 basechar 0
LayerCount: 2
Fore
SplineSet
145 107 m 0,0,1
 83 154 83 154 115 202 c 2,2,-1
 192 318 l 2,3,4
 230 375 230 375 303 324 c 0,5,6
 359 285 359 285 449.5 243.5 c 128,-1,7
 540 202 540 202 640 202 c 0,8,9
 710 202 710 202 775 218 c 128,-1,10
 840 234 840 234 874 280 c 128,-1,11
 908 326 908 326 908 389 c 0,12,13
 908 434 908 434 893 468 c 128,-1,14
 878 502 878 502 844 524 c 128,-1,15
 810 546 810 546 774 561 c 0,16,17
 711 587 711 587 615.5 612.5 c 128,-1,18
 520 638 520 638 427 674 c 0,19,20
 344 706 344 706 275 762 c 128,-1,21
 206 818 206 818 168 888 c 128,-1,22
 130 958 130 958 130 1075 c 0,23,24
 130 1214 130 1214 220 1313 c 128,-1,25
 310 1412 310 1412 427 1440 c 128,-1,26
 544 1468 544 1468 663 1468 c 0,27,28
 781 1468 781 1468 906.5 1432 c 128,-1,29
 1032 1396 1032 1396 1096 1342 c 0,30,31
 1159 1289 1159 1289 1127 1246 c 2,32,-1
 1046 1137 l 2,33,34
 1005 1081 1005 1081 936 1128 c 0,35,36
 892 1158 892 1158 815.5 1195 c 128,-1,37
 739 1232 739 1232 656 1232 c 0,38,39
 597 1232 597 1232 547.5 1222 c 128,-1,40
 498 1212 498 1212 460 1174 c 128,-1,41
 422 1136 422 1136 422 1080 c 0,42,43
 422 1026 422 1026 450 992.5 c 128,-1,44
 478 959 478 959 512 942.5 c 128,-1,45
 546 926 546 926 581 915 c 0,46,47
 689 880 689 880 774 853.5 c 128,-1,48
 859 827 859 827 931 795 c 0,49,50
 1031 750 1031 750 1084 705 c 128,-1,51
 1137 660 1137 660 1171.5 582 c 128,-1,52
 1206 504 1206 504 1206 396 c 0,53,54
 1206 236 1206 236 1104 131.5 c 128,-1,55
 1002 27 1002 27 877.5 -3.5 c 128,-1,56
 753 -34 753 -34 635 -34 c 0,57,58
 461 -34 461 -34 352 -0.5 c 128,-1,59
 243 33 243 33 145 107 c 0,0,1
EndSplineSet
EndChar

StartChar: T
Encoding: 84 84 55
Width: 1246
GlyphClass: 2
Flags: W
AnchorPoint: "Anchor-3" 623 1468 basechar 0
AnchorPoint: "Anchor-2" 623 0 basechar 0
LayerCount: 2
Fore
SplineSet
109 1178 m 2,0,1
 34 1178 34 1178 34 1243 c 2,2,-1
 34 1369 l 2,3,4
 34 1434 34 1434 109 1434 c 2,5,-1
 1137 1434 l 2,6,7
 1212 1434 1212 1434 1212 1369 c 2,8,-1
 1212 1243 l 2,9,10
 1212 1178 1212 1178 1137 1178 c 2,11,-1
 769 1178 l 1,12,-1
 769 55 l 2,13,14
 769 0 769 0 719 0 c 2,15,-1
 527 0 l 2,16,17
 477 0 477 0 477 55 c 2,18,-1
 477 1178 l 1,19,-1
 109 1178 l 2,0,1
EndSplineSet
EndChar

StartChar: U
Encoding: 85 85 56
Width: 1422
GlyphClass: 2
Flags: W
AnchorPoint: "Anchor-3" 711 1468 basechar 0
AnchorPoint: "Anchor-2" 711 0 basechar 0
AnchorPoint: "Anchor-1" 711 0 basechar 0
LayerCount: 2
Fore
SplineSet
160 597 m 2,0,-1
 160 1379 l 2,1,2
 160 1434 160 1434 230 1434 c 2,3,-1
 382 1434 l 2,4,5
 452 1434 452 1434 452 1379 c 2,6,-1
 452 607 l 2,7,8
 452 337 452 337 531.5 269.5 c 128,-1,9
 611 202 611 202 711 202 c 256,10,11
 811 202 811 202 890.5 269.5 c 128,-1,12
 970 337 970 337 970 607 c 2,13,-1
 970 1379 l 2,14,15
 970 1434 970 1434 1040 1434 c 2,16,-1
 1192 1434 l 2,17,18
 1262 1434 1262 1434 1262 1379 c 2,19,-1
 1262 597 l 2,20,21
 1262 247 1262 247 1114 106.5 c 128,-1,22
 966 -34 966 -34 711 -34 c 256,23,24
 456 -34 456 -34 308 106.5 c 128,-1,25
 160 247 160 247 160 597 c 2,0,-1
EndSplineSet
EndChar

StartChar: V
Encoding: 86 86 57
Width: 1370
GlyphClass: 2
Flags: W
AnchorPoint: "Anchor-3" 684 1468 basechar 0
AnchorPoint: "Anchor-2" 685 0 basechar 0
LayerCount: 2
Fore
SplineSet
43 1368 m 2,0,1
 18 1434 18 1434 90 1434 c 2,2,-1
 249 1434 l 2,3,4
 316 1434 316 1434 341 1365 c 2,5,-1
 647 530 l 2,6,7
 670 466 670 466 674 444.5 c 128,-1,8
 678 423 678 423 683 373 c 1,9,-1
 687 373 l 1,10,11
 692 423 692 423 696 444.5 c 128,-1,12
 700 466 700 466 723 530 c 2,13,-1
 1029 1365 l 2,14,15
 1054 1434 1054 1434 1121 1434 c 2,16,-1
 1280 1434 l 2,17,18
 1352 1434 1352 1434 1327 1368 c 2,19,-1
 849 81 l 2,20,21
 819 0 819 0 755 0 c 2,22,-1
 615 0 l 2,23,24
 551 0 551 0 521 81 c 2,25,-1
 43 1368 l 2,0,1
EndSplineSet
EndChar

StartChar: W
Encoding: 87 87 58
Width: 2022
GlyphClass: 2
Flags: W
AnchorPoint: "Anchor-3" 1010 1468 basechar 0
AnchorPoint: "Anchor-2" 1010 0 basechar 0
LayerCount: 2
Fore
SplineSet
45 1354 m 2,0,1
 23 1434 23 1434 91 1434 c 2,2,-1
 276 1434 l 2,3,4
 323 1434 323 1434 339 1368 c 2,5,-1
 529 582 l 2,6,7
 550 496 550 496 556.5 464.5 c 128,-1,8
 563 433 563 433 568 363 c 1,9,-1
 573 363 l 1,10,11
 578 433 578 433 583 469 c 128,-1,12
 588 505 588 505 612 588 c 2,13,-1
 835 1360 l 2,14,15
 856 1434 856 1434 919 1434 c 2,16,-1
 1103 1434 l 2,17,18
 1166 1434 1166 1434 1187 1360 c 2,19,-1
 1410 588 l 2,20,21
 1434 505 1434 505 1439 469 c 128,-1,22
 1444 433 1444 433 1449 363 c 1,23,-1
 1454 363 l 1,24,25
 1459 433 1459 433 1465.5 464.5 c 128,-1,26
 1472 496 1472 496 1493 582 c 2,27,-1
 1683 1368 l 2,28,29
 1699 1434 1699 1434 1746 1434 c 2,30,-1
 1931 1434 l 2,31,32
 1999 1434 1999 1434 1977 1354 c 2,33,-1
 1637 97 l 2,34,35
 1611 0 1611 0 1543 0 c 2,36,-1
 1368 0 l 2,37,38
 1310 0 1310 0 1283 96 c 2,39,-1
 1043 934 l 2,40,41
 1023 1002 1023 1002 1020 1022.5 c 128,-1,42
 1017 1043 1017 1043 1012 1099 c 1,43,-1
 1010 1099 l 1,44,45
 1005 1043 1005 1043 1002 1022.5 c 128,-1,46
 999 1002 999 1002 979 934 c 2,47,-1
 739 96 l 2,48,49
 712 0 712 0 654 0 c 2,50,-1
 479 0 l 2,51,52
 411 0 411 0 385 97 c 2,53,-1
 45 1354 l 2,0,1
EndSplineSet
EndChar

StartChar: X
Encoding: 88 88 59
Width: 1418
GlyphClass: 2
Flags: W
AnchorPoint: "Anchor-3" 709 1468 basechar 0
AnchorPoint: "Anchor-2" 709 0 basechar 0
LayerCount: 2
Fore
SplineSet
108 0 m 2,0,1
 12 0 12 0 70 86 c 2,2,-1
 513 740 l 1,3,-1
 106 1348 l 2,4,5
 48 1434 48 1434 144 1434 c 2,6,-1
 346 1434 l 2,7,8
 399 1434 399 1434 436 1375 c 2,9,-1
 709 943 l 1,10,-1
 982 1375 l 2,11,12
 1019 1434 1019 1434 1072 1434 c 2,13,-1
 1274 1434 l 2,14,15
 1370 1434 1370 1434 1312 1348 c 2,16,-1
 904 740 l 1,17,-1
 1348 86 l 2,18,19
 1406 0 1406 0 1310 0 c 2,20,-1
 1105 0 l 2,21,22
 1053 0 1053 0 1015 59 c 2,23,-1
 709 537 l 1,24,-1
 403 59 l 2,25,26
 365 0 365 0 313 0 c 2,27,-1
 108 0 l 2,0,1
EndSplineSet
EndChar

StartChar: Y
Encoding: 89 89 60
Width: 1368
GlyphClass: 2
Flags: W
AnchorPoint: "Anchor-3" 684 1468 basechar 0
AnchorPoint: "Anchor-2" 684 0 basechar 0
LayerCount: 2
Fore
SplineSet
51 1348 m 2,0,1
 0 1434 0 1434 98 1434 c 2,2,-1
 273 1434 l 2,3,4
 325 1434 325 1434 365 1365 c 2,5,-1
 578 994 l 2,6,7
 587 979 587 979 631 900.5 c 128,-1,8
 675 822 675 822 682 748 c 1,9,-1
 686 748 l 1,10,11
 693 822 693 822 737 900.5 c 128,-1,12
 781 979 781 979 790 994 c 2,13,-1
 1003 1365 l 2,14,15
 1043 1434 1043 1434 1095 1434 c 2,16,-1
 1270 1434 l 2,17,18
 1368 1434 1368 1434 1317 1348 c 2,19,-1
 830 525 l 1,20,-1
 830 55 l 2,21,22
 830 0 830 0 760 0 c 2,23,-1
 608 0 l 2,24,25
 538 0 538 0 538 55 c 2,26,-1
 538 525 l 1,27,-1
 51 1348 l 2,0,1
EndSplineSet
EndChar

StartChar: Z
Encoding: 90 90 61
Width: 1252
GlyphClass: 2
Flags: W
AnchorPoint: "Anchor-3" 626 1468 basechar 0
AnchorPoint: "Anchor-2" 626 0 basechar 0
LayerCount: 2
Fore
SplineSet
136 0 m 2,0,1
 61 0 61 0 61 65 c 2,2,-1
 61 147 l 2,3,4
 61 216 61 216 112 286 c 2,5,-1
 762 1184 l 1,6,-1
 762 1191 l 1,7,8
 702 1186 702 1186 642 1186 c 2,9,-1
 176 1186 l 2,10,11
 101 1186 101 1186 101 1251 c 2,12,-1
 101 1369 l 2,13,14
 101 1434 101 1434 176 1434 c 2,15,-1
 1088 1434 l 2,16,17
 1163 1434 1163 1434 1163 1369 c 2,18,-1
 1163 1302 l 2,19,20
 1163 1249 1163 1249 1128 1201 c 2,21,-1
 438 250 l 1,22,-1
 438 243 l 1,23,24
 498 248 498 248 558 248 c 2,25,-1
 1116 248 l 2,26,27
 1191 248 1191 248 1191 183 c 2,28,-1
 1191 65 l 2,29,30
 1191 0 1191 0 1116 0 c 2,31,-1
 136 0 l 2,0,1
EndSplineSet
EndChar

StartChar: bracketleft
Encoding: 91 91 62
Width: 694
GlyphClass: 2
Flags: W
LayerCount: 2
Fore
SplineSet
220 -408 m 2,0,1
 160 -408 160 -408 160 -348 c 2,2,-1
 160 1436 l 2,3,4
 160 1496 160 1496 220 1496 c 2,5,-1
 568 1496 l 2,6,7
 628 1496 628 1496 628 1446 c 2,8,-1
 628 1346 l 2,9,10
 628 1296 628 1296 568 1296 c 2,11,-1
 440 1296 l 1,12,-1
 440 -208 l 1,13,-1
 568 -208 l 2,14,15
 628 -208 628 -208 628 -258 c 2,16,-1
 628 -358 l 2,17,18
 628 -408 628 -408 568 -408 c 2,19,-1
 220 -408 l 2,0,1
EndSplineSet
EndChar

StartChar: backslash
Encoding: 92 92 63
Width: 856
GlyphClass: 2
Flags: W
LayerCount: 2
Fore
SplineSet
9 1359 m 2,0,1
 -13 1415 -13 1415 34 1433 c 2,2,-1
 115 1464 l 2,3,4
 161 1482 161 1482 183 1426 c 2,5,-1
 847 -304 l 2,6,7
 869 -360 869 -360 822 -378 c 2,8,-1
 741 -409 l 2,9,10
 695 -427 695 -427 673 -371 c 2,11,-1
 9 1359 l 2,0,1
EndSplineSet
EndChar

StartChar: bracketright
Encoding: 93 93 64
Width: 694
GlyphClass: 2
Flags: W
LayerCount: 2
Fore
SplineSet
126 -408 m 2,0,1
 66 -408 66 -408 66 -358 c 2,2,-1
 66 -258 l 2,3,4
 66 -208 66 -208 126 -208 c 2,5,-1
 254 -208 l 1,6,-1
 254 1296 l 1,7,-1
 126 1296 l 2,8,9
 66 1296 66 1296 66 1346 c 2,10,-1
 66 1446 l 2,11,12
 66 1496 66 1496 126 1496 c 2,13,-1
 474 1496 l 2,14,15
 534 1496 534 1496 534 1436 c 2,16,-1
 534 -348 l 2,17,18
 534 -408 534 -408 474 -408 c 2,19,-1
 126 -408 l 2,0,1
EndSplineSet
EndChar

StartChar: asciicircum
Encoding: 94 94 65
Width: 920
GlyphClass: 2
Flags: W
LayerCount: 2
Fore
SplineSet
85 929 m 2,0,1
 45 958 45 958 80 1007 c 2,2,-1
 370 1405 l 2,3,4
 396 1441 396 1441 442 1441 c 2,5,-1
 478 1441 l 2,6,7
 524 1441 524 1441 550 1405 c 2,8,-1
 840 1007 l 2,9,10
 876 958 876 958 835 929 c 2,11,-1
 773 885 l 2,12,13
 732 856 732 856 698 904 c 2,14,-1
 461 1233 l 1,15,-1
 459 1233 l 1,16,-1
 222 904 l 2,17,18
 188 856 188 856 147 885 c 2,19,-1
 85 929 l 2,0,1
EndSplineSet
EndChar

StartChar: underscore
Encoding: 95 95 66
Width: 1200
GlyphClass: 2
Flags: W
LayerCount: 2
Fore
SplineSet
35 -425 m 2,0,1
 -25 -425 -25 -425 -25 -375 c 2,2,-1
 -25 -275 l 2,3,4
 -25 -225 -25 -225 35 -225 c 2,5,-1
 1165 -225 l 2,6,7
 1225 -225 1225 -225 1225 -275 c 2,8,-1
 1225 -375 l 2,9,10
 1225 -425 1225 -425 1165 -425 c 2,11,-1
 35 -425 l 2,0,1
EndSplineSet
EndChar

StartChar: grave
Encoding: 96 96 67
Width: 614
GlyphClass: 2
Flags: W
LayerCount: 2
Fore
SplineSet
153 1376 m 2,0,1
 101 1435 101 1435 175 1435 c 2,2,-1
 327 1435 l 2,3,4
 405 1435 405 1435 433 1388 c 2,5,-1
 541 1209 l 2,6,7
 577 1150 577 1150 520 1150 c 2,8,-1
 419 1150 l 2,9,10
 350 1150 350 1150 318 1187 c 2,11,-1
 153 1376 l 2,0,1
EndSplineSet
EndChar

StartChar: a
Encoding: 97 97 68
Width: 1123
GlyphClass: 2
Flags: W
AnchorPoint: "Anchor-3" 556 1070 basechar 0
AnchorPoint: "Anchor-2" 556 0 basechar 0
AnchorPoint: "Anchor-1" 847 0 basechar 0
LayerCount: 2
Fore
SplineSet
80 280 m 0,0,1
 80 480 80 480 271 570 c 128,-1,2
 462 660 462 660 707 666 c 1,3,-1
 707 706 l 2,4,5
 707 798 707 798 661 836 c 128,-1,6
 615 874 615 874 533 874 c 0,7,8
 464 874 464 874 399 842 c 128,-1,9
 334 810 334 810 295 776 c 0,10,11
 249 736 249 736 219 772 c 2,12,-1
 136 874 l 2,13,14
 105 912 105 912 151 952 c 0,15,16
 204 999 204 999 304.5 1034.5 c 128,-1,17
 405 1070 405 1070 556 1070 c 0,18,19
 764 1070 764 1070 875.5 974 c 128,-1,20
 987 878 987 878 987 691 c 2,21,-1
 987 60 l 2,22,23
 987 0 987 0 927 0 c 2,24,-1
 763 0 l 2,25,26
 709 0 709 0 709 60 c 2,27,-1
 709 90 l 1,28,-1
 707 90 l 1,29,30
 648 33 648 33 565.5 6.5 c 128,-1,31
 483 -20 483 -20 414 -20 c 0,32,33
 250 -20 250 -20 165 60.5 c 128,-1,34
 80 141 80 141 80 280 c 0,0,1
376 286 m 0,35,36
 376 213 376 213 422 194.5 c 128,-1,37
 468 176 468 176 501 176 c 0,38,39
 552 176 552 176 600 190 c 128,-1,40
 648 204 648 204 707 256 c 1,41,-1
 707 473 l 1,42,43
 540 459 540 459 458 409.5 c 128,-1,44
 376 360 376 360 376 286 c 0,35,36
EndSplineSet
EndChar

StartChar: b
Encoding: 98 98 69
Width: 1192
GlyphClass: 2
Flags: W
AnchorPoint: "Anchor-3" 624 1476 basechar 0
AnchorPoint: "Anchor-2" 624 0 basechar 0
LayerCount: 2
Fore
SplineSet
196 0 m 2,0,1
 136 0 136 0 136 60 c 2,2,-1
 136 1416 l 2,3,4
 136 1476 136 1476 196 1476 c 2,5,-1
 356 1476 l 2,6,7
 416 1476 416 1476 416 1416 c 2,8,-1
 416 1012 l 2,9,10
 416 972 416 972 412 932 c 1,11,-1
 416 932 l 1,12,13
 468 1018 468 1018 532 1044 c 128,-1,14
 596 1070 596 1070 686 1070 c 0,15,16
 921 1070 921 1070 1016.5 907.5 c 128,-1,17
 1112 745 1112 745 1112 525 c 256,18,19
 1112 305 1112 305 1016.5 142.5 c 128,-1,20
 921 -20 921 -20 686 -20 c 0,21,22
 596 -20 596 -20 532 6 c 128,-1,23
 468 32 468 32 416 118 c 1,24,-1
 412 118 l 1,25,-1
 408 60 l 2,26,27
 404 0 404 0 354 0 c 2,28,-1
 196 0 l 2,0,1
416 480 m 2,29,30
 416 345 416 345 469.5 260.5 c 128,-1,31
 523 176 523 176 598 176 c 0,32,33
 733 176 733 176 774.5 270.5 c 128,-1,34
 816 365 816 365 816 525 c 256,35,36
 816 685 816 685 774.5 779.5 c 128,-1,37
 733 874 733 874 598 874 c 0,38,39
 523 874 523 874 469.5 789.5 c 128,-1,40
 416 705 416 705 416 570 c 2,41,-1
 416 480 l 2,29,30
EndSplineSet
EndChar

StartChar: c
Encoding: 99 99 70
Width: 1086
GlyphClass: 2
Flags: W
AnchorPoint: "Anchor-3" 601 1070 basechar 0
AnchorPoint: "Anchor-2" 601 0 basechar 0
LayerCount: 2
Fore
SplineSet
80 525 m 256,0,1
 80 780 80 780 208 925 c 128,-1,2
 336 1070 336 1070 601 1070 c 0,3,4
 756 1070 756 1070 842 1029 c 128,-1,5
 928 988 928 988 980 909 c 0,6,7
 1011 862 1011 862 970 835 c 2,8,-1
 864 765 l 2,9,10
 819 735 819 735 785 788 c 0,11,12
 768 814 768 814 720 844 c 128,-1,13
 672 874 672 874 601 874 c 0,14,15
 488 874 488 874 432 794.5 c 128,-1,16
 376 715 376 715 376 525 c 256,17,18
 376 335 376 335 432 255.5 c 128,-1,19
 488 176 488 176 601 176 c 0,20,21
 682 176 682 176 732 210 c 128,-1,22
 782 244 782 244 826 298 c 0,23,24
 864 344 864 344 906 311 c 2,25,-1
 999 238 l 2,26,27
 1041 205 1041 205 1004 150 c 0,28,29
 965 92 965 92 871.5 36 c 128,-1,30
 778 -20 778 -20 601 -20 c 0,31,32
 336 -20 336 -20 208 125 c 128,-1,33
 80 270 80 270 80 525 c 256,0,1
EndSplineSet
EndChar

StartChar: d
Encoding: 100 100 71
Width: 1192
GlyphClass: 2
Flags: W
AnchorPoint: "Anchor-3" 568 1476 basechar 0
AnchorPoint: "Anchor-2" 568 0 basechar 0
LayerCount: 2
Fore
SplineSet
80 525 m 256,0,1
 80 745 80 745 175.5 907.5 c 128,-1,2
 271 1070 271 1070 506 1070 c 0,3,4
 596 1070 596 1070 660 1044 c 128,-1,5
 724 1018 724 1018 776 932 c 1,6,-1
 780 932 l 1,7,8
 776 972 776 972 776 1012 c 2,9,-1
 776 1416 l 2,10,11
 776 1476 776 1476 836 1476 c 2,12,-1
 996 1476 l 2,13,14
 1056 1476 1056 1476 1056 1416 c 2,15,-1
 1056 60 l 2,16,17
 1056 0 1056 0 996 0 c 2,18,-1
 838 0 l 2,19,20
 788 0 788 0 784 60 c 2,21,-1
 780 118 l 1,22,-1
 776 118 l 1,23,24
 724 32 724 32 660 6 c 128,-1,25
 596 -20 596 -20 506 -20 c 0,26,27
 271 -20 271 -20 175.5 142.5 c 128,-1,28
 80 305 80 305 80 525 c 256,0,1
376 525 m 256,29,30
 376 365 376 365 417.5 270.5 c 128,-1,31
 459 176 459 176 594 176 c 0,32,33
 669 176 669 176 722.5 260.5 c 128,-1,34
 776 345 776 345 776 480 c 2,35,-1
 776 570 l 2,36,37
 776 705 776 705 722.5 789.5 c 128,-1,38
 669 874 669 874 594 874 c 0,39,40
 459 874 459 874 417.5 779.5 c 128,-1,41
 376 685 376 685 376 525 c 256,29,30
EndSplineSet
EndChar

StartChar: e
Encoding: 101 101 72
Width: 1174
GlyphClass: 2
Flags: W
AnchorPoint: "Anchor-3" 564 1070 basechar 0
AnchorPoint: "Anchor-2" 611 0 basechar 0
AnchorPoint: "Anchor-1" 611 0 basechar 0
LayerCount: 2
Fore
SplineSet
80 525 m 256,0,1
 80 778 80 778 206.5 924 c 128,-1,2
 333 1070 333 1070 564 1070 c 0,3,4
 832 1070 832 1070 962 932 c 128,-1,5
 1092 794 1092 794 1092 488 c 0,6,7
 1092 428 1092 428 1036 428 c 2,8,-1
 376 428 l 1,9,10
 392 262 392 262 458 219 c 128,-1,11
 524 176 524 176 611 176 c 0,12,13
 694 176 694 176 738 198 c 128,-1,14
 782 220 782 220 812 258 c 0,15,16
 846 302 846 302 896 272 c 2,17,-1
 996 211 l 2,18,19
 1055 175 1055 175 1013 125 c 0,20,21
 952 52 952 52 870 16 c 128,-1,22
 788 -20 788 -20 611 -20 c 0,23,24
 324 -20 324 -20 202 126 c 128,-1,25
 80 272 80 272 80 525 c 256,0,1
377 628 m 1,26,-1
 812 628 l 1,27,28
 812 736 812 736 758 804.5 c 128,-1,29
 704 873 704 873 586 873 c 0,30,31
 492 873 492 873 437 807.5 c 128,-1,32
 382 742 382 742 377 628 c 1,26,-1
EndSplineSet
EndChar

StartChar: f
Encoding: 102 102 73
Width: 682
GlyphClass: 2
Flags: W
AnchorPoint: "Anchor-3" 512 1476 basechar 0
AnchorPoint: "Anchor-2" 297 0 basechar 0
LayerCount: 2
Fore
SplineSet
101 850 m 2,0,1
 42 850 42 850 42 900 c 2,2,-1
 42 1000 l 2,3,4
 42 1050 42 1050 101 1050 c 2,5,-1
 157 1050 l 1,6,-1
 157 1190 l 2,7,8
 157 1374 157 1374 262 1435 c 128,-1,9
 367 1496 367 1496 512 1496 c 0,10,11
 581 1496 581 1496 630.5 1488 c 128,-1,12
 680 1480 680 1480 718 1468 c 0,13,14
 754 1456 754 1456 744 1418 c 2,15,-1
 714 1305 l 2,16,17
 705 1272 705 1272 668 1285 c 0,18,19
 646 1293 646 1293 606.5 1296.5 c 128,-1,20
 567 1300 567 1300 544 1300 c 0,21,22
 471 1300 471 1300 454 1249 c 128,-1,23
 437 1198 437 1198 437 1090 c 2,24,-1
 437 1050 l 1,25,-1
 569 1050 l 2,26,27
 628 1050 628 1050 628 1000 c 2,28,-1
 628 900 l 2,29,30
 628 850 628 850 569 850 c 2,31,-1
 437 850 l 1,32,-1
 437 60 l 2,33,34
 437 0 437 0 377 0 c 2,35,-1
 217 0 l 2,36,37
 157 0 157 0 157 60 c 2,38,-1
 157 850 l 1,39,-1
 101 850 l 2,0,1
EndSplineSet
EndChar

StartChar: g
Encoding: 103 103 74
Width: 1192
GlyphClass: 2
Flags: W
AnchorPoint: "Anchor-3" 568 1070 basechar 0
AnchorPoint: "Anchor-2" 542 -400 basechar 0
LayerCount: 2
Fore
SplineSet
80 525 m 0,0,1
 80 745 80 745 175.5 907.5 c 128,-1,2
 271 1070 271 1070 506 1070 c 0,3,4
 596 1070 596 1070 660 1044 c 128,-1,5
 724 1018 724 1018 776 932 c 1,6,-1
 780 932 l 1,7,-1
 784 990 l 2,8,9
 788 1050 788 1050 838 1050 c 2,10,-1
 996 1050 l 2,11,12
 1056 1050 1056 1050 1056 990 c 2,13,-1
 1056 11 l 2,14,15
 1056 -234 1056 -234 924 -327 c 128,-1,16
 792 -420 792 -420 542 -420 c 0,17,18
 436 -420 436 -420 346 -409 c 128,-1,19
 256 -398 256 -398 164 -354 c 0,20,21
 116 -331 116 -331 148 -267 c 2,22,-1
 184 -195 l 2,23,24
 206 -151 206 -151 257 -175 c 0,25,26
 298 -194 298 -194 358.5 -209 c 128,-1,27
 419 -224 419 -224 512 -224 c 0,28,29
 640 -224 640 -224 708 -176.5 c 128,-1,30
 776 -129 776 -129 776 31 c 2,31,-1
 776 48 l 2,32,33
 776 88 776 88 780 128 c 1,34,-1
 776 128 l 1,35,36
 724 42 724 42 660 16 c 128,-1,37
 596 -10 596 -10 506 -10 c 0,38,39
 271 -10 271 -10 175.5 152.5 c 128,-1,40
 80 315 80 315 80 525 c 0,0,1
376 525 m 0,41,42
 376 375 376 375 417.5 280.5 c 128,-1,43
 459 186 459 186 594 186 c 0,44,45
 669 186 669 186 722.5 270.5 c 128,-1,46
 776 355 776 355 776 490 c 2,47,-1
 776 570 l 2,48,49
 776 705 776 705 722.5 789.5 c 128,-1,50
 669 874 669 874 594 874 c 0,51,52
 459 874 459 874 417.5 779.5 c 128,-1,53
 376 685 376 685 376 525 c 0,41,42
EndSplineSet
EndChar

StartChar: h
Encoding: 104 104 75
Width: 1200
GlyphClass: 2
Flags: W
AnchorPoint: "Anchor-3" 601 1476 basechar 0
AnchorPoint: "Anchor-2" 601 0 basechar 0
LayerCount: 2
Fore
SplineSet
196 0 m 2,0,1
 136 0 136 0 136 60 c 2,2,-1
 136 1416 l 2,3,4
 136 1476 136 1476 196 1476 c 2,5,-1
 356 1476 l 2,6,7
 416 1476 416 1476 416 1416 c 2,8,-1
 416 1012 l 2,9,10
 416 972 416 972 412 932 c 1,11,-1
 418 932 l 1,12,13
 464 1011 464 1011 535 1040.5 c 128,-1,14
 606 1070 606 1070 706 1070 c 0,15,16
 862 1070 862 1070 964 972 c 128,-1,17
 1066 874 1066 874 1066 614 c 2,18,-1
 1066 60 l 2,19,20
 1066 0 1066 0 1006 0 c 2,21,-1
 846 0 l 2,22,23
 786 0 786 0 786 60 c 2,24,-1
 786 542 l 2,25,26
 786 760 786 760 756 817 c 128,-1,27
 726 874 726 874 627 874 c 0,28,29
 522 874 522 874 469 792.5 c 128,-1,30
 416 711 416 711 416 454 c 2,31,-1
 416 60 l 2,32,33
 416 0 416 0 356 0 c 2,34,-1
 196 0 l 2,0,1
EndSplineSet
EndChar

StartChar: k
Encoding: 107 107 78
Width: 1115
GlyphClass: 2
Flags: W
AnchorPoint: "Anchor-3" 604 1476 basechar 0
AnchorPoint: "Anchor-2" 604 0 basechar 0
LayerCount: 2
Fore
SplineSet
196 0 m 2,0,1
 136 0 136 0 136 60 c 2,2,-1
 136 1416 l 2,3,4
 136 1476 136 1476 196 1476 c 2,5,-1
 356 1476 l 2,6,7
 416 1476 416 1476 416 1416 c 2,8,-1
 416 681 l 2,9,10
 416 641 416 641 412 601 c 1,11,-1
 416 601 l 1,12,-1
 733 1009 l 2,13,14
 765 1050 765 1050 811 1050 c 2,15,-1
 975 1050 l 2,16,17
 1067 1050 1067 1050 1006 976 c 2,18,-1
 704 611 l 1,19,-1
 1054 74 l 2,20,21
 1102 0 1102 0 1023 0 c 2,22,-1
 852 0 l 2,23,24
 802 0 802 0 770 52 c 2,25,-1
 543 417 l 1,26,-1
 416 264 l 1,27,-1
 416 60 l 2,28,29
 416 0 416 0 356 0 c 2,30,-1
 196 0 l 2,0,1
EndSplineSet
EndChar

StartChar: l
Encoding: 108 108 79
Width: 552
GlyphClass: 2
Flags: W
AnchorPoint: "Anchor-3" 276 1476 basechar 0
AnchorPoint: "Anchor-2" 276 0 basechar 0
LayerCount: 2
Fore
SplineSet
196 0 m 2,0,1
 136 0 136 0 136 60 c 2,2,-1
 136 1241 l 2,3,4
 136 1286 136 1286 157 1323 c 2,5,-1
 234 1458 l 2,6,7
 256 1496 256 1496 286 1496 c 2,8,-1
 356 1496 l 2,9,10
 416 1496 416 1496 416 1436 c 2,11,-1
 416 60 l 2,12,13
 416 0 416 0 356 0 c 2,14,-1
 196 0 l 2,0,1
EndSplineSet
EndChar

StartChar: m
Encoding: 109 109 80
Width: 1750
GlyphClass: 2
Flags: W
AnchorPoint: "Anchor-3" 876 1070 basechar 0
AnchorPoint: "Anchor-2" 876 0 basechar 0
LayerCount: 2
Fore
SplineSet
196 0 m 2,0,1
 136 0 136 0 136 60 c 2,2,-1
 136 990 l 2,3,4
 136 1050 136 1050 196 1050 c 2,5,-1
 354 1050 l 2,6,7
 414 1050 414 1050 414 990 c 2,8,-1
 414 932 l 1,9,-1
 418 932 l 1,10,11
 447 996 447 996 516 1033 c 128,-1,12
 585 1070 585 1070 645 1070 c 0,13,14
 765 1070 765 1070 831.5 1014 c 128,-1,15
 898 958 898 958 923 889 c 1,16,-1
 927 889 l 1,17,18
 1014 1002 1014 1002 1084.5 1036 c 128,-1,19
 1155 1070 1155 1070 1265 1070 c 0,20,21
 1413 1070 1413 1070 1514.5 972 c 128,-1,22
 1616 874 1616 874 1616 614 c 2,23,-1
 1616 60 l 2,24,25
 1616 0 1616 0 1556 0 c 2,26,-1
 1396 0 l 2,27,28
 1336 0 1336 0 1336 60 c 2,29,-1
 1336 542 l 2,30,31
 1336 760 1336 760 1306.5 817 c 128,-1,32
 1277 874 1277 874 1202 874 c 0,33,34
 1132 874 1132 874 1074 792 c 128,-1,35
 1016 710 1016 710 1016 454 c 2,36,-1
 1016 60 l 2,37,38
 1016 0 1016 0 956 0 c 2,39,-1
 796 0 l 2,40,41
 736 0 736 0 736 60 c 2,42,-1
 736 542 l 2,43,44
 736 760 736 760 706.5 817 c 128,-1,45
 677 874 677 874 602 874 c 0,46,47
 532 874 532 874 474 792.5 c 128,-1,48
 416 711 416 711 416 454 c 2,49,-1
 416 60 l 2,50,51
 416 0 416 0 356 0 c 2,52,-1
 196 0 l 2,0,1
EndSplineSet
EndChar

StartChar: n
Encoding: 110 110 81
Width: 1200
GlyphClass: 2
Flags: W
AnchorPoint: "Anchor-3" 601 1070 basechar 0
AnchorPoint: "Anchor-2" 601 0 basechar 0
LayerCount: 2
Fore
SplineSet
196 0 m 2,0,1
 136 0 136 0 136 60 c 2,2,-1
 136 990 l 2,3,4
 136 1050 136 1050 196 1050 c 2,5,-1
 354 1050 l 2,6,7
 414 1050 414 1050 414 990 c 2,8,-1
 414 932 l 1,9,-1
 418 932 l 1,10,11
 464 1011 464 1011 535 1040.5 c 128,-1,12
 606 1070 606 1070 706 1070 c 0,13,14
 862 1070 862 1070 964 972 c 128,-1,15
 1066 874 1066 874 1066 614 c 2,16,-1
 1066 60 l 2,17,18
 1066 0 1066 0 1006 0 c 2,19,-1
 846 0 l 2,20,21
 786 0 786 0 786 60 c 2,22,-1
 786 542 l 2,23,24
 786 760 786 760 756 817 c 128,-1,25
 726 874 726 874 627 874 c 0,26,27
 522 874 522 874 469 792.5 c 128,-1,28
 416 711 416 711 416 454 c 2,29,-1
 416 60 l 2,30,31
 416 0 416 0 356 0 c 2,32,-1
 196 0 l 2,0,1
EndSplineSet
EndChar

StartChar: o
Encoding: 111 111 82
Width: 1206
GlyphClass: 2
Flags: W
AnchorPoint: "Anchor-3" 603 1070 basechar 0
AnchorPoint: "Anchor-2" 603 0 basechar 0
AnchorPoint: "Anchor-1" 603 0 basechar 0
LayerCount: 2
Fore
SplineSet
80 525 m 256,0,1
 80 780 80 780 211.5 925 c 128,-1,2
 343 1070 343 1070 603 1070 c 256,3,4
 863 1070 863 1070 994.5 925 c 128,-1,5
 1126 780 1126 780 1126 525 c 256,6,7
 1126 270 1126 270 994.5 125 c 128,-1,8
 863 -20 863 -20 603 -20 c 256,9,10
 343 -20 343 -20 211.5 125 c 128,-1,11
 80 270 80 270 80 525 c 256,0,1
376 525 m 256,12,13
 376 335 376 335 434.5 255.5 c 128,-1,14
 493 176 493 176 603 176 c 256,15,16
 713 176 713 176 771.5 255.5 c 128,-1,17
 830 335 830 335 830 525 c 256,18,19
 830 715 830 715 771.5 794.5 c 128,-1,20
 713 874 713 874 603 874 c 256,21,22
 493 874 493 874 434.5 794.5 c 128,-1,23
 376 715 376 715 376 525 c 256,12,13
EndSplineSet
EndChar

StartChar: p
Encoding: 112 112 83
Width: 1192
GlyphClass: 2
Flags: W
AnchorPoint: "Anchor-3" 624 1070 basechar 0
AnchorPoint: "Anchor-2" 624 -400 basechar 0
LayerCount: 2
Fore
SplineSet
196 -400 m 2,0,1
 136 -400 136 -400 136 -340 c 2,2,-1
 136 990 l 2,3,4
 136 1050 136 1050 196 1050 c 2,5,-1
 354 1050 l 2,6,7
 404 1050 404 1050 408 990 c 2,8,-1
 412 932 l 1,9,-1
 416 932 l 1,10,11
 468 1018 468 1018 532 1044 c 128,-1,12
 596 1070 596 1070 686 1070 c 0,13,14
 921 1070 921 1070 1016.5 907.5 c 128,-1,15
 1112 745 1112 745 1112 525 c 256,16,17
 1112 305 1112 305 1016.5 142.5 c 128,-1,18
 921 -20 921 -20 686 -20 c 0,19,20
 596 -20 596 -20 532 6 c 128,-1,21
 468 32 468 32 416 118 c 1,22,-1
 412 118 l 1,23,24
 416 78 416 78 416 38 c 2,25,-1
 416 -340 l 2,26,27
 416 -400 416 -400 356 -400 c 2,28,-1
 196 -400 l 2,0,1
416 480 m 2,29,30
 416 345 416 345 469.5 260.5 c 128,-1,31
 523 176 523 176 598 176 c 0,32,33
 733 176 733 176 774.5 270.5 c 128,-1,34
 816 365 816 365 816 525 c 256,35,36
 816 685 816 685 774.5 779.5 c 128,-1,37
 733 874 733 874 598 874 c 0,38,39
 523 874 523 874 469.5 789.5 c 128,-1,40
 416 705 416 705 416 570 c 2,41,-1
 416 480 l 2,29,30
EndSplineSet
EndChar

StartChar: q
Encoding: 113 113 84
Width: 1192
GlyphClass: 2
Flags: W
AnchorPoint: "Anchor-3" 568 1070 basechar 0
AnchorPoint: "Anchor-2" 568 -400 basechar 0
LayerCount: 2
Fore
SplineSet
80 525 m 256,0,1
 80 745 80 745 175.5 907.5 c 128,-1,2
 271 1070 271 1070 506 1070 c 0,3,4
 596 1070 596 1070 660 1044 c 128,-1,5
 724 1018 724 1018 776 932 c 1,6,-1
 780 932 l 1,7,-1
 784 990 l 2,8,9
 788 1050 788 1050 838 1050 c 2,10,-1
 996 1050 l 2,11,12
 1056 1050 1056 1050 1056 990 c 2,13,-1
 1056 -340 l 2,14,15
 1056 -400 1056 -400 996 -400 c 2,16,-1
 836 -400 l 2,17,18
 776 -400 776 -400 776 -340 c 2,19,-1
 776 38 l 2,20,21
 776 78 776 78 780 118 c 1,22,-1
 776 118 l 1,23,24
 724 32 724 32 660 6 c 128,-1,25
 596 -20 596 -20 506 -20 c 0,26,27
 271 -20 271 -20 175.5 142.5 c 128,-1,28
 80 305 80 305 80 525 c 256,0,1
376 525 m 256,29,30
 376 365 376 365 417.5 270.5 c 128,-1,31
 459 176 459 176 594 176 c 0,32,33
 669 176 669 176 722.5 260.5 c 128,-1,34
 776 345 776 345 776 480 c 2,35,-1
 776 570 l 2,36,37
 776 705 776 705 722.5 789.5 c 128,-1,38
 669 874 669 874 594 874 c 0,39,40
 459 874 459 874 417.5 779.5 c 128,-1,41
 376 685 376 685 376 525 c 256,29,30
EndSplineSet
EndChar

StartChar: r
Encoding: 114 114 85
Width: 786
GlyphClass: 2
Flags: W
AnchorPoint: "Anchor-3" 466 1070 basechar 0
AnchorPoint: "Anchor-2" 276 0 basechar 0
LayerCount: 2
Fore
SplineSet
196 0 m 2,0,1
 136 0 136 0 136 60 c 2,2,-1
 136 990 l 2,3,4
 136 1050 136 1050 196 1050 c 2,5,-1
 354 1050 l 2,6,7
 414 1050 414 1050 414 990 c 2,8,-1
 414 908 l 1,9,-1
 418 908 l 1,10,11
 444 972 444 972 505 1021 c 128,-1,12
 566 1070 566 1070 649 1070 c 0,13,14
 706 1070 706 1070 743 1056 c 0,15,16
 778 1043 778 1043 770 1008 c 2,17,-1
 742 889 l 2,18,19
 733 849 733 849 688 865 c 0,20,21
 662 874 662 874 638 874 c 0,22,23
 542 874 542 874 479 759 c 128,-1,24
 416 644 416 644 416 424 c 2,25,-1
 416 60 l 2,26,27
 416 0 416 0 356 0 c 2,28,-1
 196 0 l 2,0,1
EndSplineSet
EndChar

StartChar: s
Encoding: 115 115 86
Width: 1005
GlyphClass: 2
Flags: W
AnchorPoint: "Anchor-3" 545 1070 basechar 0
AnchorPoint: "Anchor-2" 502 0 basechar 0
LayerCount: 2
Fore
SplineSet
93 70 m 0,0,1
 44 105 44 105 66 145 c 2,2,-1
 117 238 l 2,3,4
 144 288 144 288 201 250 c 256,5,6
 258 212 258 212 335.5 194 c 128,-1,7
 413 176 413 176 477 176 c 0,8,9
 522 176 522 176 561 185 c 128,-1,10
 600 194 600 194 627 220 c 128,-1,11
 654 246 654 246 654 296 c 0,12,13
 654 326 654 326 638 347 c 128,-1,14
 622 368 622 368 597 379 c 128,-1,15
 572 390 572 390 544 397 c 0,16,17
 507 406 507 406 437.5 427 c 128,-1,18
 368 448 368 448 304 476 c 0,19,20
 251 499 251 499 200.5 540.5 c 128,-1,21
 150 582 150 582 126.5 633 c 128,-1,22
 103 684 103 684 103 759 c 0,23,24
 103 860 103 860 161.5 936 c 128,-1,25
 220 1012 220 1012 313 1041 c 128,-1,26
 406 1070 406 1070 545 1070 c 0,27,28
 639 1070 639 1070 728 1043 c 128,-1,29
 817 1016 817 1016 855 992 c 0,30,31
 915 954 915 954 885 911 c 2,32,-1
 824 822 l 2,33,34
 796 782 796 782 734 816 c 0,35,36
 687 842 687 842 641.5 858 c 128,-1,37
 596 874 596 874 540 874 c 0,38,39
 502 874 502 874 467 866 c 128,-1,40
 432 858 432 858 407.5 836 c 128,-1,41
 383 814 383 814 383 778 c 0,42,43
 383 740 383 740 405.5 718.5 c 128,-1,44
 428 697 428 697 457.5 687 c 128,-1,45
 487 677 487 677 514 668 c 0,46,47
 570 650 570 650 627 633.5 c 128,-1,48
 684 617 684 617 743 594 c 0,49,50
 794 574 794 574 842 537 c 128,-1,51
 890 500 890 500 912 443 c 128,-1,52
 934 386 934 386 934 313 c 0,53,54
 934 216 934 216 876 133 c 128,-1,55
 818 50 818 50 723 15 c 128,-1,56
 628 -20 628 -20 502 -20 c 0,57,58
 361 -20 361 -20 262 0 c 128,-1,59
 163 20 163 20 93 70 c 0,0,1
EndSplineSet
EndChar

StartChar: t
Encoding: 116 116 87
Width: 798
GlyphClass: 2
Flags: W
AnchorPoint: "Anchor-3" 309 1340 basechar 0
AnchorPoint: "Anchor-2" 468 0 basechar 0
LayerCount: 2
Fore
SplineSet
101 850 m 2,0,1
 42 850 42 850 42 900 c 2,2,-1
 42 1000 l 2,3,4
 42 1050 42 1050 101 1050 c 2,5,-1
 169 1050 l 1,6,-1
 169 1085 l 2,7,8
 169 1130 169 1130 190 1167 c 2,9,-1
 267 1302 l 2,10,11
 289 1340 289 1340 319 1340 c 2,12,-1
 389 1340 l 2,13,14
 449 1340 449 1340 449 1280 c 2,15,-1
 449 1050 l 1,16,-1
 611 1050 l 2,17,18
 670 1050 670 1050 670 1000 c 2,19,-1
 670 900 l 2,20,21
 670 850 670 850 611 850 c 2,22,-1
 449 850 l 1,23,-1
 449 354 l 2,24,25
 449 252 449 252 463.5 207.5 c 128,-1,26
 478 163 478 163 539 163 c 0,27,28
 570 163 570 163 609 173.5 c 128,-1,29
 648 184 648 184 670 194 c 0,30,31
 705 210 705 210 716 171 c 2,32,-1
 746 57 l 2,33,34
 755 23 755 23 720 7 c 0,35,36
 687 -8 687 -8 629.5 -20.5 c 128,-1,37
 572 -33 572 -33 514 -33 c 0,38,39
 371 -33 371 -33 270 26 c 128,-1,40
 169 85 169 85 169 269 c 2,41,-1
 169 850 l 1,42,-1
 101 850 l 2,0,1
EndSplineSet
EndChar

StartChar: u
Encoding: 117 117 88
Width: 1194
GlyphClass: 2
Flags: W
AnchorPoint: "Anchor-3" 596 1070 basechar 0
AnchorPoint: "Anchor-2" 596 0 basechar 0
AnchorPoint: "Anchor-1" 918 0 basechar 0
LayerCount: 2
Fore
SplineSet
134 436 m 2,0,-1
 134 990 l 2,1,2
 134 1050 134 1050 194 1050 c 2,3,-1
 354 1050 l 2,4,5
 414 1050 414 1050 414 990 c 2,6,-1
 414 508 l 2,7,8
 414 290 414 290 444 233 c 128,-1,9
 474 176 474 176 570 176 c 0,10,11
 672 176 672 176 725 257.5 c 128,-1,12
 778 339 778 339 778 596 c 2,13,-1
 778 990 l 2,14,15
 778 1050 778 1050 838 1050 c 2,16,-1
 998 1050 l 2,17,18
 1058 1050 1058 1050 1058 990 c 2,19,-1
 1058 60 l 2,20,21
 1058 0 1058 0 998 0 c 2,22,-1
 840 0 l 2,23,24
 780 0 780 0 780 60 c 2,25,-1
 780 118 l 1,26,-1
 776 118 l 1,27,28
 730 39 730 39 659 9.5 c 128,-1,29
 588 -20 588 -20 491 -20 c 0,30,31
 338 -20 338 -20 236 78 c 128,-1,32
 134 176 134 176 134 436 c 2,0,-1
EndSplineSet
EndChar

StartChar: v
Encoding: 118 118 89
Width: 1008
GlyphClass: 2
Flags: W
AnchorPoint: "Anchor-3" 504 1070 basechar 0
AnchorPoint: "Anchor-2" 504 0 basechar 0
LayerCount: 2
Fore
SplineSet
42 972 m 2,0,1
 17 1050 17 1050 75 1050 c 2,2,-1
 254 1050 l 2,3,4
 301 1050 301 1050 314 999 c 2,5,-1
 469 413 l 2,6,7
 482 364 482 364 490.5 316 c 128,-1,8
 499 268 499 268 501 238 c 1,9,-1
 507 238 l 1,10,11
 509 268 509 268 517.5 316 c 128,-1,12
 526 364 526 364 539 413 c 2,13,-1
 694 999 l 2,14,15
 707 1050 707 1050 754 1050 c 2,16,-1
 933 1050 l 2,17,18
 991 1050 991 1050 966 972 c 2,19,-1
 676 67 l 2,20,21
 655 0 655 0 603 0 c 2,22,-1
 405 0 l 2,23,24
 353 0 353 0 332 67 c 2,25,-1
 42 972 l 2,0,1
EndSplineSet
EndChar

StartChar: w
Encoding: 119 119 90
Width: 1604
GlyphClass: 2
Flags: W
AnchorPoint: "Anchor-3" 802 1070 basechar 0
AnchorPoint: "Anchor-2" 802 0 basechar 0
LayerCount: 2
Fore
SplineSet
42 972 m 2,0,1
 20 1050 20 1050 75 1050 c 2,2,-1
 244 1050 l 2,3,4
 292 1050 292 1050 304 999 c 2,5,-1
 439 413 l 2,6,7
 451 362 451 362 460 315 c 128,-1,8
 469 268 469 268 471 238 c 1,9,-1
 477 238 l 1,10,11
 479 268 479 268 488 316.5 c 128,-1,12
 497 365 497 365 509 413 c 2,13,-1
 651 999 l 2,14,15
 663 1050 663 1050 711 1050 c 2,16,-1
 893 1050 l 2,17,18
 941 1050 941 1050 953 999 c 2,19,-1
 1095 413 l 2,20,21
 1107 365 1107 365 1116 316.5 c 128,-1,22
 1125 268 1125 268 1127 238 c 1,23,-1
 1133 238 l 1,24,25
 1135 268 1135 268 1144 315 c 128,-1,26
 1153 362 1153 362 1165 413 c 2,27,-1
 1300 999 l 2,28,29
 1312 1050 1312 1050 1360 1050 c 2,30,-1
 1529 1050 l 2,31,32
 1584 1050 1584 1050 1562 972 c 2,33,-1
 1302 67 l 2,34,35
 1283 0 1283 0 1229 0 c 2,36,-1
 1048 0 l 2,37,38
 991 0 991 0 975 67 c 2,39,-1
 830 660 l 2,40,41
 817 711 817 711 811.5 742 c 128,-1,42
 806 773 806 773 804 811 c 1,43,-1
 800 811 l 1,44,45
 798 773 798 773 792.5 742 c 128,-1,46
 787 711 787 711 774 660 c 2,47,-1
 629 67 l 2,48,49
 613 0 613 0 556 0 c 2,50,-1
 375 0 l 2,51,52
 321 0 321 0 302 67 c 2,53,-1
 42 972 l 2,0,1
EndSplineSet
EndChar

StartChar: x
Encoding: 120 120 91
Width: 1086
GlyphClass: 2
Flags: W
AnchorPoint: "Anchor-3" 543 1070 basechar 0
AnchorPoint: "Anchor-2" 543 0 basechar 0
LayerCount: 2
Fore
SplineSet
92 0 m 2,0,1
 6 0 6 0 56 73 c 2,2,-1
 387 553 l 1,3,-1
 95 977 l 2,4,5
 45 1050 45 1050 131 1050 c 2,6,-1
 320 1050 l 2,7,8
 365 1050 365 1050 388 1010 c 2,9,-1
 543 740 l 1,10,-1
 698 1010 l 2,11,12
 721 1050 721 1050 766 1050 c 2,13,-1
 955 1050 l 2,14,15
 1042 1050 1042 1050 991 977 c 2,16,-1
 697 553 l 1,17,-1
 1030 73 l 2,18,19
 1081 0 1081 0 994 0 c 2,20,-1
 805 0 l 2,21,22
 761 0 761 0 737 40 c 2,23,-1
 543 366 l 1,24,-1
 349 40 l 2,25,26
 325 0 325 0 281 0 c 2,27,-1
 92 0 l 2,0,1
EndSplineSet
EndChar

StartChar: y
Encoding: 121 121 92
Width: 990
GlyphClass: 2
Flags: W
AnchorPoint: "Anchor-3" 506 1070 basechar 0
AnchorPoint: "Anchor-2" 504 -400 basechar 0
LayerCount: 2
Fore
SplineSet
44 972 m 2,0,1
 17 1050 17 1050 77 1050 c 2,2,-1
 256 1050 l 2,3,4
 302 1050 302 1050 316 999 c 2,5,-1
 467 440 l 2,6,7
 478 401 478 401 486.5 339.5 c 128,-1,8
 495 278 495 278 495 261 c 1,9,-1
 501 261 l 1,10,11
 513 314 513 314 518.5 345.5 c 128,-1,12
 524 377 524 377 549 468 c 2,13,-1
 692 999 l 2,14,15
 706 1050 706 1050 752 1050 c 2,16,-1
 931 1050 l 2,17,18
 990 1050 990 1050 964 972 c 2,19,-1
 627 -42 l 2,20,21
 568 -220 568 -220 482 -320 c 128,-1,22
 396 -420 396 -420 243 -420 c 0,23,24
 159 -420 159 -420 93 -406 c 0,25,26
 55 -398 55 -398 64 -354 c 2,27,-1
 86 -244 l 2,28,29
 95 -201 95 -201 137 -214 c 0,30,31
 168 -224 168 -224 195 -224 c 0,32,33
 276 -224 276 -224 318.5 -147 c 128,-1,34
 361 -70 361 -70 375 -15 c 1,35,-1
 378 0 l 1,36,-1
 44 972 l 2,0,1
EndSplineSet
EndChar

StartChar: z
Encoding: 122 122 93
Width: 964
GlyphClass: 2
Flags: W
AnchorPoint: "Anchor-3" 482 1070 basechar 0
AnchorPoint: "Anchor-2" 482 0 basechar 0
LayerCount: 2
Fore
SplineSet
112 0 m 2,0,1
 52 0 52 0 52 50 c 2,2,-1
 52 126 l 2,3,4
 52 178 52 178 93 234 c 2,5,-1
 541 850 l 1,6,-1
 541 854 l 1,7,8
 501 850 501 850 461 850 c 2,9,-1
 136 850 l 2,10,11
 76 850 76 850 76 900 c 2,12,-1
 76 932 l 2,13,14
 76 1050 76 1050 136 1050 c 2,15,-1
 828 1050 l 2,16,17
 888 1050 888 1050 888 1000 c 2,18,-1
 888 930 l 2,19,20
 888 881 888 881 845 822 c 2,21,-1
 394 200 l 1,22,-1
 394 196 l 1,23,24
 447 200 447 200 474 200 c 2,25,-1
 852 200 l 2,26,27
 912 200 912 200 912 150 c 2,28,-1
 912 50 l 2,29,30
 912 0 912 0 852 0 c 2,31,-1
 112 0 l 2,0,1
EndSplineSet
EndChar

StartChar: braceleft
Encoding: 123 123 94
Width: 829
GlyphClass: 2
Flags: W
LayerCount: 2
Fore
SplineSet
134 444 m 0,0,1
 85 444 85 444 85 503 c 2,2,-1
 85 585 l 2,3,4
 85 644 85 644 134 644 c 0,5,6
 187 644 187 644 246 695.5 c 128,-1,7
 305 747 305 747 305 931 c 2,8,-1
 305 1216 l 2,9,10
 305 1383 305 1383 382 1439.5 c 128,-1,11
 459 1496 459 1496 713 1496 c 0,12,13
 773 1496 773 1496 773 1446 c 2,14,-1
 773 1346 l 2,15,16
 773 1296 773 1296 713 1296 c 0,17,18
 616 1296 616 1296 600.5 1249 c 128,-1,19
 585 1202 585 1202 585 1139 c 2,20,-1
 585 884 l 2,21,22
 585 720 585 720 518 645 c 128,-1,23
 451 570 451 570 344 545 c 1,24,-1
 344 543 l 1,25,26
 451 518 451 518 518 443 c 128,-1,27
 585 368 585 368 585 204 c 2,28,-1
 585 -51 l 2,29,30
 585 -114 585 -114 600.5 -161 c 128,-1,31
 616 -208 616 -208 713 -208 c 0,32,33
 773 -208 773 -208 773 -258 c 2,34,-1
 773 -358 l 2,35,36
 773 -408 773 -408 713 -408 c 0,37,38
 459 -408 459 -408 382 -351.5 c 128,-1,39
 305 -295 305 -295 305 -128 c 2,40,-1
 305 157 l 2,41,42
 305 341 305 341 246 392.5 c 128,-1,43
 187 444 187 444 134 444 c 0,0,1
EndSplineSet
EndChar

StartChar: bar
Encoding: 124 124 95
Width: 630
GlyphClass: 2
Flags: W
LayerCount: 2
Fore
SplineSet
265 -440 m 2,0,1
 215 -440 215 -440 215 -380 c 2,2,-1
 215 1436 l 2,3,4
 215 1496 215 1496 265 1496 c 2,5,-1
 365 1496 l 2,6,7
 415 1496 415 1496 415 1436 c 2,8,-1
 415 -380 l 2,9,10
 415 -440 415 -440 365 -440 c 2,11,-1
 265 -440 l 2,0,1
EndSplineSet
EndChar

StartChar: braceright
Encoding: 125 125 96
Width: 829
GlyphClass: 2
Flags: W
LayerCount: 2
Fore
SplineSet
116 -408 m 0,0,1
 56 -408 56 -408 56 -358 c 2,2,-1
 56 -258 l 2,3,4
 56 -208 56 -208 116 -208 c 0,5,6
 213 -208 213 -208 228.5 -161 c 128,-1,7
 244 -114 244 -114 244 -51 c 2,8,-1
 244 204 l 2,9,10
 244 368 244 368 311 443 c 128,-1,11
 378 518 378 518 485 543 c 1,12,-1
 485 545 l 1,13,14
 378 570 378 570 311 645 c 128,-1,15
 244 720 244 720 244 884 c 2,16,-1
 244 1139 l 2,17,18
 244 1202 244 1202 228.5 1249 c 128,-1,19
 213 1296 213 1296 116 1296 c 0,20,21
 56 1296 56 1296 56 1346 c 2,22,-1
 56 1446 l 2,23,24
 56 1496 56 1496 116 1496 c 0,25,26
 370 1496 370 1496 447 1439.5 c 128,-1,27
 524 1383 524 1383 524 1216 c 2,28,-1
 524 931 l 2,29,30
 524 747 524 747 583 695.5 c 128,-1,31
 642 644 642 644 695 644 c 0,32,33
 744 644 744 644 744 585 c 2,34,-1
 744 503 l 2,35,36
 744 444 744 444 695 444 c 0,37,38
 642 444 642 444 583 392.5 c 128,-1,39
 524 341 524 341 524 157 c 2,40,-1
 524 -128 l 2,41,42
 524 -295 524 -295 447 -351.5 c 128,-1,43
 370 -408 370 -408 116 -408 c 0,0,1
EndSplineSet
EndChar

StartChar: asciitilde
Encoding: 126 126 97
Width: 1280
GlyphClass: 2
Flags: W
LayerCount: 2
Fore
SplineSet
100 634 m 2,0,1
 69 650 69 650 83 688 c 0,2,3
 128 810 128 810 205 868 c 128,-1,4
 282 926 282 926 424 926 c 0,5,6
 554 926 554 926 686 820 c 128,-1,7
 818 714 818 714 893 714 c 256,8,9
 968 714 968 714 1002 745 c 128,-1,10
 1036 776 1036 776 1062 822 c 0,11,12
 1088 867 1088 867 1114 852 c 2,13,-1
 1180 816 l 2,14,15
 1211 800 1211 800 1197 762 c 0,16,17
 1152 640 1152 640 1075 582 c 128,-1,18
 998 524 998 524 856 524 c 0,19,20
 726 524 726 524 594 630 c 128,-1,21
 462 736 462 736 387 736 c 256,22,23
 312 736 312 736 278 705 c 128,-1,24
 244 674 244 674 218 628 c 0,25,26
 192 583 192 583 166 598 c 2,27,-1
 100 634 l 2,0,1
EndSplineSet
EndChar

StartChar: exclamdown
Encoding: 161 161 98
Width: 668
GlyphClass: 2
Flags: W
LayerCount: 2
Fore
SplineSet
254 -384 m 2,0,1
 182 -384 182 -384 184 -309 c 2,2,-1
 211 565 l 2,3,4
 213 630 213 630 276 630 c 2,5,-1
 392 630 l 2,6,7
 455 630 455 630 457 565 c 2,8,-1
 484 -309 l 2,9,10
 486 -384 486 -384 414 -384 c 2,11,-1
 254 -384 l 2,0,1
258 766 m 2,12,13
 188 766 188 766 188 841 c 2,14,-1
 188 975 l 2,15,16
 188 1050 188 1050 258 1050 c 2,17,-1
 410 1050 l 2,18,19
 480 1050 480 1050 480 975 c 2,20,-1
 480 841 l 2,21,22
 480 766 480 766 410 766 c 2,23,-1
 258 766 l 2,12,13
EndSplineSet
EndChar

StartChar: cent
Encoding: 162 162 99
Width: 1200
GlyphClass: 2
Flags: W
LayerCount: 2
Fore
SplineSet
136 525 m 256,0,1
 136 780 136 780 252.5 912 c 128,-1,2
 369 1044 369 1044 566 1065 c 1,3,-1
 566 1240 l 2,4,5
 566 1300 566 1300 616 1300 c 2,6,-1
 696 1300 l 2,7,8
 746 1300 746 1300 746 1240 c 2,9,-1
 746 1066 l 1,10,11
 839 1057 839 1057 911.5 1022.5 c 128,-1,12
 984 988 984 988 1036 909 c 0,13,14
 1067 862 1067 862 1026 835 c 2,15,-1
 920 765 l 2,16,17
 875 735 875 735 841 788 c 0,18,19
 824 814 824 814 793 833.5 c 128,-1,20
 762 853 762 853 746 859 c 1,21,-1
 746 189 l 1,22,23
 769 197 769 197 803 220 c 128,-1,24
 837 243 837 243 882 298 c 0,25,26
 920 344 920 344 962 311 c 2,27,-1
 1055 238 l 2,28,29
 1097 205 1097 205 1060 150 c 0,30,31
 1021 92 1021 92 940 43.5 c 128,-1,32
 859 -5 859 -5 746 -16 c 1,33,-1
 746 -190 l 2,34,35
 746 -250 746 -250 696 -250 c 2,36,-1
 616 -250 l 2,37,38
 566 -250 566 -250 566 -190 c 2,39,-1
 566 -15 l 1,40,41
 369 6 369 6 252.5 138 c 128,-1,42
 136 270 136 270 136 525 c 256,0,1
432 525 m 256,43,44
 432 335 432 335 475.5 273.5 c 128,-1,45
 519 212 519 212 566 192 c 1,46,-1
 566 858 l 1,47,48
 519 838 519 838 475.5 776.5 c 128,-1,49
 432 715 432 715 432 525 c 256,43,44
EndSplineSet
EndChar

StartChar: sterling
Encoding: 163 163 100
Width: 1200
GlyphClass: 2
Flags: W
LayerCount: 2
Fore
SplineSet
145 0 m 2,0,1
 70 0 70 0 70 65 c 2,2,-1
 70 124 l 2,3,4
 70 177 70 177 111 212 c 0,5,6
 155 249 155 249 197.5 301.5 c 128,-1,7
 240 354 240 354 240 490 c 2,8,-1
 240 583 l 1,9,-1
 139 583 l 2,10,11
 75 583 75 583 75 648 c 2,12,-1
 75 766 l 2,13,14
 75 831 75 831 140 831 c 2,15,-1
 240 831 l 1,16,-1
 240 973 l 2,17,18
 240 1224 240 1224 369 1340 c 128,-1,19
 498 1456 498 1456 711 1456 c 0,20,21
 812 1456 812 1456 897 1426 c 128,-1,22
 982 1396 982 1396 1050 1323 c 0,23,24
 1098 1271 1098 1271 1071 1239 c 2,25,-1
 1001 1155 l 2,26,27
 958 1103 958 1103 908 1155 c 0,28,29
 868 1196 868 1196 818 1214 c 128,-1,30
 768 1232 768 1232 709 1232 c 0,31,32
 612 1232 612 1232 566 1175.5 c 128,-1,33
 520 1119 520 1119 520 1010 c 2,34,-1
 520 831 l 1,35,-1
 757 831 l 2,36,37
 822 831 822 831 822 766 c 2,38,-1
 822 648 l 2,39,40
 822 583 822 583 758 583 c 2,41,-1
 520 583 l 1,42,-1
 520 495 l 2,43,44
 520 404 520 404 503 345 c 128,-1,45
 486 286 486 286 449 250 c 1,46,-1
 449 244 l 1,47,48
 509 248 509 248 549 248 c 2,49,-1
 1049 248 l 2,50,51
 1124 248 1124 248 1124 183 c 2,52,-1
 1124 65 l 2,53,54
 1124 0 1124 0 1049 0 c 2,55,-1
 145 0 l 2,0,1
EndSplineSet
EndChar

StartChar: currency
Encoding: 164 164 101
Width: 1200
GlyphClass: 2
Flags: W
LayerCount: 2
Fore
SplineSet
86 276 m 2,0,1
 50 310 50 310 91 354 c 2,2,-1
 217 490 l 1,3,4
 155 596 155 596 155 728 c 256,5,6
 155 860 155 860 217 966 c 1,7,-1
 91 1102 l 2,8,9
 50 1146 50 1146 86 1180 c 2,10,-1
 149 1239 l 2,11,12
 186 1273 186 1273 227 1229 c 2,13,-1
 342 1105 l 1,14,15
 452 1187 452 1187 600 1187 c 256,16,17
 748 1187 748 1187 858 1105 c 1,18,-1
 973 1229 l 2,19,20
 1014 1273 1014 1273 1051 1239 c 2,21,-1
 1114 1180 l 2,22,23
 1150 1146 1150 1146 1109 1102 c 2,24,-1
 983 966 l 1,25,26
 1045 860 1045 860 1045 728 c 256,27,28
 1045 596 1045 596 983 490 c 1,29,-1
 1109 354 l 2,30,31
 1150 310 1150 310 1114 276 c 2,32,-1
 1051 217 l 2,33,34
 1014 183 1014 183 973 227 c 2,35,-1
 858 351 l 1,36,37
 748 269 748 269 600 269 c 256,38,39
 452 269 452 269 342 351 c 1,40,-1
 227 227 l 2,41,42
 186 183 186 183 149 217 c 2,43,-1
 86 276 l 2,0,1
350 728 m 256,44,45
 350 620 350 620 419.5 541.5 c 128,-1,46
 489 463 489 463 600 463 c 256,47,48
 711 463 711 463 780.5 541.5 c 128,-1,49
 850 620 850 620 850 728 c 256,50,51
 850 836 850 836 780.5 914.5 c 128,-1,52
 711 993 711 993 600 993 c 256,53,54
 489 993 489 993 419.5 914.5 c 128,-1,55
 350 836 350 836 350 728 c 256,44,45
EndSplineSet
EndChar

StartChar: yen
Encoding: 165 165 102
Width: 1200
GlyphClass: 2
Flags: W
LayerCount: 2
Fore
SplineSet
13 1348 m 2,0,1
 -39 1434 -39 1434 60 1434 c 2,2,-1
 215 1434 l 2,3,4
 272 1434 272 1434 307 1365 c 2,5,-1
 494 994 l 2,6,7
 532 920 532 920 561.5 871 c 128,-1,8
 591 822 591 822 598 748 c 1,9,-1
 602 748 l 1,10,11
 609 822 609 822 638.5 870.5 c 128,-1,12
 668 919 668 919 706 994 c 2,13,-1
 893 1365 l 2,14,15
 928 1434 928 1434 985 1434 c 2,16,-1
 1140 1434 l 2,17,18
 1239 1434 1239 1434 1187 1348 c 2,19,-1
 838 768 l 1,20,-1
 992 768 l 2,21,22
 1052 768 1052 768 1052 708 c 2,23,-1
 1052 620 l 2,24,25
 1052 560 1052 560 992 560 c 2,26,-1
 740 560 l 1,27,-1
 740 391 l 1,28,-1
 992 391 l 2,29,30
 1052 391 1052 391 1052 331 c 2,31,-1
 1052 243 l 2,32,33
 1052 183 1052 183 992 183 c 2,34,-1
 740 183 l 1,35,-1
 740 60 l 2,36,37
 740 0 740 0 680 0 c 2,38,-1
 520 0 l 2,39,40
 460 0 460 0 460 60 c 2,41,-1
 460 183 l 1,42,-1
 208 183 l 2,43,44
 148 183 148 183 148 243 c 2,45,-1
 148 331 l 2,46,47
 148 391 148 391 208 391 c 2,48,-1
 460 391 l 1,49,-1
 460 560 l 1,50,-1
 208 560 l 2,51,52
 148 560 148 560 148 620 c 2,53,-1
 148 708 l 2,54,55
 148 768 148 768 208 768 c 2,56,-1
 362 768 l 1,57,-1
 13 1348 l 2,0,1
EndSplineSet
EndChar

StartChar: brokenbar
Encoding: 166 166 103
Width: 630
GlyphClass: 2
Flags: W
LayerCount: 2
Fore
SplineSet
265 -338 m 2,0,1
 215 -338 215 -338 215 -278 c 2,2,-1
 215 336 l 2,3,4
 215 396 215 396 265 396 c 2,5,-1
 365 396 l 2,6,7
 415 396 415 396 415 336 c 2,8,-1
 415 -278 l 2,9,10
 415 -338 415 -338 365 -338 c 2,11,-1
 265 -338 l 2,0,1
265 660 m 2,12,13
 215 660 215 660 215 720 c 2,14,-1
 215 1334 l 2,15,16
 215 1394 215 1394 265 1394 c 2,17,-1
 365 1394 l 2,18,19
 415 1394 415 1394 415 1334 c 2,20,-1
 415 720 l 2,21,22
 415 660 415 660 365 660 c 2,23,-1
 265 660 l 2,12,13
EndSplineSet
EndChar

StartChar: section
Encoding: 167 167 104
Width: 1236
GlyphClass: 2
Flags: W
LayerCount: 2
Fore
SplineSet
104 601 m 0,0,1
 104 724 104 724 182 809 c 128,-1,2
 260 894 260 894 353 964 c 1,3,4
 282 1062 282 1062 282 1155 c 0,5,6
 282 1302 282 1302 382 1385 c 128,-1,7
 482 1468 482 1468 644 1468 c 0,8,9
 748 1468 748 1468 815.5 1436 c 128,-1,10
 883 1404 883 1404 938 1349 c 0,11,12
 980 1307 980 1307 950 1277 c 2,13,-1
 867 1194 l 2,14,15
 842 1169 842 1169 806 1204 c 0,16,17
 776 1234 776 1234 743.5 1253 c 128,-1,18
 711 1272 711 1272 659 1272 c 0,19,20
 623 1272 623 1272 594.5 1250 c 128,-1,21
 566 1228 566 1228 566 1175 c 0,22,23
 566 1066 566 1066 849 875 c 128,-1,24
 1132 684 1132 684 1132 489 c 0,25,26
 1132 366 1132 366 1054 280.5 c 128,-1,27
 976 195 976 195 883 126 c 1,28,29
 954 28 954 28 954 -65 c 0,30,31
 954 -212 954 -212 854 -295 c 128,-1,32
 754 -378 754 -378 592 -378 c 0,33,34
 488 -378 488 -378 420.5 -346 c 128,-1,35
 353 -314 353 -314 298 -259 c 0,36,37
 256 -217 256 -217 286 -187 c 2,38,-1
 369 -104 l 2,39,40
 394 -79 394 -79 430 -114 c 0,41,42
 460 -144 460 -144 492.5 -163 c 128,-1,43
 525 -182 525 -182 577 -182 c 0,44,45
 613 -182 613 -182 641.5 -160 c 128,-1,46
 670 -138 670 -138 670 -85 c 0,47,48
 670 24 670 24 387 215 c 128,-1,49
 104 406 104 406 104 601 c 0,0,1
346 646 m 0,50,51
 346 558 346 558 529.5 428 c 128,-1,52
 713 298 713 298 763 254 c 1,53,-1
 842 324 l 2,54,55
 890 367 890 367 890 444 c 0,56,57
 890 532 890 532 706.5 662.5 c 128,-1,58
 523 793 523 793 473 836 c 1,59,-1
 394 766 l 2,60,61
 346 723 346 723 346 646 c 0,50,51
EndSplineSet
EndChar

StartChar: dieresis
Encoding: 168 168 105
Width: 614
GlyphClass: 2
Flags: W
LayerCount: 2
Fore
SplineSet
36 1206 m 2,0,1
 -24 1206 -24 1206 -24 1266 c 2,2,-1
 -24 1382 l 2,3,4
 -24 1442 -24 1442 36 1442 c 2,5,-1
 152 1442 l 2,6,7
 212 1442 212 1442 212 1382 c 2,8,-1
 212 1266 l 2,9,10
 212 1206 212 1206 152 1206 c 2,11,-1
 36 1206 l 2,0,1
462 1206 m 2,12,13
 402 1206 402 1206 402 1266 c 2,14,-1
 402 1382 l 2,15,16
 402 1442 402 1442 462 1442 c 2,17,-1
 578 1442 l 2,18,19
 638 1442 638 1442 638 1382 c 2,20,-1
 638 1266 l 2,21,22
 638 1206 638 1206 578 1206 c 2,23,-1
 462 1206 l 2,12,13
EndSplineSet
EndChar

StartChar: copyright
Encoding: 169 169 106
Width: 1654
GlyphClass: 2
Flags: W
LayerCount: 2
Fore
SplineSet
76 717 m 256,0,1
 76 870 76 870 136 1008.5 c 128,-1,2
 196 1147 196 1147 296.5 1247.5 c 128,-1,3
 397 1348 397 1348 535.5 1408 c 128,-1,4
 674 1468 674 1468 827 1468 c 256,5,6
 980 1468 980 1468 1118.5 1408 c 128,-1,7
 1257 1348 1257 1348 1357.5 1247.5 c 128,-1,8
 1458 1147 1458 1147 1518 1008.5 c 128,-1,9
 1578 870 1578 870 1578 717 c 256,10,11
 1578 564 1578 564 1518 425.5 c 128,-1,12
 1458 287 1458 287 1357.5 186.5 c 128,-1,13
 1257 86 1257 86 1118.5 26 c 128,-1,14
 980 -34 980 -34 827 -34 c 256,15,16
 674 -34 674 -34 535.5 26 c 128,-1,17
 397 86 397 86 296.5 186.5 c 128,-1,18
 196 287 196 287 136 425.5 c 128,-1,19
 76 564 76 564 76 717 c 256,0,1
192 717 m 256,20,21
 192 587 192 587 242.5 470 c 128,-1,22
 293 353 293 353 378 268 c 128,-1,23
 463 183 463 183 580 130.5 c 128,-1,24
 697 78 697 78 827 78 c 256,25,26
 957 78 957 78 1074 130.5 c 128,-1,27
 1191 183 1191 183 1276 268 c 128,-1,28
 1361 353 1361 353 1411.5 470 c 128,-1,29
 1462 587 1462 587 1462 717 c 256,30,31
 1462 847 1462 847 1411.5 964 c 128,-1,32
 1361 1081 1361 1081 1276 1166 c 128,-1,33
 1191 1251 1191 1251 1074 1303.5 c 128,-1,34
 957 1356 957 1356 827 1356 c 256,35,36
 697 1356 697 1356 580 1303.5 c 128,-1,37
 463 1251 463 1251 378 1166 c 128,-1,38
 293 1081 293 1081 242.5 964 c 128,-1,39
 192 847 192 847 192 717 c 256,20,21
428 717 m 256,40,41
 428 917 428 917 530 1035 c 128,-1,42
 632 1153 632 1153 823 1153 c 0,43,44
 930 1153 930 1153 1009.5 1120 c 128,-1,45
 1089 1087 1089 1087 1121 1022 c 0,46,47
 1142 980 1142 980 1114 964 c 2,48,-1
 1038 921 l 2,49,50
 1001 900 1001 900 978 943 c 0,51,52
 963 970 963 970 923.5 991 c 128,-1,53
 884 1012 884 1012 829 1012 c 0,54,55
 707 1012 707 1012 661 937 c 128,-1,56
 615 862 615 862 615 717 c 256,57,58
 615 572 615 572 661 497 c 128,-1,59
 707 422 707 422 829 422 c 0,60,61
 895 422 895 422 938 451 c 128,-1,62
 981 480 981 480 999 507 c 0,63,64
 1027 551 1027 551 1059 529 c 2,65,-1
 1135 477 l 2,66,67
 1163 458 1163 458 1140 419 c 0,68,69
 1106 361 1106 361 1023 321 c 128,-1,70
 940 281 940 281 823 281 c 0,71,72
 635 281 635 281 531.5 399 c 128,-1,73
 428 517 428 517 428 717 c 256,40,41
EndSplineSet
EndChar

StartChar: ordfeminine
Encoding: 170 170 107
Width: 776
GlyphClass: 2
Flags: W
LayerCount: 2
Fore
SplineSet
54 972 m 0,0,1
 54 1100 54 1100 171 1166 c 128,-1,2
 288 1232 288 1232 471 1247 c 1,3,-1
 471 1257 l 2,4,5
 471 1300 471 1300 432.5 1319.5 c 128,-1,6
 394 1339 394 1339 350 1339 c 0,7,8
 308 1339 308 1339 269 1329.5 c 128,-1,9
 230 1320 230 1320 201 1299 c 0,10,11
 164 1272 164 1272 149 1297 c 2,12,-1
 100 1380 l 2,13,14
 82 1411 82 1411 111 1431 c 0,15,16
 154 1460 154 1460 218 1478 c 128,-1,17
 282 1496 282 1496 368 1496 c 0,18,19
 509 1496 509 1496 590 1434 c 128,-1,20
 671 1372 671 1372 671 1239 c 2,21,-1
 671 839 l 2,22,23
 671 800 671 800 630 800 c 2,24,-1
 509 800 l 2,25,26
 472 800 472 800 472 839 c 2,27,-1
 472 857 l 1,28,-1
 471 857 l 1,29,30
 422 818 422 818 374 802.5 c 128,-1,31
 326 787 326 787 282 787 c 0,32,33
 178 787 178 787 116 834.5 c 128,-1,34
 54 882 54 882 54 972 c 0,0,1
266 991 m 0,35,36
 266 959 266 959 292 951 c 128,-1,37
 318 943 318 943 341 943 c 0,38,39
 376 943 376 943 401 951.5 c 128,-1,40
 426 960 426 960 471 988 c 1,41,-1
 471 1094 l 1,42,43
 358 1078 358 1078 312 1057 c 128,-1,44
 266 1036 266 1036 266 991 c 0,35,36
EndSplineSet
EndChar

StartChar: logicalnot
Encoding: 172 172 109
Width: 1200
GlyphClass: 2
Flags: W
LayerCount: 2
Fore
SplineSet
135 775 m 2,0,1
 75 775 75 775 75 825 c 2,2,-1
 75 911 l 2,3,4
 75 961 75 961 135 961 c 2,5,-1
 1125 961 l 1,6,-1
 1125 463 l 2,7,8
 1125 403 1125 403 1075 403 c 2,9,-1
 989 403 l 2,10,11
 939 403 939 403 939 463 c 2,12,-1
 939 775 l 1,13,-1
 135 775 l 2,0,1
EndSplineSet
EndChar

StartChar: registered
Encoding: 174 174 110
Width: 1654
GlyphClass: 2
Flags: W
LayerCount: 2
Fore
SplineSet
76 717 m 256,0,1
 76 870 76 870 136 1008.5 c 128,-1,2
 196 1147 196 1147 296.5 1247.5 c 128,-1,3
 397 1348 397 1348 535.5 1408 c 128,-1,4
 674 1468 674 1468 827 1468 c 256,5,6
 980 1468 980 1468 1118.5 1408 c 128,-1,7
 1257 1348 1257 1348 1357.5 1247.5 c 128,-1,8
 1458 1147 1458 1147 1518 1008.5 c 128,-1,9
 1578 870 1578 870 1578 717 c 256,10,11
 1578 564 1578 564 1518 425.5 c 128,-1,12
 1458 287 1458 287 1357.5 186.5 c 128,-1,13
 1257 86 1257 86 1118.5 26 c 128,-1,14
 980 -34 980 -34 827 -34 c 256,15,16
 674 -34 674 -34 535.5 26 c 128,-1,17
 397 86 397 86 296.5 186.5 c 128,-1,18
 196 287 196 287 136 425.5 c 128,-1,19
 76 564 76 564 76 717 c 256,0,1
192 717 m 256,20,21
 192 587 192 587 242.5 470 c 128,-1,22
 293 353 293 353 378 268 c 128,-1,23
 463 183 463 183 580 130.5 c 128,-1,24
 697 78 697 78 827 78 c 256,25,26
 957 78 957 78 1074 130.5 c 128,-1,27
 1191 183 1191 183 1276 268 c 128,-1,28
 1361 353 1361 353 1411.5 470 c 128,-1,29
 1462 587 1462 587 1462 717 c 256,30,31
 1462 847 1462 847 1411.5 964 c 128,-1,32
 1361 1081 1361 1081 1276 1166 c 128,-1,33
 1191 1251 1191 1251 1074 1303.5 c 128,-1,34
 957 1356 957 1356 827 1356 c 256,35,36
 697 1356 697 1356 580 1303.5 c 128,-1,37
 463 1251 463 1251 378 1166 c 128,-1,38
 293 1081 293 1081 242.5 964 c 128,-1,39
 192 847 192 847 192 717 c 256,20,21
562 283 m 2,40,41
 521 283 521 283 521 326 c 2,42,-1
 521 1071 l 2,43,44
 521 1114 521 1114 562 1114 c 2,45,-1
 830 1114 l 2,46,47
 1009 1114 1009 1114 1091.5 1058.5 c 128,-1,48
 1174 1003 1174 1003 1174 879 c 0,49,50
 1174 786 1174 786 1107.5 731 c 128,-1,51
 1041 676 1041 676 938 658 c 1,52,-1
 938 657 l 1,53,54
 994 636 994 636 1022 599.5 c 128,-1,55
 1050 563 1050 563 1068 534 c 2,56,-1
 1196 333 l 2,57,58
 1228 283 1228 283 1174 283 c 2,59,-1
 1067 283 l 2,60,61
 1035 283 1035 283 1015 317 c 2,62,-1
 898 512 l 2,63,64
 880 542 880 542 829 580 c 128,-1,65
 778 618 778 618 727 618 c 2,66,-1
 696 618 l 1,67,-1
 696 326 l 2,68,69
 696 283 696 283 656 283 c 2,70,-1
 562 283 l 2,40,41
696 763 m 1,71,-1
 790 763 l 2,72,73
 906 763 906 763 955 789 c 128,-1,74
 1004 815 1004 815 1004 872 c 0,75,76
 1004 935 1004 935 957 952.5 c 128,-1,77
 910 970 910 970 818 970 c 2,78,-1
 696 970 l 1,79,-1
 696 763 l 1,71,-1
EndSplineSet
EndChar

StartChar: macron
Encoding: 175 175 111
Width: 614
GlyphClass: 2
Flags: W
LayerCount: 2
Fore
SplineSet
38 1226 m 2,0,1
 -22 1226 -22 1226 -22 1276 c 2,2,-1
 -22 1342 l 2,3,4
 -22 1392 -22 1392 38 1392 c 2,5,-1
 576 1392 l 2,6,7
 636 1392 636 1392 636 1342 c 2,8,-1
 636 1276 l 2,9,10
 636 1226 636 1226 576 1226 c 2,11,-1
 38 1226 l 2,0,1
EndSplineSet
EndChar

StartChar: degree
Encoding: 176 176 112
Width: 600
GlyphClass: 2
Flags: W
LayerCount: 2
Fore
SplineSet
76 1240 m 256,0,1
 76 1333 76 1333 141.5 1398.5 c 128,-1,2
 207 1464 207 1464 300 1464 c 256,3,4
 393 1464 393 1464 458.5 1398.5 c 128,-1,5
 524 1333 524 1333 524 1240 c 256,6,7
 524 1147 524 1147 458.5 1081.5 c 128,-1,8
 393 1016 393 1016 300 1016 c 256,9,10
 207 1016 207 1016 141.5 1081.5 c 128,-1,11
 76 1147 76 1147 76 1240 c 256,0,1
216 1240 m 256,12,13
 216 1204 216 1204 240 1180 c 128,-1,14
 264 1156 264 1156 300 1156 c 256,15,16
 336 1156 336 1156 360 1180 c 128,-1,17
 384 1204 384 1204 384 1240 c 256,18,19
 384 1276 384 1276 360 1300 c 128,-1,20
 336 1324 336 1324 300 1324 c 256,21,22
 264 1324 264 1324 240 1300 c 128,-1,23
 216 1276 216 1276 216 1240 c 256,12,13
EndSplineSet
EndChar

StartChar: uni00B2
Encoding: 178 178 114
Width: 630
GlyphClass: 2
Flags: W
LayerCount: 2
Fore
SplineSet
85 712 m 2,0,1
 46 712 46 712 46 746 c 2,2,-1
 46 782 l 2,3,4
 46 809 46 809 71 835 c 2,5,6
 71 835 71 835 226 999 c 0,7,8
 281 1058 281 1058 341.5 1124 c 128,-1,9
 402 1190 402 1190 402 1246 c 0,10,11
 402 1292 402 1292 378 1317 c 128,-1,12
 354 1342 354 1342 309 1342 c 0,13,14
 248 1342 248 1342 217 1309 c 128,-1,15
 186 1276 186 1276 173 1239 c 1,16,17
 160 1198 160 1198 130 1212 c 2,18,-1
 72 1239 l 2,19,20
 48 1250 48 1250 58 1287 c 0,21,22
 78 1361 78 1361 140.5 1414.5 c 128,-1,23
 203 1468 203 1468 325 1468 c 0,24,25
 453 1468 453 1468 510.5 1402.5 c 128,-1,26
 568 1337 568 1337 568 1260 c 0,27,28
 568 1168 568 1168 490.5 1095 c 128,-1,29
 413 1022 413 1022 341 946 c 2,30,-1
 253 853 l 1,31,-1
 253 850 l 1,32,33
 284 852 284 852 305 852 c 2,34,-1
 538 852 l 2,35,36
 577 852 577 852 577 818 c 2,37,-1
 577 746 l 2,38,39
 577 712 577 712 538 712 c 2,40,-1
 85 712 l 2,0,1
EndSplineSet
EndChar

StartChar: uni00B3
Encoding: 179 179 115
Width: 630
GlyphClass: 2
Flags: W
LayerCount: 2
Fore
SplineSet
50 765 m 0,0,1
 29 783 29 783 47 814 c 2,2,-1
 77 867 l 2,3,4
 95 898 95 898 132 872 c 0,5,6
 164 849 164 849 205.5 835 c 128,-1,7
 247 821 247 821 289 821 c 0,8,9
 343 821 343 821 377 852.5 c 128,-1,10
 411 884 411 884 411 931 c 256,11,12
 411 978 411 978 374 1012.5 c 128,-1,13
 337 1047 337 1047 283 1047 c 2,14,-1
 243 1047 l 2,15,16
 209 1047 209 1047 209 1074 c 2,17,-1
 209 1143 l 2,18,19
 209 1172 209 1172 243 1172 c 2,20,-1
 274 1172 l 2,21,22
 317 1172 317 1172 352.5 1201 c 128,-1,23
 388 1230 388 1230 388 1271 c 0,24,25
 388 1294 388 1294 365.5 1318 c 128,-1,26
 343 1342 343 1342 292 1342 c 0,27,28
 245 1342 245 1342 211 1329 c 128,-1,29
 177 1316 177 1316 150 1291 c 0,30,31
 119 1262 119 1262 97 1294 c 2,32,-1
 61 1347 l 2,33,34
 44 1372 44 1372 71 1398 c 0,35,36
 108 1434 108 1434 167.5 1451 c 128,-1,37
 227 1468 227 1468 284 1468 c 0,38,39
 417 1468 417 1468 483.5 1415 c 128,-1,40
 550 1362 550 1362 550 1285 c 0,41,42
 550 1228 550 1228 504 1181 c 128,-1,43
 458 1134 458 1134 408 1116 c 1,44,-1
 408 1114 l 1,45,46
 467 1099 467 1099 522 1050 c 128,-1,47
 577 1001 577 1001 577 929 c 0,48,49
 577 815 577 815 503.5 754.5 c 128,-1,50
 430 694 430 694 283 694 c 0,51,52
 221 694 221 694 154.5 713 c 128,-1,53
 88 732 88 732 50 765 c 0,0,1
EndSplineSet
EndChar

StartChar: acute
Encoding: 180 180 116
Width: 614
GlyphClass: 2
Flags: W
LayerCount: 2
Fore
SplineSet
174 1150 m 2,0,1
 117 1150 117 1150 153 1209 c 2,2,-1
 261 1388 l 2,3,4
 289 1435 289 1435 367 1435 c 2,5,-1
 519 1435 l 2,6,7
 593 1435 593 1435 541 1376 c 2,8,-1
 376 1187 l 2,9,10
 344 1150 344 1150 275 1150 c 2,11,-1
 174 1150 l 2,0,1
EndSplineSet
EndChar

StartChar: uni00B5
Encoding: 181 181 117
Width: 1234
GlyphClass: 2
Flags: W
LayerCount: 2
Fore
SplineSet
196 -400 m 2,0,1
 136 -400 136 -400 136 -340 c 2,2,-1
 136 990 l 2,3,4
 136 1050 136 1050 196 1050 c 2,5,-1
 356 1050 l 2,6,7
 416 1050 416 1050 416 990 c 2,8,-1
 416 596 l 2,9,10
 416 351 416 351 478 263.5 c 128,-1,11
 540 176 540 176 617 176 c 0,12,13
 717 176 717 176 767.5 271 c 128,-1,14
 818 366 818 366 818 596 c 2,15,-1
 818 990 l 2,16,17
 818 1050 818 1050 878 1050 c 2,18,-1
 1038 1050 l 2,19,20
 1098 1050 1098 1050 1098 990 c 2,21,-1
 1098 60 l 2,22,23
 1098 0 1098 0 1038 0 c 2,24,-1
 880 0 l 2,25,26
 820 0 820 0 820 60 c 2,27,-1
 820 118 l 1,28,-1
 816 118 l 1,29,30
 780 45 780 45 735 12.5 c 128,-1,31
 690 -20 690 -20 621 -20 c 256,32,33
 552 -20 552 -20 502.5 11 c 128,-1,34
 453 42 453 42 418 118 c 1,35,-1
 412 118 l 1,36,37
 416 78 416 78 416 38 c 2,38,-1
 416 -340 l 2,39,40
 416 -400 416 -400 356 -400 c 2,41,-1
 196 -400 l 2,0,1
EndSplineSet
EndChar

StartChar: paragraph
Encoding: 182 182 118
Width: 1140
GlyphClass: 2
Flags: W
LayerCount: 2
Fore
SplineSet
75 1084 m 256,0,1
 75 1226 75 1226 179 1330 c 128,-1,2
 283 1434 283 1434 445 1434 c 2,3,-1
 595 1434 l 2,4,5
 645 1434 645 1434 645 1374 c 2,6,-1
 645 -310 l 2,7,8
 645 -370 645 -370 595 -370 c 2,9,-1
 495 -370 l 2,10,11
 445 -370 445 -370 445 -310 c 2,12,-1
 445 734 l 1,13,14
 283 734 283 734 179 838 c 128,-1,15
 75 942 75 942 75 1084 c 256,0,1
854 -370 m 2,16,17
 804 -370 804 -370 804 -310 c 2,18,-1
 804 1374 l 2,19,20
 804 1434 804 1434 854 1434 c 2,21,-1
 954 1434 l 2,22,23
 1004 1434 1004 1434 1004 1374 c 2,24,-1
 1004 -310 l 2,25,26
 1004 -370 1004 -370 954 -370 c 2,27,-1
 854 -370 l 2,16,17
EndSplineSet
EndChar

StartChar: cedilla
Encoding: 184 184 120
Width: 614
GlyphClass: 2
Flags: W
LayerCount: 2
Fore
SplineSet
117 -401 m 0,0,1
 89 -393 89 -393 99 -359 c 2,2,-1
 112 -314 l 2,3,4
 123 -277 123 -277 158 -291 c 0,5,6
 192 -304 192 -304 238 -304 c 0,7,8
 279 -304 279 -304 302.5 -290.5 c 128,-1,9
 326 -277 326 -277 326 -248 c 0,10,11
 326 -223 326 -223 301.5 -210 c 128,-1,12
 277 -197 277 -197 223 -197 c 2,13,-1
 202 -197 l 2,14,15
 168 -197 168 -197 168 -162 c 0,16,17
 168 -121 168 -121 182 -94 c 2,18,-1
 230 0 l 2,19,20
 241 22 241 22 270 22 c 2,21,-1
 353 22 l 2,22,23
 383 22 383 22 372 0 c 2,24,-1
 327 -88 l 1,25,-1
 327 -91 l 1,26,27
 413 -103 413 -103 447 -142 c 128,-1,28
 481 -181 481 -181 481 -244 c 0,29,30
 481 -340 481 -340 415 -379.5 c 128,-1,31
 349 -419 349 -419 249 -419 c 0,32,33
 180 -419 180 -419 117 -401 c 0,0,1
EndSplineSet
EndChar

StartChar: uni00B9
Encoding: 185 185 121
Width: 520
GlyphClass: 2
Flags: W
LayerCount: 2
Fore
SplineSet
78 1299 m 2,0,1
 65 1324 65 1324 96 1339 c 0,2,3
 126 1353 126 1353 166 1379 c 128,-1,4
 206 1405 206 1405 227 1431 c 0,5,6
 250 1460 250 1460 272 1460 c 2,7,-1
 369 1460 l 2,8,9
 400 1460 400 1460 400 1429 c 2,10,-1
 400 743 l 2,11,12
 400 712 400 712 369 712 c 2,13,-1
 271 712 l 2,14,15
 240 712 240 712 240 743 c 2,16,-1
 240 1227 l 2,17,18
 240 1248 240 1248 242 1269 c 1,19,-1
 240 1269 l 1,20,21
 224 1249 224 1249 196 1233.5 c 128,-1,22
 168 1218 168 1218 154 1212 c 0,23,24
 130 1202 130 1202 117 1226 c 2,25,-1
 78 1299 l 2,0,1
EndSplineSet
EndChar

StartChar: ordmasculine
Encoding: 186 186 122
Width: 820
GlyphClass: 2
Flags: W
LayerCount: 2
Fore
SplineSet
54 1141 m 256,0,1
 54 1311 54 1311 142 1403.5 c 128,-1,2
 230 1496 230 1496 410 1496 c 256,3,4
 590 1496 590 1496 678 1403.5 c 128,-1,5
 766 1311 766 1311 766 1141 c 256,6,7
 766 971 766 971 678 879 c 128,-1,8
 590 787 590 787 410 787 c 256,9,10
 230 787 230 787 142 879 c 128,-1,11
 54 971 54 971 54 1141 c 256,0,1
266 1141 m 256,12,13
 266 1026 266 1026 305.5 984.5 c 128,-1,14
 345 943 345 943 410 943 c 256,15,16
 475 943 475 943 514.5 984.5 c 128,-1,17
 554 1026 554 1026 554 1141 c 256,18,19
 554 1256 554 1256 514.5 1298 c 128,-1,20
 475 1340 475 1340 410 1340 c 256,21,22
 345 1340 345 1340 305.5 1298 c 128,-1,23
 266 1256 266 1256 266 1141 c 256,12,13
EndSplineSet
EndChar

StartChar: questiondown
Encoding: 191 191 127
Width: 1106
GlyphClass: 2
Flags: W
LayerCount: 2
Fore
SplineSet
100 -18 m 0,0,1
 100 123 100 123 265.5 286.5 c 128,-1,2
 431 450 431 450 431 556 c 2,3,-1
 431 572 l 2,4,5
 431 637 431 637 496 637 c 2,6,-1
 646 637 l 2,7,8
 711 637 711 637 711 572 c 2,9,-1
 711 542 l 2,10,11
 711 378 711 378 555.5 216 c 128,-1,12
 400 54 400 54 400 -24 c 0,13,14
 400 -105 400 -105 437.5 -149.5 c 128,-1,15
 475 -194 475 -194 572 -194 c 0,16,17
 658 -194 658 -194 711 -155 c 128,-1,18
 764 -116 764 -116 798 -60 c 0,19,20
 831 -5 831 -5 887 -41 c 2,21,-1
 992 -108 l 2,22,23
 1044 -141 1044 -141 1005 -210 c 0,24,25
 964 -282 964 -282 850 -350 c 128,-1,26
 736 -418 736 -418 562 -418 c 0,27,28
 325 -418 325 -418 212.5 -311 c 128,-1,29
 100 -204 100 -204 100 -18 c 0,0,1
495 766 m 2,30,31
 425 766 425 766 425 841 c 2,32,-1
 425 975 l 2,33,34
 425 1050 425 1050 495 1050 c 2,35,-1
 647 1050 l 2,36,37
 717 1050 717 1050 717 975 c 2,38,-1
 717 841 l 2,39,40
 717 766 717 766 647 766 c 2,41,-1
 495 766 l 2,30,31
EndSplineSet
EndChar

StartChar: AE
Encoding: 198 198 134
Width: 1911
GlyphClass: 2
Flags: W
AnchorPoint: "Anchor-3" 970 1468 basechar 0
AnchorPoint: "Anchor-2" 931 0 basechar 0
LayerCount: 2
Fore
SplineSet
90 0 m 2,0,1
 15 0 15 0 43 66 c 2,2,-1
 587 1353 l 2,3,4
 621 1434 621 1434 681 1434 c 2,5,-1
 1719 1434 l 2,6,7
 1794 1434 1794 1434 1794 1369 c 2,8,-1
 1794 1251 l 2,9,10
 1794 1186 1794 1186 1719 1186 c 2,11,-1
 1116 1186 l 1,12,-1
 1116 868 l 1,13,-1
 1666 868 l 2,14,15
 1741 868 1741 868 1741 803 c 2,16,-1
 1741 685 l 2,17,18
 1741 620 1741 620 1666 620 c 2,19,-1
 1116 620 l 1,20,-1
 1116 248 l 1,21,-1
 1751 248 l 2,22,23
 1826 248 1826 248 1826 183 c 2,24,-1
 1826 65 l 2,25,26
 1826 0 1826 0 1751 0 c 2,27,-1
 894 0 l 2,28,29
 824 0 824 0 824 75 c 2,30,-1
 824 338 l 1,31,-1
 458 338 l 1,32,-1
 344 69 l 2,33,34
 315 0 315 0 252 0 c 2,35,-1
 90 0 l 2,0,1
562 586 m 1,36,-1
 824 586 l 1,37,-1
 824 1186 l 1,38,-1
 788 1186 l 1,39,40
 776 1114 776 1114 761 1065.5 c 128,-1,41
 746 1017 746 1017 723 964 c 2,42,-1
 562 586 l 1,36,-1
EndSplineSet
EndChar

StartChar: Eth
Encoding: 208 208 144
Width: 1500
GlyphClass: 2
Flags: W
LayerCount: 2
Fore
SplineSet
105 612 m 2,0,1
 30 612 30 612 30 677 c 2,2,-1
 30 795 l 2,3,4
 30 860 30 860 105 860 c 2,5,-1
 210 860 l 1,6,-1
 210 1359 l 2,7,8
 210 1434 210 1434 280 1434 c 2,9,-1
 629 1434 l 2,10,11
 1089 1434 1089 1434 1251.5 1248 c 128,-1,12
 1414 1062 1414 1062 1414 719 c 256,13,14
 1414 376 1414 376 1251.5 188 c 128,-1,15
 1089 0 1089 0 629 0 c 2,16,-1
 280 0 l 2,17,18
 210 0 210 0 210 75 c 2,19,-1
 210 612 l 1,20,-1
 105 612 l 2,0,1
502 248 m 1,21,-1
 610 248 l 2,22,23
 920 248 920 248 1011 363.5 c 128,-1,24
 1102 479 1102 479 1102 719 c 256,25,26
 1102 959 1102 959 1011 1073.5 c 128,-1,27
 920 1188 920 1188 610 1188 c 2,28,-1
 502 1188 l 1,29,-1
 502 860 l 1,30,-1
 741 860 l 2,31,32
 816 860 816 860 816 795 c 2,33,-1
 816 677 l 2,34,35
 816 612 816 612 741 612 c 2,36,-1
 502 612 l 1,37,-1
 502 248 l 1,21,-1
EndSplineSet
EndChar

StartChar: multiply
Encoding: 215 215 151
Width: 1280
GlyphClass: 2
Flags: W
LayerCount: 2
Fore
SplineSet
209 356 m 2,0,1
 174 391 174 391 216 434 c 2,2,-1
 507 725 l 1,3,-1
 216 1017 l 2,4,5
 174 1059 174 1059 209 1094 c 2,6,-1
 270 1155 l 2,7,8
 305 1190 305 1190 348 1148 c 2,9,-1
 639 857 l 1,10,-1
 930 1148 l 2,11,12
 972 1190 972 1190 1008 1155 c 2,13,-1
 1069 1094 l 2,14,15
 1104 1059 1104 1059 1062 1017 c 2,16,-1
 770 725 l 1,17,-1
 1062 434 l 2,18,19
 1104 392 1104 392 1069 356 c 2,20,-1
 1008 295 l 2,21,22
 973 260 973 260 930 302 c 2,23,-1
 639 594 l 1,24,-1
 348 302 l 2,25,26
 306 260 306 260 270 295 c 2,27,-1
 209 356 l 2,0,1
EndSplineSet
EndChar

StartChar: germandbls
Encoding: 223 223 157
Width: 1337
GlyphClass: 2
Flags: W
LayerCount: 2
Fore
SplineSet
196 0 m 2,0,1
 136 0 136 0 136 60 c 2,2,-1
 136 1110 l 2,3,4
 136 1311 136 1311 288.5 1403.5 c 128,-1,5
 441 1496 441 1496 654 1496 c 0,6,7
 894 1496 894 1496 1007 1395 c 128,-1,8
 1120 1294 1120 1294 1120 1150 c 0,9,10
 1120 1032 1120 1032 1051 946 c 128,-1,11
 982 860 982 860 864 798 c 1,12,-1
 864 795 l 1,13,14
 1024 784 1024 784 1133.5 677 c 128,-1,15
 1243 570 1243 570 1243 376 c 0,16,17
 1243 212 1243 212 1137.5 96 c 128,-1,18
 1032 -20 1032 -20 800 -20 c 0,19,20
 738 -20 738 -20 670 -7 c 128,-1,21
 602 6 602 6 559 34 c 0,22,23
 518 60 518 60 534 98 c 2,24,-1
 580 208 l 2,25,26
 599 254 599 254 646 221 c 0,27,28
 666 207 666 207 703.5 191.5 c 128,-1,29
 741 176 741 176 780 176 c 0,30,31
 854 176 854 176 900.5 236 c 128,-1,32
 947 296 947 296 947 399 c 0,33,34
 947 500 947 500 879.5 568 c 128,-1,35
 812 636 812 636 686 640 c 0,36,37
 659 641 659 641 647 675 c 2,38,-1
 602 807 l 2,39,40
 593 835 593 835 626 859 c 2,41,-1
 682 900 l 2,42,43
 782 973 782 973 811 1019.5 c 128,-1,44
 840 1066 840 1066 840 1141 c 0,45,46
 840 1208 840 1208 799 1254 c 128,-1,47
 758 1300 758 1300 656 1300 c 0,48,49
 552 1300 552 1300 484 1248 c 128,-1,50
 416 1196 416 1196 416 1040 c 2,51,-1
 416 60 l 2,52,53
 416 0 416 0 356 0 c 2,54,-1
 196 0 l 2,0,1
EndSplineSet
EndChar

StartChar: ae
Encoding: 230 230 164
Width: 1765
GlyphClass: 2
Flags: W
AnchorPoint: "Anchor-3" 850 1070 basechar 0
AnchorPoint: "Anchor-2" 882 0 basechar 0
LayerCount: 2
Fore
SplineSet
80 280 m 0,0,1
 80 480 80 480 268.5 570 c 128,-1,2
 457 660 457 660 697 666 c 1,3,-1
 697 706 l 2,4,5
 697 798 697 798 651 836 c 128,-1,6
 605 874 605 874 527 874 c 0,7,8
 463 874 463 874 398.5 842 c 128,-1,9
 334 810 334 810 295 776 c 0,10,11
 249 736 249 736 219 772 c 2,12,-1
 136 874 l 2,13,14
 105 912 105 912 151 952 c 0,15,16
 204 999 204 999 305 1034.5 c 128,-1,17
 406 1070 406 1070 552 1070 c 0,18,19
 636 1070 636 1070 716.5 1050.5 c 128,-1,20
 797 1031 797 1031 859 976 c 1,21,-1
 862 976 l 1,22,23
 912 1024 912 1024 994 1047 c 128,-1,24
 1076 1070 1076 1070 1160 1070 c 0,25,26
 1428 1070 1428 1070 1555.5 932 c 128,-1,27
 1683 794 1683 794 1683 488 c 0,28,29
 1683 428 1683 428 1627 428 c 2,30,-1
 977 428 l 1,31,32
 988 280 988 280 1054 228 c 128,-1,33
 1120 176 1120 176 1202 176 c 0,34,35
 1270 176 1270 176 1324 197 c 128,-1,36
 1378 218 1378 218 1410 258 c 0,37,38
 1446 303 1446 303 1494 272 c 2,39,-1
 1587 211 l 2,40,41
 1645 173 1645 173 1604 125 c 0,42,43
 1543 52 1543 52 1463.5 16 c 128,-1,44
 1384 -20 1384 -20 1207 -20 c 0,45,46
 1044 -20 1044 -20 943 19 c 128,-1,47
 842 58 842 58 779 146 c 1,48,-1
 777 146 l 1,49,50
 714 76 714 76 616 28 c 128,-1,51
 518 -20 518 -20 424 -20 c 0,52,53
 246 -20 246 -20 163 60.5 c 128,-1,54
 80 141 80 141 80 280 c 0,0,1
376 286 m 0,55,56
 376 213 376 213 420.5 194.5 c 128,-1,57
 465 176 465 176 495 176 c 0,58,59
 543 176 543 176 595 200 c 128,-1,60
 647 224 647 224 710 284 c 1,61,62
 699 360 699 360 697 473 c 1,63,64
 535 459 535 459 455.5 409.5 c 128,-1,65
 376 360 376 360 376 286 c 0,55,56
977 628 m 1,66,-1
 1403 628 l 1,67,68
 1403 736 1403 736 1351.5 804.5 c 128,-1,69
 1300 873 1300 873 1182 873 c 0,70,71
 1088 873 1088 873 1035 807.5 c 128,-1,72
 982 742 982 742 977 628 c 1,66,-1
EndSplineSet
EndChar

StartChar: thorn
Encoding: 254 254 186
Width: 1192
GlyphClass: 2
Flags: W
LayerCount: 2
Fore
SplineSet
196 -400 m 2,0,1
 136 -400 136 -400 136 -340 c 2,2,-1
 136 1416 l 2,3,4
 136 1476 136 1476 196 1476 c 2,5,-1
 356 1476 l 2,6,7
 416 1476 416 1476 416 1416 c 2,8,-1
 416 1012 l 2,9,10
 416 972 416 972 412 932 c 1,11,-1
 416 932 l 1,12,13
 468 1018 468 1018 532 1044 c 128,-1,14
 596 1070 596 1070 686 1070 c 0,15,16
 921 1070 921 1070 1016.5 907.5 c 128,-1,17
 1112 745 1112 745 1112 525 c 256,18,19
 1112 305 1112 305 1016.5 142.5 c 128,-1,20
 921 -20 921 -20 686 -20 c 0,21,22
 596 -20 596 -20 532 6 c 128,-1,23
 468 32 468 32 416 118 c 1,24,-1
 412 118 l 1,25,26
 416 78 416 78 416 38 c 2,27,-1
 416 -340 l 2,28,29
 416 -400 416 -400 356 -400 c 2,30,-1
 196 -400 l 2,0,1
416 480 m 2,31,32
 416 345 416 345 469.5 260.5 c 128,-1,33
 523 176 523 176 598 176 c 0,34,35
 733 176 733 176 774.5 270.5 c 128,-1,36
 816 365 816 365 816 525 c 256,37,38
 816 685 816 685 774.5 779.5 c 128,-1,39
 733 874 733 874 598 874 c 0,40,41
 523 874 523 874 469.5 789.5 c 128,-1,42
 416 705 416 705 416 570 c 2,43,-1
 416 480 l 2,31,32
EndSplineSet
EndChar

StartChar: Aogonek
Encoding: 260 260 192
Width: 1394
GlyphClass: 3
Flags: W
AnchorPoint: "Anchor-3" 697 1468 basechar 0
LayerCount: 2
Fore
SplineSet
90 0 m 2,0,1
 18 0 18 0 43 66 c 2,2,-1
 533 1353 l 2,3,4
 564 1434 564 1434 627 1434 c 2,5,-1
 767 1434 l 2,6,7
 830 1434 830 1434 861 1353 c 2,8,-1
 1351 66 l 2,9,10
 1372 11 1372 11 1322 -6 c 0,11,12
 1302 -13 1302 -13 1215 -79 c 128,-1,13
 1128 -145 1128 -145 1128 -176 c 256,14,15
 1128 -207 1128 -207 1151.5 -215.5 c 128,-1,16
 1175 -224 1175 -224 1207 -224 c 0,17,18
 1257 -224 1257 -224 1288 -219 c 0,19,20
 1324 -213 1324 -213 1328 -250 c 2,21,-1
 1342 -368 l 2,22,23
 1346 -404 1346 -404 1308 -411 c 0,24,25
 1264 -420 1264 -420 1174 -420 c 0,26,27
 1033 -420 1033 -420 962.5 -376 c 128,-1,28
 892 -332 892 -332 892 -247 c 0,29,30
 892 -213 892 -213 902.5 -178 c 128,-1,31
 913 -143 913 -143 945 -102.5 c 128,-1,32
 977 -62 977 -62 1047 0 c 0,33,34
 1071 22 1071 22 1053 69 c 2,35,-1
 951 338 l 1,36,-1
 443 338 l 1,37,-1
 341 69 l 2,38,39
 315 0 315 0 249 0 c 2,40,-1
 90 0 l 2,0,1
536 586 m 1,41,-1
 858 586 l 1,42,-1
 735 904 l 2,43,44
 713 960 713 960 708.5 985.5 c 128,-1,45
 704 1011 704 1011 699 1061 c 1,46,-1
 695 1061 l 1,47,48
 690 1011 690 1011 685.5 985.5 c 128,-1,49
 681 960 681 960 659 904 c 2,50,-1
 536 586 l 1,41,-1
EndSplineSet
Ligature2: "'liga' Standard Ligatures in Latin lookup 2 subtable" A uni0328
EndChar

StartChar: aogonek
Encoding: 261 261 193
Width: 1123
GlyphClass: 2
Flags: W
AnchorPoint: "Anchor-3" 556 1070 basechar 0
LayerCount: 2
Fore
SplineSet
80 280 m 0,0,1
 80 480 80 480 271 570 c 128,-1,2
 462 660 462 660 707 666 c 1,3,-1
 707 706 l 2,4,5
 707 798 707 798 661 836 c 128,-1,6
 615 874 615 874 533 874 c 0,7,8
 464 874 464 874 399 842 c 128,-1,9
 334 810 334 810 295 776 c 0,10,11
 249 736 249 736 219 772 c 2,12,-1
 136 874 l 2,13,14
 105 912 105 912 151 952 c 0,15,16
 204 999 204 999 304.5 1034.5 c 128,-1,17
 405 1070 405 1070 556 1070 c 0,18,19
 764 1070 764 1070 875.5 974 c 128,-1,20
 987 878 987 878 987 691 c 2,21,-1
 987 60 l 2,22,23
 987 15 987 15 950 -11 c 1,24,25
 898 -54 898 -54 835 -99.5 c 128,-1,26
 772 -145 772 -145 772 -176 c 256,27,28
 772 -207 772 -207 795.5 -215.5 c 128,-1,29
 819 -224 819 -224 851 -224 c 0,30,31
 901 -224 901 -224 932 -219 c 0,32,33
 968 -213 968 -213 972 -250 c 2,34,-1
 986 -368 l 2,35,36
 990 -404 990 -404 952 -411 c 0,37,38
 908 -420 908 -420 818 -420 c 0,39,40
 677 -420 677 -420 606.5 -376 c 128,-1,41
 536 -332 536 -332 536 -247 c 0,42,43
 536 -211 536 -211 545.5 -177 c 128,-1,44
 555 -143 555 -143 597 -94 c 128,-1,45
 639 -45 639 -45 691 0 c 1,46,47
 709 13 709 13 709 60 c 2,48,-1
 709 90 l 1,49,-1
 707 90 l 1,50,51
 648 33 648 33 565.5 6.5 c 128,-1,52
 483 -20 483 -20 414 -20 c 0,53,54
 250 -20 250 -20 165 60.5 c 128,-1,55
 80 141 80 141 80 280 c 0,0,1
376 286 m 0,56,57
 376 213 376 213 422 194.5 c 128,-1,58
 468 176 468 176 501 176 c 0,59,60
 552 176 552 176 600 190 c 128,-1,61
 648 204 648 204 707 256 c 1,62,-1
 707 473 l 1,63,64
 540 459 540 459 458 409.5 c 128,-1,65
 376 360 376 360 376 286 c 0,56,57
EndSplineSet
EndChar

StartChar: dcroat
Encoding: 273 273 205
Width: 1238
GlyphClass: 2
Flags: W
LayerCount: 2
Fore
SplineSet
80 525 m 256,0,1
 80 745 80 745 175.5 907.5 c 128,-1,2
 271 1070 271 1070 506 1070 c 0,3,4
 596 1070 596 1070 660 1044 c 128,-1,5
 724 1018 724 1018 776 932 c 1,6,-1
 780 932 l 1,7,8
 776 972 776 972 776 1012 c 2,9,-1
 776 1180 l 1,10,-1
 505 1180 l 2,11,12
 445 1180 445 1180 445 1230 c 2,13,-1
 445 1330 l 2,14,15
 445 1380 445 1380 505 1380 c 2,16,-1
 776 1380 l 1,17,-1
 776 1416 l 2,18,19
 776 1476 776 1476 836 1476 c 2,20,-1
 996 1476 l 2,21,22
 1056 1476 1056 1476 1056 1416 c 2,23,-1
 1056 1380 l 1,24,-1
 1161 1380 l 2,25,26
 1221 1380 1221 1380 1221 1330 c 2,27,-1
 1221 1230 l 2,28,29
 1221 1180 1221 1180 1161 1180 c 2,30,-1
 1056 1180 l 1,31,-1
 1056 60 l 2,32,33
 1056 0 1056 0 996 0 c 2,34,-1
 838 0 l 2,35,36
 788 0 788 0 784 60 c 2,37,-1
 780 118 l 1,38,-1
 776 118 l 1,39,40
 724 32 724 32 660 6 c 128,-1,41
 596 -20 596 -20 506 -20 c 0,42,43
 271 -20 271 -20 175.5 142.5 c 128,-1,44
 80 305 80 305 80 525 c 256,0,1
376 525 m 256,45,46
 376 365 376 365 417.5 270.5 c 128,-1,47
 459 176 459 176 594 176 c 0,48,49
 669 176 669 176 722.5 260.5 c 128,-1,50
 776 345 776 345 776 480 c 2,51,-1
 776 570 l 2,52,53
 776 705 776 705 722.5 789.5 c 128,-1,54
 669 874 669 874 594 874 c 0,55,56
 459 874 459 874 417.5 779.5 c 128,-1,57
 376 685 376 685 376 525 c 256,45,46
EndSplineSet
EndChar

StartChar: Eogonek
Encoding: 280 280 212
Width: 1280
GlyphClass: 2
Flags: W
AnchorPoint: "Anchor-3" 660 1468 basechar 0
LayerCount: 2
Fore
SplineSet
230 0 m 2,0,1
 160 0 160 0 160 75 c 2,2,-1
 160 1359 l 2,3,4
 160 1434 160 1434 230 1434 c 2,5,-1
 1088 1434 l 2,6,7
 1163 1434 1163 1434 1163 1369 c 2,8,-1
 1163 1251 l 2,9,10
 1163 1186 1163 1186 1088 1186 c 2,11,-1
 452 1186 l 1,12,-1
 452 868 l 1,13,-1
 1035 868 l 2,14,15
 1110 868 1110 868 1110 803 c 2,16,-1
 1110 685 l 2,17,18
 1110 620 1110 620 1035 620 c 2,19,-1
 452 620 l 1,20,-1
 452 248 l 1,21,-1
 1120 248 l 2,22,23
 1195 248 1195 248 1195 183 c 2,24,-1
 1195 65 l 2,25,26
 1195 0 1195 0 1120 0 c 2,27,-1
 1109 0 l 1,28,29
 1059 -34 1059 -34 984.5 -89.5 c 128,-1,30
 910 -145 910 -145 910 -176 c 256,31,32
 910 -207 910 -207 934 -215.5 c 128,-1,33
 958 -224 958 -224 990 -224 c 0,34,35
 1040 -224 1040 -224 1070 -219 c 0,36,37
 1106 -213 1106 -213 1110 -250 c 2,38,-1
 1124 -368 l 2,39,40
 1128 -404 1128 -404 1090 -411 c 0,41,42
 1046 -420 1046 -420 956 -420 c 0,43,44
 815 -420 815 -420 744.5 -376 c 128,-1,45
 674 -332 674 -332 674 -247 c 0,46,47
 674 -211 674 -211 684 -177 c 128,-1,48
 694 -143 694 -143 735.5 -94.5 c 128,-1,49
 777 -46 777 -46 830 -3 c 1,50,-1
 830 4 l 1,51,52
 770 0 770 0 710 0 c 2,53,-1
 230 0 l 2,0,1
EndSplineSet
EndChar

StartChar: eogonek
Encoding: 281 281 213
Width: 1174
GlyphClass: 2
Flags: W
AnchorPoint: "Anchor-3" 564 1070 basechar 0
LayerCount: 2
Fore
SplineSet
80 525 m 256,0,1
 80 778 80 778 206.5 924 c 128,-1,2
 333 1070 333 1070 564 1070 c 0,3,4
 832 1070 832 1070 962 932 c 128,-1,5
 1092 794 1092 794 1092 488 c 0,6,7
 1092 428 1092 428 1036 428 c 2,8,-1
 376 428 l 1,9,10
 392 262 392 262 458 219 c 128,-1,11
 524 176 524 176 611 176 c 0,12,13
 694 176 694 176 738 198 c 128,-1,14
 782 220 782 220 812 258 c 0,15,16
 846 302 846 302 896 272 c 2,17,-1
 996 211 l 2,18,19
 1055 175 1055 175 1013 125 c 0,20,21
 978 84 978 84 941.5 58 c 128,-1,22
 905 32 905 32 860 -11 c 1,23,24
 808 -54 808 -54 745 -99.5 c 128,-1,25
 682 -145 682 -145 682 -176 c 256,26,27
 682 -207 682 -207 705.5 -215.5 c 128,-1,28
 729 -224 729 -224 761 -224 c 0,29,30
 811 -224 811 -224 842 -219 c 0,31,32
 878 -213 878 -213 882 -250 c 2,33,-1
 896 -368 l 2,34,35
 900 -404 900 -404 862 -411 c 0,36,37
 818 -420 818 -420 728 -420 c 0,38,39
 587 -420 587 -420 516.5 -376 c 128,-1,40
 446 -332 446 -332 446 -247 c 0,41,42
 446 -211 446 -211 455.5 -177 c 128,-1,43
 465 -143 465 -143 499.5 -102.5 c 128,-1,44
 534 -62 534 -62 610 -22 c 1,45,-1
 610 -18 l 1,46,47
 600 -20 600 -20 590 -20 c 0,48,49
 324 -20 324 -20 202 126 c 128,-1,50
 80 272 80 272 80 525 c 256,0,1
377 628 m 1,51,-1
 812 628 l 1,52,53
 812 736 812 736 758 804.5 c 128,-1,54
 704 873 704 873 586 873 c 0,55,56
 492 873 492 873 437 807.5 c 128,-1,57
 382 742 382 742 377 628 c 1,51,-1
EndSplineSet
EndChar

StartChar: hbar
Encoding: 295 295 224
Width: 1232
GlyphClass: 2
Flags: W
LayerCount: 2
Fore
SplineSet
77 1180 m 2,0,1
 17 1180 17 1180 17 1230 c 2,2,-1
 17 1330 l 2,3,4
 17 1380 17 1380 77 1380 c 2,5,-1
 168 1380 l 1,6,-1
 168 1416 l 2,7,8
 168 1476 168 1476 228 1476 c 2,9,-1
 388 1476 l 2,10,11
 448 1476 448 1476 448 1416 c 2,12,-1
 448 1380 l 1,13,-1
 791 1380 l 2,14,15
 851 1380 851 1380 851 1330 c 2,16,-1
 851 1230 l 2,17,18
 851 1180 851 1180 791 1180 c 2,19,-1
 448 1180 l 1,20,-1
 448 1012 l 2,21,22
 448 972 448 972 444 932 c 1,23,-1
 450 932 l 1,24,25
 496 1011 496 1011 567 1040.5 c 128,-1,26
 638 1070 638 1070 738 1070 c 0,27,28
 894 1070 894 1070 996 972 c 128,-1,29
 1098 874 1098 874 1098 614 c 2,30,-1
 1098 60 l 2,31,32
 1098 0 1098 0 1038 0 c 2,33,-1
 878 0 l 2,34,35
 818 0 818 0 818 60 c 2,36,-1
 818 542 l 2,37,38
 818 760 818 760 788 817 c 128,-1,39
 758 874 758 874 659 874 c 0,40,41
 554 874 554 874 501 792.5 c 128,-1,42
 448 711 448 711 448 454 c 2,43,-1
 448 60 l 2,44,45
 448 0 448 0 388 0 c 2,46,-1
 228 0 l 2,47,48
 168 0 168 0 168 60 c 2,49,-1
 168 1180 l 1,50,-1
 77 1180 l 2,0,1
EndSplineSet
EndChar

StartChar: dotlessi
Encoding: 305 305 232
Width: 552
GlyphClass: 2
Flags: W
AnchorPoint: "Anchor-3" 276 1070 basechar 0
AnchorPoint: "Anchor-2" 276 0 basechar 0
LayerCount: 2
Fore
SplineSet
196 0 m 2,0,1
 136 0 136 0 136 60 c 2,2,-1
 136 990 l 2,3,4
 136 1050 136 1050 196 1050 c 2,5,-1
 356 1050 l 2,6,7
 416 1050 416 1050 416 990 c 2,8,-1
 416 60 l 2,9,10
 416 0 416 0 356 0 c 2,11,-1
 196 0 l 2,0,1
EndSplineSet
EndChar

StartChar: Lslash
Encoding: 321 321 239
Width: 1244
GlyphClass: 2
Flags: W
LayerCount: 2
Fore
SplineSet
125 398 m 2,0,1
 55 351 55 351 55 418 c 2,2,-1
 55 562 l 2,3,4
 55 616 55 616 105 650 c 2,5,-1
 242 742 l 1,6,-1
 242 1359 l 2,7,8
 242 1434 242 1434 312 1434 c 2,9,-1
 474 1434 l 2,10,11
 534 1434 534 1434 534 1359 c 2,12,-1
 534 1062 l 2,13,14
 534 1002 534 1002 529 942 c 1,15,-1
 536 942 l 1,16,-1
 767 1097 l 2,17,18
 837 1144 837 1144 837 1077 c 2,19,-1
 837 933 l 2,20,21
 837 878 837 878 787 845 c 2,22,-1
 534 676 l 1,23,-1
 534 248 l 1,24,-1
 1117 248 l 2,25,26
 1192 248 1192 248 1192 183 c 2,27,-1
 1192 65 l 2,28,29
 1192 0 1192 0 1117 0 c 2,30,-1
 312 0 l 2,31,32
 242 0 242 0 242 75 c 2,33,-1
 242 356 l 2,34,35
 242 416 242 416 247 476 c 1,36,-1
 240 476 l 1,37,-1
 125 398 l 2,0,1
EndSplineSet
EndChar

StartChar: lslash
Encoding: 322 322 240
Width: 692
GlyphClass: 2
Flags: W
AnchorPoint: "Anchor-3" 258 1476 basechar 0
LayerCount: 2
Fore
SplineSet
91 473 m 2,0,1
 36 432 36 432 36 488 c 2,2,-1
 36 630 l 2,3,4
 36 675 36 675 79 707 c 2,5,-1
 201 797 l 1,6,-1
 201 1241 l 2,7,8
 201 1286 201 1286 222 1323 c 2,9,-1
 299 1458 l 2,10,11
 321 1496 321 1496 351 1496 c 2,12,-1
 421 1496 l 2,13,14
 481 1496 481 1496 481 1436 c 2,15,-1
 481 1088 l 2,16,17
 481 1048 481 1048 477 1008 c 1,18,-1
 481 1008 l 1,19,-1
 601 1096 l 2,20,21
 656 1136 656 1136 656 1080 c 2,22,-1
 656 938 l 2,23,24
 656 893 656 893 613 862 c 2,25,-1
 481 766 l 1,26,-1
 481 60 l 2,27,28
 481 0 481 0 421 0 c 2,29,-1
 261 0 l 2,30,31
 201 0 201 0 201 60 c 2,32,-1
 201 475 l 2,33,34
 201 515 201 515 205 555 c 1,35,-1
 201 555 l 1,36,-1
 91 473 l 2,0,1
EndSplineSet
EndChar

StartChar: eng
Encoding: 331 331 245
Width: 1200
GlyphClass: 2
Flags: W
AnchorPoint: "Anchor-3" 601 1070 basechar 0
AnchorPoint: "Anchor-2" 601 -400 basechar 0
LayerCount: 2
Fore
SplineSet
196 0 m 2,0,1
 136 0 136 0 136 60 c 2,2,-1
 136 990 l 2,3,4
 136 1050 136 1050 196 1050 c 2,5,-1
 354 1050 l 2,6,7
 414 1050 414 1050 414 990 c 2,8,-1
 414 932 l 1,9,-1
 418 932 l 1,10,11
 464 1011 464 1011 535 1040.5 c 128,-1,12
 606 1070 606 1070 706 1070 c 0,13,14
 862 1070 862 1070 964 972 c 128,-1,15
 1066 874 1066 874 1066 614 c 2,16,-1
 1066 -4 l 2,17,18
 1066 -252 1066 -252 969 -336 c 128,-1,19
 872 -420 872 -420 710 -420 c 0,20,21
 620 -420 620 -420 559 -409 c 0,22,23
 521 -402 521 -402 530 -357 c 2,24,-1
 552 -247 l 2,25,26
 561 -201 561 -201 603 -217 c 0,27,28
 621 -224 621 -224 675 -224 c 0,29,30
 738 -224 738 -224 762 -158 c 128,-1,31
 786 -92 786 -92 786 26 c 2,32,-1
 786 542 l 2,33,34
 786 760 786 760 756 817 c 128,-1,35
 726 874 726 874 627 874 c 0,36,37
 522 874 522 874 469 792.5 c 128,-1,38
 416 711 416 711 416 454 c 2,39,-1
 416 60 l 2,40,41
 416 0 416 0 356 0 c 2,42,-1
 196 0 l 2,0,1
EndSplineSet
EndChar

StartChar: longs
Encoding: 383 383 285
Width: 652
GlyphClass: 2
Flags: W
AnchorPoint: "Anchor-3" 494 1476 basechar 0
AnchorPoint: "Anchor-2" 276 0 basechar 0
LayerCount: 2
Fore
SplineSet
196 0 m 2,0,1
 136 0 136 0 136 60 c 2,2,-1
 136 1190 l 2,3,4
 136 1374 136 1374 242.5 1435 c 128,-1,5
 349 1496 349 1496 494 1496 c 0,6,7
 563 1496 563 1496 606.5 1488 c 128,-1,8
 650 1480 650 1480 688 1468 c 0,9,10
 724 1456 724 1456 714 1418 c 2,11,-1
 684 1305 l 2,12,13
 675 1272 675 1272 638 1285 c 0,14,15
 616 1293 616 1293 582.5 1296.5 c 128,-1,16
 549 1300 549 1300 526 1300 c 0,17,18
 453 1300 453 1300 434.5 1261 c 128,-1,19
 416 1222 416 1222 416 1090 c 2,20,-1
 416 60 l 2,21,22
 416 0 416 0 356 0 c 2,23,-1
 196 0 l 2,0,1
EndSplineSet
EndChar

StartChar: uni0186
Encoding: 390 390 286
Width: 1418
GlyphClass: 2
Flags: W
AnchorPoint: "Anchor-3" 652 1468 basechar 0
LayerCount: 2
Fore
SplineSet
110 1226 m 0,0,1
 168 1326 168 1326 309 1397 c 128,-1,2
 450 1468 450 1468 652 1468 c 0,3,4
 977 1468 977 1468 1154.5 1265 c 128,-1,5
 1332 1062 1332 1062 1332 717 c 256,6,7
 1332 372 1332 372 1157 169 c 128,-1,8
 982 -34 982 -34 652 -34 c 0,9,10
 462 -34 462 -34 330 25 c 128,-1,11
 198 84 198 84 144 196 c 0,12,13
 108 270 108 270 156 296 c 2,14,-1
 276 360 l 2,15,16
 339 394 339 394 380 322 c 0,17,18
 406 276 406 276 476.5 239 c 128,-1,19
 547 202 547 202 642 202 c 0,20,21
 852 202 852 202 936 334.5 c 128,-1,22
 1020 467 1020 467 1020 717 c 256,23,24
 1020 967 1020 967 936 1099.5 c 128,-1,25
 852 1232 852 1232 642 1232 c 0,26,27
 529 1232 529 1232 451.5 1181 c 128,-1,28
 374 1130 374 1130 344 1084 c 0,29,30
 295 1009 295 1009 240 1046 c 2,31,-1
 120 1126 l 2,32,33
 71 1159 71 1159 110 1226 c 0,0,1
EndSplineSet
EndChar

StartChar: uni018E
Encoding: 398 398 288
Width: 1280
GlyphClass: 2
Flags: W
LayerCount: 2
Fore
SplineSet
85 65 m 2,0,-1
 85 183 l 2,1,2
 85 248 85 248 160 248 c 2,3,-1
 828 248 l 1,4,-1
 828 620 l 1,5,-1
 245 620 l 2,6,7
 170 620 170 620 170 685 c 2,8,-1
 170 803 l 2,9,10
 170 868 170 868 245 868 c 2,11,-1
 828 868 l 1,12,-1
 828 1186 l 1,13,-1
 192 1186 l 2,14,15
 117 1186 117 1186 117 1251 c 2,16,-1
 117 1369 l 2,17,18
 117 1434 117 1434 192 1434 c 2,19,-1
 1050 1434 l 2,20,21
 1120 1434 1120 1434 1120 1359 c 2,22,-1
 1120 75 l 2,23,24
 1120 0 1120 0 1050 0 c 2,25,-1
 160 0 l 2,26,27
 85 0 85 0 85 65 c 2,0,-1
EndSplineSet
EndChar

StartChar: uni0197
Encoding: 407 407 290
Width: 800
GlyphClass: 2
Flags: W
LayerCount: 2
Fore
SplineSet
121 622 m 2,0,1
 46 622 46 622 46 687 c 2,2,-1
 46 805 l 2,3,4
 46 870 46 870 121 870 c 2,5,-1
 254 870 l 1,6,-1
 254 1359 l 2,7,8
 254 1434 254 1434 324 1434 c 2,9,-1
 476 1434 l 2,10,11
 546 1434 546 1434 546 1359 c 2,12,-1
 546 870 l 1,13,-1
 679 870 l 2,14,15
 754 870 754 870 754 805 c 2,16,-1
 754 687 l 2,17,18
 754 622 754 622 679 622 c 2,19,-1
 546 622 l 1,20,-1
 546 75 l 2,21,22
 546 0 546 0 476 0 c 2,23,-1
 324 0 l 2,24,25
 254 0 254 0 254 75 c 2,26,-1
 254 622 l 1,27,-1
 121 622 l 2,0,1
EndSplineSet
EndChar

StartChar: uni01A7
Encoding: 423 423 292
Width: 1308
GlyphClass: 2
Flags: W
LayerCount: 2
Fore
SplineSet
102 396 m 0,0,1
 102 504 102 504 136.5 582 c 128,-1,2
 171 660 171 660 224 705 c 128,-1,3
 277 750 277 750 377 795 c 0,4,5
 449 827 449 827 534 853.5 c 128,-1,6
 619 880 619 880 727 915 c 0,7,8
 762 926 762 926 796 942.5 c 128,-1,9
 830 959 830 959 858 992.5 c 128,-1,10
 886 1026 886 1026 886 1080 c 0,11,12
 886 1136 886 1136 848 1174 c 128,-1,13
 810 1212 810 1212 760.5 1222 c 128,-1,14
 711 1232 711 1232 652 1232 c 0,15,16
 569 1232 569 1232 492.5 1195 c 128,-1,17
 416 1158 416 1158 372 1128 c 0,18,19
 303 1081 303 1081 262 1137 c 2,20,-1
 181 1246 l 2,21,22
 149 1289 149 1289 212 1342 c 0,23,24
 276 1396 276 1396 401.5 1432 c 128,-1,25
 527 1468 527 1468 645 1468 c 0,26,27
 764 1468 764 1468 881 1440 c 128,-1,28
 998 1412 998 1412 1088 1313 c 128,-1,29
 1178 1214 1178 1214 1178 1075 c 0,30,31
 1178 958 1178 958 1140 888 c 128,-1,32
 1102 818 1102 818 1033 762 c 128,-1,33
 964 706 964 706 881 674 c 0,34,35
 788 638 788 638 692.5 612.5 c 128,-1,36
 597 587 597 587 534 561 c 0,37,38
 498 546 498 546 464 524 c 128,-1,39
 430 502 430 502 415 468 c 128,-1,40
 400 434 400 434 400 389 c 0,41,42
 400 326 400 326 434 280 c 128,-1,43
 468 234 468 234 533 218 c 128,-1,44
 598 202 598 202 668 202 c 0,45,46
 768 202 768 202 858.5 243.5 c 128,-1,47
 949 285 949 285 1005 324 c 0,48,49
 1078 375 1078 375 1116 318 c 2,50,-1
 1193 202 l 2,51,52
 1225 154 1225 154 1163 107 c 0,53,54
 1065 33 1065 33 956 -0.5 c 128,-1,55
 847 -34 847 -34 673 -34 c 0,56,57
 555 -34 555 -34 430.5 -3.5 c 128,-1,58
 306 27 306 27 204 131.5 c 128,-1,59
 102 236 102 236 102 396 c 0,0,1
EndSplineSet
EndChar

StartChar: uni01A8
Encoding: 424 424 293
Width: 1005
GlyphClass: 2
Flags: W
LayerCount: 2
Fore
SplineSet
70 313 m 0,0,1
 70 386 70 386 92 443 c 128,-1,2
 114 500 114 500 162 537 c 128,-1,3
 210 574 210 574 261 594 c 0,4,5
 320 617 320 617 377 633.5 c 128,-1,6
 434 650 434 650 490 668 c 0,7,8
 517 677 517 677 546.5 687 c 128,-1,9
 576 697 576 697 598.5 718.5 c 128,-1,10
 621 740 621 740 621 778 c 0,11,12
 621 814 621 814 596.5 836 c 128,-1,13
 572 858 572 858 537 866 c 128,-1,14
 502 874 502 874 464 874 c 0,15,16
 408 874 408 874 362.5 858 c 128,-1,17
 317 842 317 842 270 816 c 0,18,19
 208 782 208 782 180 822 c 2,20,-1
 119 911 l 2,21,22
 89 954 89 954 149 992 c 0,23,24
 187 1016 187 1016 276 1043 c 128,-1,25
 365 1070 365 1070 459 1070 c 0,26,27
 598 1070 598 1070 691 1041 c 128,-1,28
 784 1012 784 1012 842.5 936 c 128,-1,29
 901 860 901 860 901 759 c 0,30,31
 901 684 901 684 877.5 633 c 128,-1,32
 854 582 854 582 803.5 540.5 c 128,-1,33
 753 499 753 499 700 476 c 0,34,35
 636 448 636 448 566.5 427 c 128,-1,36
 497 406 497 406 460 397 c 0,37,38
 432 390 432 390 407 379 c 128,-1,39
 382 368 382 368 366 347 c 128,-1,40
 350 326 350 326 350 296 c 0,41,42
 350 246 350 246 377 220 c 128,-1,43
 404 194 404 194 443 185 c 128,-1,44
 482 176 482 176 527 176 c 0,45,46
 591 176 591 176 668.5 194 c 128,-1,47
 746 212 746 212 803 250 c 256,48,49
 860 288 860 288 887 238 c 2,50,-1
 938 145 l 2,51,52
 960 105 960 105 911 70 c 0,53,54
 841 20 841 20 742 0 c 128,-1,55
 643 -20 643 -20 502 -20 c 0,56,57
 376 -20 376 -20 281 15 c 128,-1,58
 186 50 186 50 128 133 c 128,-1,59
 70 216 70 216 70 313 c 0,0,1
EndSplineSet
EndChar

StartChar: uni0237
Encoding: 567 567 352
Width: 562
GlyphClass: 2
Flags: W
AnchorPoint: "Anchor-3" 286 1070 basechar 0
AnchorPoint: "Anchor-2" 140 -400 basechar 0
LayerCount: 2
Fore
SplineSet
-81 -409 m 0,0,1
 -119 -402 -119 -402 -110 -357 c 2,2,-1
 -88 -247 l 2,3,4
 -79 -201 -79 -201 -37 -217 c 0,5,6
 -19 -224 -19 -224 35 -224 c 0,7,8
 98 -224 98 -224 122 -158 c 128,-1,9
 146 -92 146 -92 146 26 c 2,10,-1
 146 990 l 2,11,12
 146 1050 146 1050 206 1050 c 2,13,-1
 366 1050 l 2,14,15
 426 1050 426 1050 426 990 c 2,16,-1
 426 -4 l 2,17,18
 426 -252 426 -252 329 -336 c 128,-1,19
 232 -420 232 -420 70 -420 c 0,20,21
 -20 -420 -20 -420 -81 -409 c 0,0,1
EndSplineSet
EndChar

StartChar: uni0244
Encoding: 580 580 353
Width: 1610
GlyphClass: 2
Flags: W
LayerCount: 2
Fore
SplineSet
546 607 m 2,0,1
 546 337 546 337 625.5 269.5 c 128,-1,2
 705 202 705 202 805 202 c 256,3,4
 905 202 905 202 984.5 269.5 c 128,-1,5
 1064 337 1064 337 1064 607 c 2,6,-1
 1064 622 l 1,7,-1
 546 622 l 1,8,-1
 546 607 l 2,0,1
121 622 m 2,9,10
 46 622 46 622 46 687 c 2,11,-1
 46 805 l 2,12,13
 46 870 46 870 121 870 c 2,14,-1
 254 870 l 1,15,-1
 254 1379 l 2,16,17
 254 1434 254 1434 324 1434 c 2,18,-1
 476 1434 l 2,19,20
 546 1434 546 1434 546 1379 c 2,21,-1
 546 870 l 1,22,-1
 1064 870 l 1,23,-1
 1064 1379 l 2,24,25
 1064 1434 1064 1434 1134 1434 c 2,26,-1
 1286 1434 l 2,27,28
 1356 1434 1356 1434 1356 1379 c 2,29,-1
 1356 870 l 1,30,-1
 1489 870 l 2,31,32
 1564 870 1564 870 1564 805 c 2,33,-1
 1564 687 l 2,34,35
 1564 622 1564 622 1489 622 c 2,36,-1
 1356 622 l 1,37,-1
 1356 597 l 2,38,39
 1356 247 1356 247 1208 106.5 c 128,-1,40
 1060 -34 1060 -34 805 -34 c 256,41,42
 550 -34 550 -34 402 106.5 c 128,-1,43
 254 247 254 247 254 597 c 2,44,-1
 254 622 l 1,45,-1
 121 622 l 2,9,10
EndSplineSet
EndChar

StartChar: uni0245
Encoding: 581 581 354
Width: 1370
GlyphClass: 2
Flags: W
LayerCount: 2
Fore
SplineSet
43 66 m 2,0,-1
 521 1353 l 2,1,2
 551 1434 551 1434 615 1434 c 2,3,-1
 755 1434 l 2,4,5
 819 1434 819 1434 849 1353 c 2,6,-1
 1327 66 l 2,7,8
 1352 0 1352 0 1280 0 c 2,9,-1
 1121 0 l 2,10,11
 1054 0 1054 0 1029 69 c 2,12,-1
 723 904 l 2,13,14
 700 968 700 968 696 989.5 c 128,-1,15
 692 1011 692 1011 687 1061 c 1,16,-1
 683 1061 l 1,17,18
 678 1011 678 1011 674 989.5 c 128,-1,19
 670 968 670 968 647 904 c 2,20,-1
 341 69 l 2,21,22
 316 0 316 0 249 0 c 2,23,-1
 90 0 l 2,24,25
 18 0 18 0 43 66 c 2,0,-1
EndSplineSet
EndChar

StartChar: uni0250
Encoding: 592 592 355
Width: 1123
GlyphClass: 2
Flags: W
AnchorPoint: "Anchor-3" 590 1070 basechar 0
AnchorPoint: "Anchor-2" 590 0 basechar 0
LayerCount: 2
Fore
SplineSet
137 359 m 2,0,-1
 137 990 l 2,1,2
 137 1050 137 1050 197 1050 c 2,3,-1
 361 1050 l 2,4,5
 415 1050 415 1050 415 990 c 2,6,-1
 415 960 l 1,7,-1
 417 960 l 1,8,9
 476 1017 476 1017 558.5 1043.5 c 128,-1,10
 641 1070 641 1070 710 1070 c 0,11,12
 874 1070 874 1070 959 989.5 c 128,-1,13
 1044 909 1044 909 1044 770 c 0,14,15
 1044 570 1044 570 853 480 c 128,-1,16
 662 390 662 390 417 384 c 1,17,-1
 417 344 l 2,18,19
 417 252 417 252 463 214 c 128,-1,20
 509 176 509 176 591 176 c 0,21,22
 660 176 660 176 725 208 c 128,-1,23
 790 240 790 240 829 274 c 0,24,25
 875 314 875 314 905 278 c 2,26,-1
 988 176 l 2,27,28
 1019 138 1019 138 973 98 c 0,29,30
 920 51 920 51 819.5 15.5 c 128,-1,31
 719 -20 719 -20 568 -20 c 0,32,33
 360 -20 360 -20 248.5 76 c 128,-1,34
 137 172 137 172 137 359 c 2,0,-1
417 577 m 1,35,36
 584 591 584 591 666 640.5 c 128,-1,37
 748 690 748 690 748 764 c 0,38,39
 748 837 748 837 702 855.5 c 128,-1,40
 656 874 656 874 623 874 c 0,41,42
 572 874 572 874 524 860 c 128,-1,43
 476 846 476 846 417 794 c 1,44,-1
 417 577 l 1,35,36
EndSplineSet
EndChar

StartChar: uni0254
Encoding: 596 596 356
Width: 1086
GlyphClass: 2
Flags: W
AnchorPoint: "Anchor-3" 485 1070 basechar 0
AnchorPoint: "Anchor-2" 485 0 basechar 0
LayerCount: 2
Fore
SplineSet
82 900 m 0,0,1
 121 958 121 958 214.5 1014 c 128,-1,2
 308 1070 308 1070 485 1070 c 0,3,4
 750 1070 750 1070 878 925 c 128,-1,5
 1006 780 1006 780 1006 525 c 256,6,7
 1006 270 1006 270 878 125 c 128,-1,8
 750 -20 750 -20 485 -20 c 0,9,10
 330 -20 330 -20 244 21 c 128,-1,11
 158 62 158 62 106 141 c 0,12,13
 75 188 75 188 116 215 c 2,14,-1
 222 285 l 2,15,16
 267 315 267 315 301 262 c 0,17,18
 318 236 318 236 366 206 c 128,-1,19
 414 176 414 176 485 176 c 0,20,21
 598 176 598 176 654 255.5 c 128,-1,22
 710 335 710 335 710 525 c 256,23,24
 710 715 710 715 654 794.5 c 128,-1,25
 598 874 598 874 485 874 c 0,26,27
 404 874 404 874 354 840 c 128,-1,28
 304 806 304 806 260 752 c 0,29,30
 222 706 222 706 180 739 c 2,31,-1
 87 812 l 2,32,33
 45 845 45 845 82 900 c 0,0,1
EndSplineSet
EndChar

StartChar: uni0258
Encoding: 600 600 357
Width: 1174
GlyphClass: 2
Flags: W
AnchorPoint: "Anchor-3" 610 1070 basechar 0
AnchorPoint: "Anchor-2" 563 0 basechar 0
LayerCount: 2
Fore
SplineSet
82 488 m 0,0,1
 82 794 82 794 212 932 c 128,-1,2
 342 1070 342 1070 610 1070 c 0,3,4
 841 1070 841 1070 967.5 924 c 128,-1,5
 1094 778 1094 778 1094 525 c 256,6,7
 1094 272 1094 272 972 126 c 128,-1,8
 850 -20 850 -20 563 -20 c 0,9,10
 386 -20 386 -20 304 16 c 128,-1,11
 222 52 222 52 161 125 c 0,12,13
 119 175 119 175 178 211 c 2,14,-1
 278 272 l 2,15,16
 328 302 328 302 362 258 c 0,17,18
 392 220 392 220 436 198 c 128,-1,19
 480 176 480 176 563 176 c 0,20,21
 650 176 650 176 716 219 c 128,-1,22
 782 262 782 262 798 428 c 1,23,-1
 138 428 l 2,24,25
 82 428 82 428 82 488 c 0,0,1
362 628 m 1,26,-1
 797 628 l 1,27,28
 792 742 792 742 737 807.5 c 128,-1,29
 682 873 682 873 588 873 c 0,30,31
 470 873 470 873 416 804.5 c 128,-1,32
 362 736 362 736 362 628 c 1,26,-1
EndSplineSet
EndChar

StartChar: uni0259
Encoding: 601 601 358
Width: 1174
GlyphClass: 2
Flags: W
AnchorPoint: "Anchor-3" 563 1070 basechar 0
AnchorPoint: "Anchor-2" 610 0 basechar 0
LayerCount: 2
Fore
SplineSet
82 562 m 0,0,1
 82 622 82 622 138 622 c 2,2,-1
 798 622 l 1,3,4
 782 788 782 788 716 831 c 128,-1,5
 650 874 650 874 563 874 c 0,6,7
 480 874 480 874 436 852 c 128,-1,8
 392 830 392 830 362 792 c 0,9,10
 328 748 328 748 278 778 c 2,11,-1
 178 839 l 2,12,13
 119 875 119 875 161 925 c 0,14,15
 222 998 222 998 304 1034 c 128,-1,16
 386 1070 386 1070 563 1070 c 0,17,18
 850 1070 850 1070 972 924 c 128,-1,19
 1094 778 1094 778 1094 525 c 256,20,21
 1094 272 1094 272 967.5 126 c 128,-1,22
 841 -20 841 -20 610 -20 c 0,23,24
 342 -20 342 -20 212 118 c 128,-1,25
 82 256 82 256 82 562 c 0,0,1
362 422 m 1,26,27
 362 314 362 314 416 245.5 c 128,-1,28
 470 177 470 177 588 177 c 0,29,30
 682 177 682 177 737 242.5 c 128,-1,31
 792 308 792 308 797 422 c 1,32,-1
 362 422 l 1,26,27
EndSplineSet
EndChar

StartChar: uni0265
Encoding: 613 613 359
Width: 1194
GlyphClass: 2
Flags: W
AnchorPoint: "Anchor-3" 596 1070 basechar 0
AnchorPoint: "Anchor-2" 596 -400 basechar 0
LayerCount: 2
Fore
SplineSet
1058 990 m 2,0,1
 1058 990 1058 990 1056 -340 c 0,2,3
 1056 -400 1056 -400 996 -400 c 2,4,-1
 836 -400 l 2,5,6
 776 -400 776 -400 776 -340 c 2,7,-1
 776 38 l 2,8,9
 776 78 776 78 780 118 c 1,10,-1
 776 118 l 1,11,12
 730 39 730 39 659 9.5 c 128,-1,13
 588 -20 588 -20 491 -20 c 0,14,15
 338 -20 338 -20 236 78 c 128,-1,16
 134 176 134 176 134 436 c 2,17,-1
 134 990 l 2,18,19
 134 1050 134 1050 194 1050 c 2,20,-1
 354 1050 l 2,21,22
 414 1050 414 1050 414 990 c 2,23,-1
 414 508 l 2,24,25
 414 290 414 290 444 233 c 128,-1,26
 474 176 474 176 570 176 c 0,27,28
 672 176 672 176 725 257.5 c 128,-1,29
 778 339 778 339 778 596 c 2,30,-1
 778 990 l 2,31,32
 778 1050 778 1050 838 1050 c 2,33,-1
 998 1050 l 2,34,35
 1058 1050 1058 1050 1058 990 c 2,0,1
EndSplineSet
EndChar

StartChar: uni0268
Encoding: 616 616 360
Width: 728
GlyphClass: 2
Flags: W
AnchorPoint: "Anchor-2" 364 0 basechar 0
LayerCount: 2
Fore
SplineSet
107 448 m 2,0,1
 47 448 47 448 47 498 c 2,2,-1
 47 598 l 2,3,4
 47 648 47 648 107 648 c 2,5,-1
 224 648 l 1,6,-1
 224 990 l 2,7,8
 224 1050 224 1050 284 1050 c 2,9,-1
 444 1050 l 2,10,11
 504 1050 504 1050 504 990 c 2,12,-1
 504 648 l 1,13,-1
 621 648 l 2,14,15
 681 648 681 648 681 598 c 2,16,-1
 681 498 l 2,17,18
 681 448 681 448 621 448 c 2,19,-1
 504 448 l 1,20,-1
 504 60 l 2,21,22
 504 0 504 0 444 0 c 2,23,-1
 284 0 l 2,24,25
 224 0 224 0 224 60 c 2,26,-1
 224 448 l 1,27,-1
 107 448 l 2,0,1
284 1204 m 2,28,29
 224 1204 224 1204 224 1264 c 2,30,-1
 224 1392 l 2,31,32
 224 1452 224 1452 284 1452 c 2,33,-1
 444 1452 l 2,34,35
 504 1452 504 1452 504 1392 c 2,36,-1
 504 1264 l 2,37,38
 504 1204 504 1204 444 1204 c 2,39,-1
 284 1204 l 2,28,29
EndSplineSet
EndChar

StartChar: uni026A
Encoding: 618 618 361
Width: 748
GlyphClass: 2
Flags: W
AnchorPoint: "Anchor-3" 374 1070 basechar 0
AnchorPoint: "Anchor-2" 374 0 basechar 0
LayerCount: 2
Fore
SplineSet
152 0 m 2,0,1
 92 0 92 0 92 50 c 2,2,-1
 92 150 l 2,3,4
 92 200 92 200 152 200 c 2,5,-1
 234 200 l 1,6,-1
 234 850 l 1,7,-1
 152 850 l 2,8,9
 92 850 92 850 92 900 c 2,10,-1
 92 1000 l 2,11,12
 92 1050 92 1050 152 1050 c 2,13,-1
 596 1050 l 2,14,15
 656 1050 656 1050 656 1000 c 2,16,-1
 656 900 l 2,17,18
 656 850 656 850 596 850 c 2,19,-1
 514 850 l 1,20,-1
 514 200 l 1,21,-1
 596 200 l 2,22,23
 656 200 656 200 656 150 c 2,24,-1
 656 50 l 2,25,26
 656 0 656 0 596 0 c 2,27,-1
 152 0 l 2,0,1
EndSplineSet
EndChar

StartChar: uni026F
Encoding: 623 623 362
Width: 1750
GlyphClass: 2
Flags: W
AnchorPoint: "Anchor-3" 874 1070 basechar 0
AnchorPoint: "Anchor-2" 874 0 basechar 0
LayerCount: 2
Fore
SplineSet
134 436 m 2,0,-1
 134 990 l 2,1,2
 134 1050 134 1050 194 1050 c 2,3,-1
 354 1050 l 2,4,5
 414 1050 414 1050 414 990 c 2,6,-1
 414 508 l 2,7,8
 414 290 414 290 443.5 233 c 128,-1,9
 473 176 473 176 548 176 c 0,10,11
 618 176 618 176 676 258 c 128,-1,12
 734 340 734 340 734 596 c 2,13,-1
 734 990 l 2,14,15
 734 1050 734 1050 794 1050 c 2,16,-1
 954 1050 l 2,17,18
 1014 1050 1014 1050 1014 990 c 2,19,-1
 1014 508 l 2,20,21
 1014 290 1014 290 1043.5 233 c 128,-1,22
 1073 176 1073 176 1148 176 c 0,23,24
 1218 176 1218 176 1276 257.5 c 128,-1,25
 1334 339 1334 339 1334 596 c 2,26,-1
 1334 990 l 2,27,28
 1334 1050 1334 1050 1394 1050 c 2,29,-1
 1554 1050 l 2,30,31
 1614 1050 1614 1050 1614 990 c 2,32,-1
 1614 60 l 2,33,34
 1614 0 1614 0 1554 0 c 2,35,-1
 1396 0 l 2,36,37
 1336 0 1336 0 1336 60 c 2,38,-1
 1336 118 l 1,39,-1
 1332 118 l 1,40,41
 1303 54 1303 54 1234 17 c 128,-1,42
 1165 -20 1165 -20 1105 -20 c 0,43,44
 985 -20 985 -20 918.5 36 c 128,-1,45
 852 92 852 92 827 161 c 1,46,-1
 823 161 l 1,47,48
 736 48 736 48 665.5 14 c 128,-1,49
 595 -20 595 -20 485 -20 c 0,50,51
 337 -20 337 -20 235.5 78 c 128,-1,52
 134 176 134 176 134 436 c 2,0,-1
EndSplineSet
EndChar

StartChar: uni0271
Encoding: 625 625 363
Width: 1750
GlyphClass: 2
Flags: W
AnchorPoint: "Anchor-3" 876 1070 basechar 0
AnchorPoint: "Anchor-2" 876 -400 basechar 0
LayerCount: 2
Fore
SplineSet
196 0 m 2,0,1
 136 0 136 0 136 60 c 2,2,-1
 136 990 l 2,3,4
 136 1050 136 1050 196 1050 c 2,5,-1
 354 1050 l 2,6,7
 414 1050 414 1050 414 990 c 2,8,-1
 414 932 l 1,9,-1
 418 932 l 1,10,11
 447 996 447 996 516 1033 c 128,-1,12
 585 1070 585 1070 645 1070 c 0,13,14
 765 1070 765 1070 831.5 1014 c 128,-1,15
 898 958 898 958 923 889 c 1,16,-1
 927 889 l 1,17,18
 1014 1002 1014 1002 1084.5 1036 c 128,-1,19
 1155 1070 1155 1070 1265 1070 c 0,20,21
 1413 1070 1413 1070 1514.5 972 c 128,-1,22
 1616 874 1616 874 1616 614 c 2,23,-1
 1616 -4 l 2,24,25
 1616 -252 1616 -252 1519 -336 c 128,-1,26
 1422 -420 1422 -420 1260 -420 c 0,27,28
 1170 -420 1170 -420 1109 -409 c 0,29,30
 1071 -402 1071 -402 1080 -357 c 2,31,-1
 1102 -247 l 2,32,33
 1111 -201 1111 -201 1153 -217 c 0,34,35
 1171 -224 1171 -224 1225 -224 c 0,36,37
 1288 -224 1288 -224 1312 -158 c 128,-1,38
 1336 -92 1336 -92 1336 26 c 2,39,-1
 1336 542 l 2,40,41
 1336 760 1336 760 1306.5 817 c 128,-1,42
 1277 874 1277 874 1202 874 c 0,43,44
 1132 874 1132 874 1074 792 c 128,-1,45
 1016 710 1016 710 1016 454 c 2,46,-1
 1016 60 l 2,47,48
 1016 0 1016 0 956 0 c 2,49,-1
 796 0 l 2,50,51
 736 0 736 0 736 60 c 2,52,-1
 736 542 l 2,53,54
 736 760 736 760 706.5 817 c 128,-1,55
 677 874 677 874 602 874 c 0,56,57
 532 874 532 874 474 792.5 c 128,-1,58
 416 711 416 711 416 454 c 2,59,-1
 416 60 l 2,60,61
 416 0 416 0 356 0 c 2,62,-1
 196 0 l 2,0,1
EndSplineSet
EndChar

StartChar: uni0279
Encoding: 633 633 365
Width: 786
GlyphClass: 2
Flags: W
AnchorPoint: "Anchor-3" 332 1070 basechar 0
AnchorPoint: "Anchor-2" 332 0 basechar 0
LayerCount: 2
Fore
SplineSet
16 42 m 2,0,-1
 44 161 l 2,1,2
 53 201 53 201 98 185 c 0,3,4
 124 176 124 176 148 176 c 0,5,6
 244 176 244 176 307 291 c 128,-1,7
 370 406 370 406 370 626 c 2,8,-1
 370 990 l 2,9,10
 370 1050 370 1050 430 1050 c 2,11,-1
 590 1050 l 2,12,13
 650 1050 650 1050 650 990 c 2,14,-1
 650 60 l 2,15,16
 650 0 650 0 590 0 c 2,17,-1
 432 0 l 2,18,19
 372 0 372 0 372 60 c 2,20,-1
 372 142 l 1,21,-1
 368 142 l 1,22,23
 342 78 342 78 281 29 c 128,-1,24
 220 -20 220 -20 137 -20 c 0,25,26
 80 -20 80 -20 43 -6 c 0,27,28
 8 7 8 7 16 42 c 2,0,-1
EndSplineSet
EndChar

StartChar: uni0283
Encoding: 643 643 366
Width: 572
GlyphClass: 2
Flags: W
AnchorPoint: "Anchor-3" 307 1476 basechar 0
AnchorPoint: "Anchor-2" 307 -400 basechar 0
LayerCount: 2
Fore
SplineSet
-81 -409 m 0,0,1
 -119 -402 -119 -402 -110 -357 c 2,2,-1
 -88 -247 l 2,3,4
 -79 -201 -79 -201 -37 -217 c 0,5,6
 -19 -224 -19 -224 35 -224 c 0,7,8
 98 -224 98 -224 122 -158 c 128,-1,9
 146 -92 146 -92 146 26 c 2,10,-1
 146 1190 l 2,11,12
 146 1374 146 1374 252.5 1435 c 128,-1,13
 359 1496 359 1496 504 1496 c 0,14,15
 573 1496 573 1496 616.5 1488 c 128,-1,16
 660 1480 660 1480 698 1468 c 0,17,18
 734 1456 734 1456 724 1418 c 2,19,-1
 694 1305 l 2,20,21
 685 1272 685 1272 648 1285 c 0,22,23
 626 1293 626 1293 592.5 1296.5 c 128,-1,24
 559 1300 559 1300 536 1300 c 0,25,26
 463 1300 463 1300 444.5 1261 c 128,-1,27
 426 1222 426 1222 426 1090 c 2,28,-1
 426 -4 l 2,29,30
 426 -252 426 -252 329 -336 c 128,-1,31
 232 -420 232 -420 70 -420 c 0,32,33
 -20 -420 -20 -420 -81 -409 c 0,0,1
EndSplineSet
EndChar

StartChar: uni0287
Encoding: 647 647 367
Width: 798
GlyphClass: 2
Flags: W
AnchorPoint: "Anchor-3" 403 1070 basechar 0
AnchorPoint: "Anchor-2" 403 -400 basechar 0
LayerCount: 2
Fore
SplineSet
52 993 m 2,0,1
 43 1027 43 1027 78 1043 c 0,2,3
 111 1058 111 1058 168.5 1070.5 c 128,-1,4
 226 1083 226 1083 284 1083 c 0,5,6
 427 1083 427 1083 528 1024 c 128,-1,7
 629 965 629 965 629 781 c 2,8,-1
 629 200 l 1,9,-1
 697 200 l 2,10,11
 756 200 756 200 756 150 c 2,12,-1
 756 50 l 2,13,14
 756 0 756 0 697 0 c 2,15,-1
 629 0 l 1,16,-1
 629 -35 l 2,17,18
 629 -80 629 -80 608 -117 c 2,19,-1
 531 -252 l 2,20,21
 509 -290 509 -290 479 -290 c 2,22,-1
 409 -290 l 2,23,24
 349 -290 349 -290 349 -230 c 2,25,-1
 349 0 l 1,26,-1
 187 0 l 2,27,28
 128 0 128 0 128 50 c 2,29,-1
 128 150 l 2,30,31
 128 200 128 200 187 200 c 2,32,-1
 349 200 l 1,33,-1
 349 696 l 2,34,35
 349 798 349 798 334.5 842.5 c 128,-1,36
 320 887 320 887 259 887 c 0,37,38
 228 887 228 887 189 876.5 c 128,-1,39
 150 866 150 866 128 856 c 0,40,41
 93 840 93 840 82 879 c 2,42,-1
 52 993 l 2,0,1
EndSplineSet
EndChar

StartChar: uni0289
Encoding: 649 649 368
Width: 1372
GlyphClass: 2
Flags: W
AnchorPoint: "Anchor-3" 686 1070 basechar 0
AnchorPoint: "Anchor-2" 686 0 basechar 0
LayerCount: 2
Fore
SplineSet
107 448 m 2,0,1
 47 448 47 448 47 498 c 2,2,-1
 47 598 l 2,3,4
 47 648 47 648 107 648 c 2,5,-1
 224 648 l 1,6,-1
 224 990 l 2,7,8
 224 1050 224 1050 284 1050 c 2,9,-1
 444 1050 l 2,10,11
 504 1050 504 1050 504 990 c 2,12,-1
 504 648 l 1,13,-1
 868 648 l 1,14,-1
 868 990 l 2,15,16
 868 1050 868 1050 928 1050 c 2,17,-1
 1088 1050 l 2,18,19
 1148 1050 1148 1050 1148 990 c 2,20,-1
 1148 648 l 1,21,-1
 1265 648 l 2,22,23
 1325 648 1325 648 1325 598 c 2,24,-1
 1325 498 l 2,25,26
 1325 448 1325 448 1265 448 c 2,27,-1
 1148 448 l 1,28,-1
 1148 60 l 2,29,30
 1148 0 1148 0 1088 0 c 2,31,-1
 930 0 l 2,32,33
 870 0 870 0 870 60 c 2,34,-1
 870 118 l 1,35,-1
 866 118 l 1,36,37
 820 39 820 39 749 9.5 c 128,-1,38
 678 -20 678 -20 581 -20 c 0,39,40
 428 -20 428 -20 326 78 c 128,-1,41
 224 176 224 176 224 436 c 2,42,-1
 224 448 l 1,43,-1
 107 448 l 2,0,1
505 435 m 2,44,45
 505 298 505 298 534 237 c 128,-1,46
 563 176 563 176 660 176 c 0,47,48
 754 176 754 176 804.5 243.5 c 128,-1,49
 855 311 855 311 862 448 c 1,50,-1
 505 448 l 1,51,-1
 505 435 l 2,44,45
EndSplineSet
EndChar

StartChar: uni028C
Encoding: 652 652 369
Width: 1008
GlyphClass: 2
Flags: W
AnchorPoint: "Anchor-3" 504 1070 basechar 0
AnchorPoint: "Anchor-2" 504 0 basechar 0
LayerCount: 2
Fore
SplineSet
42 78 m 2,0,-1
 332 983 l 2,1,2
 353 1050 353 1050 405 1050 c 2,3,-1
 603 1050 l 2,4,5
 655 1050 655 1050 676 983 c 2,6,-1
 966 78 l 2,7,8
 991 0 991 0 933 0 c 2,9,-1
 754 0 l 2,10,11
 707 0 707 0 694 51 c 2,12,-1
 539 637 l 2,13,14
 526 686 526 686 517.5 734 c 128,-1,15
 509 782 509 782 507 812 c 1,16,-1
 501 812 l 1,17,18
 499 782 499 782 490.5 734 c 128,-1,19
 482 686 482 686 469 637 c 2,20,-1
 314 51 l 2,21,22
 301 0 301 0 254 0 c 2,23,-1
 75 0 l 2,24,25
 17 0 17 0 42 78 c 2,0,-1
EndSplineSet
EndChar

StartChar: uni028D
Encoding: 653 653 370
Width: 1604
GlyphClass: 2
Flags: W
AnchorPoint: "Anchor-3" 802 1070 basechar 0
AnchorPoint: "Anchor-2" 802 0 basechar 0
LayerCount: 2
Fore
SplineSet
42 78 m 2,0,-1
 302 983 l 2,1,2
 321 1050 321 1050 375 1050 c 2,3,-1
 556 1050 l 2,4,5
 613 1050 613 1050 629 983 c 2,6,-1
 774 390 l 2,7,8
 787 339 787 339 792.5 308 c 128,-1,9
 798 277 798 277 800 239 c 1,10,-1
 804 239 l 1,11,12
 806 277 806 277 811.5 308 c 128,-1,13
 817 339 817 339 830 390 c 2,14,-1
 975 983 l 2,15,16
 991 1050 991 1050 1048 1050 c 2,17,-1
 1229 1050 l 2,18,19
 1283 1050 1283 1050 1302 983 c 2,20,-1
 1562 78 l 2,21,22
 1584 0 1584 0 1529 0 c 2,23,-1
 1360 0 l 2,24,25
 1312 0 1312 0 1300 51 c 2,26,-1
 1165 637 l 2,27,28
 1153 688 1153 688 1144 735 c 128,-1,29
 1135 782 1135 782 1133 812 c 1,30,-1
 1127 812 l 1,31,32
 1125 782 1125 782 1116 733.5 c 128,-1,33
 1107 685 1107 685 1095 637 c 2,34,-1
 953 51 l 2,35,36
 941 0 941 0 893 0 c 2,37,-1
 711 0 l 2,38,39
 663 0 663 0 651 51 c 2,40,-1
 509 637 l 2,41,42
 497 685 497 685 488 733.5 c 128,-1,43
 479 782 479 782 477 812 c 1,44,-1
 471 812 l 1,45,46
 469 782 469 782 460 735 c 128,-1,47
 451 688 451 688 439 637 c 2,48,-1
 304 51 l 2,49,50
 292 0 292 0 244 0 c 2,51,-1
 75 0 l 2,52,53
 20 0 20 0 42 78 c 2,0,-1
EndSplineSet
EndChar

StartChar: uni028E
Encoding: 654 654 371
Width: 990
GlyphClass: 2
Flags: W
AnchorPoint: "Anchor-3" 486 1476 basechar 0
AnchorPoint: "Anchor-2" 486 0 basechar 0
LayerCount: 2
Fore
SplineSet
26 78 m 2,0,-1
 363 1092 l 2,1,2
 422 1270 422 1270 508 1370 c 128,-1,3
 594 1470 594 1470 747 1470 c 0,4,5
 831 1470 831 1470 897 1456 c 0,6,7
 935 1448 935 1448 926 1404 c 2,8,-1
 904 1294 l 2,9,10
 895 1251 895 1251 853 1264 c 0,11,12
 822 1274 822 1274 795 1274 c 0,13,14
 714 1274 714 1274 671.5 1197 c 128,-1,15
 629 1120 629 1120 615 1065 c 1,16,-1
 612 1050 l 1,17,-1
 946 78 l 2,18,19
 973 0 973 0 913 0 c 2,20,-1
 734 0 l 2,21,22
 688 0 688 0 674 51 c 2,23,-1
 523 610 l 2,24,25
 512 649 512 649 503.5 710.5 c 128,-1,26
 495 772 495 772 495 789 c 1,27,-1
 489 789 l 1,28,29
 477 736 477 736 471.5 704.5 c 128,-1,30
 466 673 466 673 441 582 c 2,31,-1
 298 51 l 2,32,33
 284 0 284 0 238 0 c 2,34,-1
 59 0 l 2,35,36
 0 0 0 0 26 78 c 2,0,-1
EndSplineSet
EndChar

StartChar: uni0292
Encoding: 658 658 372
Width: 1025
GlyphClass: 2
Flags: W
AnchorPoint: "Anchor-3" 495 1070 basechar 0
AnchorPoint: "Anchor-2" 546 -400 basechar 0
LayerCount: 2
Fore
SplineSet
81 -292 m 0,0,1
 40 -245 40 -245 81 -203 c 2,2,-1
 156 -126 l 2,3,4
 197 -83 197 -83 244 -130 c 0,5,6
 288 -174 288 -174 334.5 -199 c 128,-1,7
 381 -224 381 -224 467 -224 c 0,8,9
 558 -224 558 -224 596 -155.5 c 128,-1,10
 634 -87 634 -87 634 10 c 0,11,12
 634 120 634 120 578 186.5 c 128,-1,13
 522 253 522 253 374 253 c 2,14,-1
 281 253 l 2,15,16
 221 253 221 253 221 303 c 2,17,-1
 221 379 l 2,18,19
 221 434 221 434 262 487 c 2,20,-1
 541 850 l 1,21,-1
 541 854 l 1,22,23
 501 850 501 850 461 850 c 2,24,-1
 140 850 l 2,25,26
 80 850 80 850 80 900 c 2,27,-1
 80 1000 l 2,28,29
 80 1050 80 1050 140 1050 c 2,30,-1
 828 1050 l 2,31,32
 888 1050 888 1050 888 1000 c 2,33,-1
 888 930 l 2,34,35
 888 878 888 878 845 822 c 2,36,-1
 561 453 l 1,37,-1
 561 449 l 1,38,39
 750 411 750 411 840 295.5 c 128,-1,40
 930 180 930 180 930 14 c 0,41,42
 930 -195 930 -195 816 -307.5 c 128,-1,43
 702 -420 702 -420 476 -420 c 0,44,45
 321 -420 321 -420 228 -387 c 128,-1,46
 135 -354 135 -354 81 -292 c 0,0,1
EndSplineSet
EndChar

StartChar: uni029E
Encoding: 670 670 375
Width: 1115
GlyphClass: 2
Flags: W
AnchorPoint: "Anchor-3" 512 1070 basechar 0
AnchorPoint: "Anchor-2" 512 -400 basechar 0
LayerCount: 2
Fore
SplineSet
62 976 m 2,0,1
 14 1050 14 1050 93 1050 c 2,2,-1
 264 1050 l 2,3,4
 314 1050 314 1050 346 998 c 2,5,-1
 573 633 l 1,6,-1
 700 786 l 1,7,-1
 700 990 l 2,8,9
 700 1050 700 1050 760 1050 c 2,10,-1
 920 1050 l 2,11,12
 980 1050 980 1050 980 990 c 2,13,-1
 980 -366 l 2,14,15
 980 -426 980 -426 920 -426 c 2,16,-1
 760 -426 l 2,17,18
 700 -426 700 -426 700 -366 c 2,19,-1
 700 369 l 2,20,21
 700 409 700 409 704 449 c 1,22,-1
 700 449 l 1,23,-1
 383 41 l 2,24,25
 351 0 351 0 305 0 c 2,26,-1
 141 0 l 2,27,28
 49 0 49 0 110 74 c 2,29,-1
 412 439 l 1,30,-1
 62 976 l 2,0,1
EndSplineSet
EndChar

StartChar: uni02B0
Encoding: 688 688 376
Width: 720
GlyphClass: 2
Flags: W
LayerCount: 2
Fore
SplineSet
82 736 m 2,0,-1
 82 1550 l 2,1,2
 82 1586 82 1586 118 1586 c 2,3,-1
 214 1586 l 2,4,5
 250 1586 250 1586 250 1550 c 2,6,-1
 250 1307 l 2,7,8
 250 1283 250 1283 247 1259 c 1,9,-1
 251 1259 l 1,10,11
 299 1342 299 1342 424 1342 c 0,12,13
 518 1342 518 1342 579 1283 c 128,-1,14
 640 1224 640 1224 640 1068 c 2,15,-1
 640 736 l 2,16,17
 640 700 640 700 604 700 c 2,18,-1
 508 700 l 2,19,20
 472 700 472 700 472 736 c 2,21,-1
 472 1025 l 2,22,23
 472 1156 472 1156 454 1190 c 128,-1,24
 436 1224 436 1224 376 1224 c 0,25,26
 313 1224 313 1224 281.5 1175.5 c 128,-1,27
 250 1127 250 1127 250 972 c 2,28,-1
 250 736 l 2,29,30
 250 700 250 700 214 700 c 2,31,-1
 118 700 l 2,32,33
 82 700 82 700 82 736 c 2,0,-1
EndSplineSet
EndChar

StartChar: uni02B2
Encoding: 690 690 377
Width: 337
GlyphClass: 2
Flags: W
LayerCount: 2
Fore
SplineSet
-66 486 m 2,0,-1
 -53 552 l 2,1,2
 -48 580 -48 580 -22 570 c 0,3,4
 -11 566 -11 566 21 566 c 0,5,6
 59 566 59 566 73.5 605.5 c 128,-1,7
 88 645 88 645 88 716 c 2,8,-1
 88 1294 l 2,9,10
 88 1330 88 1330 124 1330 c 2,11,-1
 220 1330 l 2,12,13
 256 1330 256 1330 256 1294 c 2,14,-1
 256 698 l 2,15,16
 256 549 256 549 197.5 498.5 c 128,-1,17
 139 448 139 448 42 448 c 0,18,19
 -12 448 -12 448 -49 455 c 0,20,21
 -72 459 -72 459 -66 486 c 2,0,-1
88 1458 m 2,22,-1
 88 1535 l 2,23,24
 88 1571 88 1571 124 1571 c 2,25,-1
 220 1571 l 2,26,27
 256 1571 256 1571 256 1535 c 2,28,-1
 256 1458 l 2,29,30
 256 1422 256 1422 220 1422 c 2,31,-1
 124 1422 l 2,32,33
 88 1422 88 1422 88 1458 c 2,22,-1
EndSplineSet
EndChar

StartChar: uni02B3
Encoding: 691 691 378
Width: 471
GlyphClass: 2
Flags: W
LayerCount: 2
Fore
SplineSet
82 736 m 2,0,-1
 82 1294 l 2,1,2
 82 1330 82 1330 118 1330 c 2,3,-1
 212 1330 l 2,4,5
 248 1330 248 1330 248 1294 c 2,6,-1
 248 1245 l 1,7,-1
 251 1245 l 1,8,9
 267 1283 267 1283 303.5 1312.5 c 128,-1,10
 340 1342 340 1342 389 1342 c 0,11,12
 423 1342 423 1342 446 1334 c 0,13,14
 467 1326 467 1326 462 1305 c 2,15,-1
 445 1233 l 2,16,17
 440 1209 440 1209 413 1219 c 0,18,19
 397 1224 397 1224 383 1224 c 0,20,21
 325 1224 325 1224 287.5 1155 c 128,-1,22
 250 1086 250 1086 250 954 c 2,23,-1
 250 736 l 2,24,25
 250 700 250 700 214 700 c 2,26,-1
 118 700 l 2,27,28
 82 700 82 700 82 736 c 2,0,-1
EndSplineSet
EndChar

StartChar: uni02B4
Encoding: 692 692 379
Width: 471
GlyphClass: 2
Flags: W
LayerCount: 2
Fore
SplineSet
10 725 m 2,0,-1
 26 797 l 2,1,2
 31 821 31 821 59 811 c 0,3,4
 75 806 75 806 89 806 c 0,5,6
 147 806 147 806 184.5 875 c 128,-1,7
 222 944 222 944 222 1076 c 2,8,-1
 222 1294 l 2,9,10
 222 1330 222 1330 258 1330 c 2,11,-1
 354 1330 l 2,12,13
 390 1330 390 1330 390 1294 c 2,14,-1
 390 736 l 2,15,16
 390 700 390 700 354 700 c 2,17,-1
 259 700 l 2,18,19
 223 700 223 700 223 736 c 2,20,-1
 223 785 l 1,21,-1
 221 785 l 1,22,23
 205 747 205 747 168.5 717.5 c 128,-1,24
 132 688 132 688 82 688 c 0,25,26
 48 688 48 688 26 696 c 0,27,28
 5 704 5 704 10 725 c 2,0,-1
EndSplineSet
EndChar

StartChar: uni02B7
Encoding: 695 695 380
Width: 962
GlyphClass: 2
Flags: W
LayerCount: 2
Fore
SplineSet
25 1283 m 2,0,1
 12 1330 12 1330 45 1330 c 2,2,-1
 146 1330 l 2,3,4
 175 1330 175 1330 182 1299 c 2,5,-1
 263 948 l 2,6,7
 280 876 280 876 283 843 c 1,8,-1
 286 843 l 1,9,10
 289 881 289 881 305 948 c 2,11,-1
 391 1299 l 2,12,13
 398 1330 398 1330 427 1330 c 2,14,-1
 536 1330 l 2,15,16
 565 1330 565 1330 572 1299 c 2,17,-1
 657 948 l 2,18,19
 674 881 674 881 676 843 c 1,20,-1
 680 843 l 1,21,22
 682 876 682 876 699 948 c 2,23,-1
 780 1299 l 2,24,25
 787 1330 787 1330 816 1330 c 2,26,-1
 917 1330 l 2,27,28
 950 1330 950 1330 937 1283 c 2,29,-1
 781 740 l 2,30,31
 770 700 770 700 737 700 c 2,32,-1
 629 700 l 2,33,34
 595 700 595 700 585 740 c 2,35,-1
 498 1096 l 2,36,37
 484 1150 484 1150 482 1187 c 1,38,-1
 480 1187 l 1,39,40
 478 1150 478 1150 464 1096 c 2,41,-1
 377 740 l 2,42,43
 367 700 367 700 334 700 c 2,44,-1
 225 700 l 2,45,46
 193 700 193 700 181 740 c 2,47,-1
 25 1283 l 2,0,1
EndSplineSet
EndChar

StartChar: uni02B8
Encoding: 696 696 381
Width: 594
GlyphClass: 2
Flags: W
LayerCount: 2
Fore
SplineSet
26 1283 m 2,0,1
 10 1330 10 1330 46 1330 c 2,2,-1
 154 1330 l 2,3,4
 182 1330 182 1330 190 1299 c 2,5,-1
 280 964 l 2,6,7
 297 904 297 904 297 857 c 1,8,-1
 301 857 l 1,9,10
 308 889 308 889 311 907.5 c 128,-1,11
 314 926 314 926 329 981 c 2,12,-1
 415 1299 l 2,13,14
 423 1330 423 1330 451 1330 c 2,15,-1
 559 1330 l 2,16,17
 594 1330 594 1330 578 1283 c 2,18,-1
 376 675 l 2,19,20
 341 568 341 568 289.5 508 c 128,-1,21
 238 448 238 448 146 448 c 0,22,23
 96 448 96 448 56 456 c 0,24,25
 33 461 33 461 38 488 c 2,26,-1
 52 554 l 2,27,28
 57 580 57 580 82 572 c 0,29,30
 101 566 101 566 117 566 c 0,31,32
 166 566 166 566 192.5 614.5 c 128,-1,33
 219 663 219 663 227 700 c 1,34,-1
 26 1283 l 2,0,1
EndSplineSet
EndChar

StartChar: circumflex
Encoding: 710 710 384
Width: 614
GlyphClass: 2
Flags: W
LayerCount: 2
Fore
SplineSet
-8 1186 m 2,0,1
 -37 1227 -37 1227 13 1262 c 2,2,-1
 220 1407 l 2,3,4
 259 1434 259 1434 288 1434 c 2,5,-1
 326 1434 l 2,6,7
 355 1434 355 1434 394 1407 c 2,8,-1
 601 1262 l 2,9,10
 651 1227 651 1227 622 1186 c 2,11,-1
 597 1150 l 1,12,13
 567 1109 567 1109 519 1144 c 2,14,-1
 308 1295 l 1,15,-1
 306 1295 l 1,16,-1
 95 1144 l 2,17,18
 46 1109 46 1109 17 1150 c 2,19,-1
 -8 1186 l 2,0,1
EndSplineSet
EndChar

StartChar: caron
Encoding: 711 711 385
Width: 614
GlyphClass: 2
Flags: W
LayerCount: 2
Fore
SplineSet
13 1310 m 2,0,1
 -37 1345 -37 1345 -8 1386 c 2,2,-1
 17 1422 l 1,3,4
 47 1463 47 1463 95 1428 c 2,5,-1
 306 1277 l 1,6,-1
 308 1277 l 1,7,-1
 519 1428 l 2,8,9
 568 1463 568 1463 597 1422 c 2,10,-1
 622 1386 l 2,11,12
 651 1345 651 1345 601 1310 c 2,13,-1
 394 1165 l 2,14,15
 355 1138 355 1138 326 1138 c 2,16,-1
 288 1138 l 2,17,18
 259 1138 259 1138 220 1165 c 2,19,-1
 13 1310 l 2,0,1
EndSplineSet
EndChar

StartChar: breve
Encoding: 728 728 390
Width: 614
GlyphClass: 2
Flags: W
LayerCount: 2
Fore
SplineSet
-22 1350 m 0,0,1
 -42 1393 -42 1393 -12 1410 c 2,2,-1
 52 1446 l 2,3,4
 88 1466 88 1466 108 1425 c 0,5,6
 134 1372 134 1372 183.5 1335 c 128,-1,7
 233 1298 233 1298 307 1298 c 256,8,9
 381 1298 381 1298 430.5 1335 c 128,-1,10
 480 1372 480 1372 506 1425 c 0,11,12
 526 1466 526 1466 562 1446 c 2,13,-1
 626 1410 l 2,14,15
 656 1393 656 1393 636 1350 c 0,16,17
 586 1240 586 1240 507 1185 c 128,-1,18
 428 1130 428 1130 307 1130 c 256,19,20
 186 1130 186 1130 107 1185 c 128,-1,21
 28 1240 28 1240 -22 1350 c 0,0,1
EndSplineSet
EndChar

StartChar: dotaccent
Encoding: 729 729 391
Width: 614
GlyphClass: 2
Flags: W
LayerCount: 2
Fore
SplineSet
227 1204 m 2,0,1
 167 1204 167 1204 167 1264 c 2,2,-1
 167 1392 l 2,3,4
 167 1452 167 1452 227 1452 c 2,5,-1
 387 1452 l 2,6,7
 447 1452 447 1452 447 1392 c 2,8,-1
 447 1264 l 2,9,10
 447 1204 447 1204 387 1204 c 2,11,-1
 227 1204 l 2,0,1
EndSplineSet
EndChar

StartChar: ring
Encoding: 730 730 392
Width: 614
GlyphClass: 2
Flags: W
LayerCount: 2
Fore
SplineSet
118 1313 m 256,0,1
 118 1390 118 1390 173 1444.5 c 128,-1,2
 228 1499 228 1499 307 1499 c 256,3,4
 386 1499 386 1499 441 1444.5 c 128,-1,5
 496 1390 496 1390 496 1313 c 256,6,7
 496 1236 496 1236 441 1181.5 c 128,-1,8
 386 1127 386 1127 307 1127 c 256,9,10
 228 1127 228 1127 173 1181.5 c 128,-1,11
 118 1236 118 1236 118 1313 c 256,0,1
213 1313 m 256,12,13
 213 1273 213 1273 240 1246 c 128,-1,14
 267 1219 267 1219 307 1219 c 256,15,16
 347 1219 347 1219 374 1246 c 128,-1,17
 401 1273 401 1273 401 1313 c 256,18,19
 401 1353 401 1353 374 1380 c 128,-1,20
 347 1407 347 1407 307 1407 c 256,21,22
 267 1407 267 1407 240 1380 c 128,-1,23
 213 1353 213 1353 213 1313 c 256,12,13
EndSplineSet
EndChar

StartChar: ogonek
Encoding: 731 731 393
Width: 614
GlyphClass: 2
Flags: W
LayerCount: 2
Fore
SplineSet
71 -247 m 0,0,1
 71 -211 71 -211 80.5 -177 c 128,-1,2
 90 -143 90 -143 132 -94 c 128,-1,3
 174 -45 174 -45 226 0 c 1,4,5
 244 13 244 13 244 60 c 1,6,-1
 522 60 l 1,7,8
 522 15 522 15 485 -11 c 1,9,10
 433 -54 433 -54 370 -99.5 c 128,-1,11
 307 -145 307 -145 307 -176 c 256,12,13
 307 -207 307 -207 330.5 -215.5 c 128,-1,14
 354 -224 354 -224 386 -224 c 0,15,16
 436 -224 436 -224 467 -219 c 0,17,18
 503 -213 503 -213 507 -250 c 2,19,-1
 521 -368 l 2,20,21
 525 -404 525 -404 487 -411 c 0,22,23
 443 -420 443 -420 353 -420 c 0,24,25
 212 -420 212 -420 141.5 -376 c 128,-1,26
 71 -332 71 -332 71 -247 c 0,0,1
EndSplineSet
EndChar

StartChar: tilde
Encoding: 732 732 394
Width: 614
GlyphClass: 2
Flags: W
LayerCount: 2
Fore
SplineSet
-12 1184 m 2,0,1
 -43 1198 -43 1198 -27 1245 c 0,2,3
 -5 1308 -5 1308 50.5 1352 c 128,-1,4
 106 1396 106 1396 186 1396 c 0,5,6
 254 1396 254 1396 330 1344 c 128,-1,7
 406 1292 406 1292 441 1292 c 0,8,9
 472 1292 472 1292 493.5 1305.5 c 128,-1,10
 515 1319 515 1319 530 1349 c 0,11,12
 551 1392 551 1392 584 1377 c 2,13,-1
 626 1358 l 2,14,15
 657 1344 657 1344 641 1297 c 0,16,17
 619 1234 619 1234 563.5 1190 c 128,-1,18
 508 1146 508 1146 428 1146 c 0,19,20
 360 1146 360 1146 284 1198 c 128,-1,21
 208 1250 208 1250 173 1250 c 0,22,23
 142 1250 142 1250 120.5 1236.5 c 128,-1,24
 99 1223 99 1223 84 1193 c 0,25,26
 63 1150 63 1150 30 1165 c 2,27,-1
 -12 1184 l 2,0,1
EndSplineSet
EndChar

StartChar: hungarumlaut
Encoding: 733 733 395
Width: 614
GlyphClass: 2
Flags: W
LayerCount: 2
Fore
SplineSet
26 1150 m 2,0,1
 -26 1150 -26 1150 0 1218 c 2,2,-1
 64 1384 l 2,3,4
 84 1435 84 1435 161 1435 c 2,5,-1
 290 1435 l 2,6,7
 345 1435 345 1435 299 1366 c 2,8,-1
 183 1192 l 2,9,10
 155 1150 155 1150 90 1150 c 2,11,-1
 26 1150 l 2,0,1
367 1150 m 2,12,13
 315 1150 315 1150 341 1218 c 2,14,-1
 405 1384 l 2,15,16
 425 1435 425 1435 502 1435 c 2,17,-1
 631 1435 l 2,18,19
 686 1435 686 1435 640 1366 c 2,20,-1
 524 1192 l 2,21,22
 496 1150 496 1150 431 1150 c 2,23,-1
 367 1150 l 2,12,13
EndSplineSet
EndChar

StartChar: uni02E1
Encoding: 737 737 396
Width: 331
GlyphClass: 2
Flags: W
LayerCount: 2
Fore
SplineSet
82 736 m 2,0,-1
 82 1445 l 2,1,2
 82 1472 82 1472 94 1494 c 2,3,-1
 140 1575 l 2,4,5
 153 1598 153 1598 172 1598 c 2,6,-1
 214 1598 l 2,7,8
 250 1598 250 1598 250 1562 c 2,9,-1
 250 736 l 2,10,11
 250 700 250 700 214 700 c 2,12,-1
 118 700 l 2,13,14
 82 700 82 700 82 736 c 2,0,-1
EndSplineSet
EndChar

StartChar: uni02E2
Encoding: 738 738 397
Width: 603
GlyphClass: 2
Flags: W
LayerCount: 2
Fore
SplineSet
40 787 m 2,0,-1
 70 843 l 2,1,2
 86 873 86 873 121 850 c 0,3,4
 188 806 188 806 286 806 c 0,5,6
 392 806 392 806 392 878 c 0,7,8
 392 922 392 922 326 938 c 0,9,10
 117 989 117 989 89.5 1049.5 c 128,-1,11
 62 1110 62 1110 62 1155 c 0,12,13
 62 1216 62 1216 97 1261.5 c 128,-1,14
 132 1307 132 1307 188 1324.5 c 128,-1,15
 244 1342 244 1342 327 1342 c 0,16,17
 383 1342 383 1342 436.5 1326 c 128,-1,18
 490 1310 490 1310 513 1295 c 0,19,20
 549 1272 549 1272 531 1247 c 2,21,-1
 494 1193 l 2,22,23
 477 1169 477 1169 440 1190 c 0,24,25
 377 1224 377 1224 324 1224 c 0,26,27
 230 1224 230 1224 230 1167 c 0,28,29
 230 1128 230 1128 279 1111 c 128,-1,30
 328 1094 328 1094 395 1074.5 c 128,-1,31
 462 1055 462 1055 511 1017.5 c 128,-1,32
 560 980 560 980 560 888 c 0,33,34
 560 830 560 830 510.5 759 c 128,-1,35
 461 688 461 688 301 688 c 0,36,37
 131 688 131 688 56 742 c 0,38,39
 27 763 27 763 40 787 c 2,0,-1
EndSplineSet
EndChar

StartChar: uni02E3
Encoding: 739 739 398
Width: 651
GlyphClass: 2
Flags: W
LayerCount: 2
Fore
SplineSet
34 744 m 2,0,-1
 232 1032 l 1,1,-1
 57 1286 l 2,2,3
 27 1330 27 1330 79 1330 c 2,4,-1
 192 1330 l 2,5,6
 219 1330 219 1330 233 1306 c 2,7,-1
 326 1144 l 1,8,-1
 419 1306 l 2,9,10
 433 1330 433 1330 460 1330 c 2,11,-1
 573 1330 l 2,12,13
 625 1330 625 1330 595 1286 c 2,14,-1
 418 1032 l 1,15,-1
 618 744 l 2,16,17
 649 700 649 700 596 700 c 2,18,-1
 483 700 l 2,19,20
 457 700 457 700 442 724 c 2,21,-1
 326 920 l 1,22,-1
 209 724 l 2,23,24
 195 700 195 700 169 700 c 2,25,-1
 55 700 l 2,26,27
 3 700 3 700 34 744 c 2,0,-1
EndSplineSet
EndChar

StartChar: Sigma
Encoding: 931 931 431
Width: 1247
GlyphClass: 2
Flags: W
LayerCount: 2
Fore
SplineSet
145 0 m 2,0,1
 70 0 70 0 70 65 c 2,2,-1
 70 147 l 2,3,4
 70 216 70 216 121 286 c 2,5,-1
 416 693 l 2,6,7
 464 759 464 759 416 824 c 2,8,-1
 138 1201 l 2,9,10
 103 1248 103 1248 103 1302 c 2,11,-1
 103 1369 l 2,12,13
 103 1434 103 1434 178 1434 c 2,14,-1
 1074 1434 l 2,15,16
 1149 1434 1149 1434 1149 1369 c 2,17,-1
 1149 1251 l 2,18,19
 1149 1186 1149 1186 1074 1186 c 2,20,-1
 624 1186 l 2,21,22
 564 1186 564 1186 504 1191 c 1,23,-1
 504 1184 l 1,24,-1
 773 820 l 2,25,26
 820 756 820 756 774 693 c 2,27,-1
 451 250 l 1,28,-1
 451 243 l 1,29,30
 511 248 511 248 571 248 c 2,31,-1
 1104 248 l 2,32,33
 1179 248 1179 248 1179 183 c 2,34,-1
 1179 65 l 2,35,36
 1179 0 1179 0 1104 0 c 2,37,-1
 145 0 l 2,0,1
EndSplineSet
EndChar

StartChar: afii10051
Encoding: 1026 1026 433
Width: 1615
GlyphClass: 2
Flags: W
LayerCount: 2
Fore
SplineSet
109 1178 m 2,0,1
 34 1178 34 1178 34 1243 c 2,2,-1
 34 1369 l 2,3,4
 34 1434 34 1434 109 1434 c 2,5,-1
 1137 1434 l 2,6,7
 1212 1434 1212 1434 1212 1369 c 2,8,-1
 1212 1243 l 2,9,10
 1212 1178 1212 1178 1137 1178 c 2,11,-1
 739 1178 l 1,12,-1
 739 943 l 2,13,14
 739 883 739 883 734 823 c 1,15,-1
 741 823 l 1,16,17
 813 860 813 860 903 885 c 128,-1,18
 993 910 993 910 1078 910 c 0,19,20
 1287 910 1287 910 1401 775 c 128,-1,21
 1515 640 1515 640 1515 434 c 0,22,23
 1515 166 1515 166 1414.5 66 c 128,-1,24
 1314 -34 1314 -34 1082 -34 c 0,25,26
 995 -34 995 -34 940 -16 c 0,27,28
 878 4 878 4 891 50 c 2,29,-1
 924 170 l 2,30,31
 938 222 938 222 983 212 c 256,32,33
 1028 202 1028 202 1069 202 c 0,34,35
 1146 202 1146 202 1174.5 250 c 128,-1,36
 1203 298 1203 298 1203 422 c 0,37,38
 1203 538 1203 538 1149.5 606 c 128,-1,39
 1096 674 1096 674 1011 674 c 0,40,41
 946 674 946 674 886.5 661 c 128,-1,42
 827 648 827 648 739 607 c 1,43,-1
 739 55 l 2,44,45
 739 0 739 0 689 0 c 2,46,-1
 497 0 l 2,47,48
 447 0 447 0 447 55 c 2,49,-1
 447 1178 l 1,50,-1
 109 1178 l 2,0,1
EndSplineSet
EndChar

StartChar: afii10053
Encoding: 1028 1028 435
Width: 1418
GlyphClass: 2
Flags: W
AnchorPoint: "Anchor-3" 766 1468 basechar 0
LayerCount: 2
Fore
SplineSet
1299 161 m 0,0,1
 1228 70 1228 70 1109 18 c 128,-1,2
 990 -34 990 -34 766 -34 c 0,3,4
 441 -34 441 -34 263.5 152.5 c 128,-1,5
 86 339 86 339 86 717 c 256,6,7
 86 1095 86 1095 261 1281.5 c 128,-1,8
 436 1468 436 1468 766 1468 c 0,9,10
 946 1468 946 1468 1058 1430 c 128,-1,11
 1170 1392 1170 1392 1266 1291 c 0,12,13
 1320 1234 1320 1234 1271 1190 c 2,14,-1
 1180 1107 l 2,15,16
 1130 1061 1130 1061 1070 1126 c 0,17,18
 1034 1165 1034 1165 956 1198.5 c 128,-1,19
 878 1232 878 1232 776 1232 c 0,20,21
 566 1232 566 1232 495 1129.5 c 128,-1,22
 424 1027 424 1027 406 870 c 1,23,-1
 939 870 l 2,24,25
 1014 870 1014 870 1014 805 c 2,26,-1
 1014 687 l 2,27,28
 1014 622 1014 622 939 622 c 2,29,-1
 404 622 l 1,30,31
 417 424 417 424 491.5 313 c 128,-1,32
 566 202 566 202 776 202 c 0,33,34
 902 202 902 202 976.5 247 c 128,-1,35
 1051 292 1051 292 1087 334 c 0,36,37
 1146 401 1146 401 1196 357 c 2,38,-1
 1303 261 l 2,39,40
 1347 222 1347 222 1299 161 c 0,0,1
EndSplineSet
EndChar

StartChar: afii10058
Encoding: 1033 1033 440
Width: 2232
GlyphClass: 2
Flags: W
LayerCount: 2
Fore
SplineSet
68 -10 m 0,0,1
 26 4 26 4 38 58 c 2,2,-1
 64 172 l 2,3,4
 76 225 76 225 127 210 c 0,5,6
 155 202 155 202 185 202 c 0,7,8
 338 202 338 202 396 420.5 c 128,-1,9
 454 639 454 639 454 1090 c 2,10,-1
 454 1359 l 2,11,12
 454 1434 454 1434 524 1434 c 2,13,-1
 1264 1434 l 2,14,15
 1334 1434 1334 1434 1334 1359 c 2,16,-1
 1334 870 l 1,17,-1
 1489 870 l 2,18,19
 1859 870 1859 870 2003 752.5 c 128,-1,20
 2147 635 2147 635 2147 435 c 256,21,22
 2147 235 2147 235 2003 117.5 c 128,-1,23
 1859 0 1859 0 1489 0 c 2,24,-1
 1112 0 l 2,25,26
 1042 0 1042 0 1042 75 c 2,27,-1
 1042 1186 l 1,28,-1
 704 1186 l 1,29,-1
 704 1034 l 2,30,31
 704 439 704 439 587 202.5 c 128,-1,32
 470 -34 470 -34 208 -34 c 0,33,34
 142 -34 142 -34 68 -10 c 0,0,1
1334 244 m 1,35,-1
 1460 244 l 2,36,37
 1670 244 1670 244 1752.5 279.5 c 128,-1,38
 1835 315 1835 315 1835 435 c 256,39,40
 1835 555 1835 555 1752.5 590.5 c 128,-1,41
 1670 626 1670 626 1460 626 c 2,42,-1
 1334 626 l 1,43,-1
 1334 244 l 1,35,-1
EndSplineSet
EndChar

StartChar: afii10059
Encoding: 1034 1034 441
Width: 2180
GlyphClass: 2
Flags: W
LayerCount: 2
Fore
SplineSet
230 0 m 2,0,1
 160 0 160 0 160 75 c 2,2,-1
 160 1359 l 2,3,4
 160 1434 160 1434 230 1434 c 2,5,-1
 382 1434 l 2,6,7
 452 1434 452 1434 452 1359 c 2,8,-1
 452 870 l 1,9,-1
 990 870 l 1,10,-1
 990 1359 l 2,11,12
 990 1434 990 1434 1060 1434 c 2,13,-1
 1212 1434 l 2,14,15
 1282 1434 1282 1434 1282 1359 c 2,16,-1
 1282 870 l 1,17,-1
 1437 870 l 2,18,19
 1807 870 1807 870 1951 752.5 c 128,-1,20
 2095 635 2095 635 2095 435 c 256,21,22
 2095 235 2095 235 1951 117.5 c 128,-1,23
 1807 0 1807 0 1437 0 c 2,24,-1
 1060 0 l 2,25,26
 990 0 990 0 990 75 c 2,27,-1
 990 622 l 1,28,-1
 452 622 l 1,29,-1
 452 75 l 2,30,31
 452 0 452 0 382 0 c 2,32,-1
 230 0 l 2,0,1
1282 244 m 1,33,-1
 1408 244 l 2,34,35
 1618 244 1618 244 1700.5 279.5 c 128,-1,36
 1783 315 1783 315 1783 435 c 256,37,38
 1783 555 1783 555 1700.5 590.5 c 128,-1,39
 1618 626 1618 626 1408 626 c 2,40,-1
 1282 626 l 1,41,-1
 1282 244 l 1,33,-1
EndSplineSet
EndChar

StartChar: afii10060
Encoding: 1035 1035 442
Width: 1614
GlyphClass: 2
Flags: W
LayerCount: 2
Fore
SplineSet
109 1178 m 2,0,1
 34 1178 34 1178 34 1243 c 2,2,-1
 34 1369 l 2,3,4
 34 1434 34 1434 109 1434 c 2,5,-1
 1137 1434 l 2,6,7
 1212 1434 1212 1434 1212 1369 c 2,8,-1
 1212 1243 l 2,9,10
 1212 1178 1212 1178 1137 1178 c 2,11,-1
 739 1178 l 1,12,-1
 739 943 l 2,13,14
 739 883 739 883 734 823 c 1,15,-1
 741 823 l 1,16,17
 813 860 813 860 914 885 c 128,-1,18
 1015 910 1015 910 1100 910 c 0,19,20
 1275 910 1275 910 1379 788 c 128,-1,21
 1483 666 1483 666 1483 502 c 2,22,-1
 1483 75 l 2,23,24
 1483 0 1483 0 1413 0 c 2,25,-1
 1261 0 l 2,26,27
 1191 0 1191 0 1191 75 c 2,28,-1
 1191 454 l 2,29,30
 1191 577 1191 577 1147 625.5 c 128,-1,31
 1103 674 1103 674 1028 674 c 256,32,33
 953 674 953 674 890 661 c 128,-1,34
 827 648 827 648 739 607 c 1,35,-1
 739 55 l 2,36,37
 739 0 739 0 689 0 c 2,38,-1
 497 0 l 2,39,40
 447 0 447 0 447 55 c 2,41,-1
 447 1178 l 1,42,-1
 109 1178 l 2,0,1
EndSplineSet
EndChar

StartChar: afii10145
Encoding: 1039 1039 445
Width: 1430
GlyphClass: 2
Flags: W
LayerCount: 2
Fore
SplineSet
230 0 m 2,0,1
 160 0 160 0 160 75 c 2,2,-1
 160 1359 l 2,3,4
 160 1434 160 1434 230 1434 c 2,5,-1
 382 1434 l 2,6,7
 452 1434 452 1434 452 1359 c 2,8,-1
 452 248 l 1,9,-1
 978 248 l 1,10,-1
 978 1359 l 2,11,12
 978 1434 978 1434 1048 1434 c 2,13,-1
 1200 1434 l 2,14,15
 1270 1434 1270 1434 1270 1359 c 2,16,-1
 1270 75 l 2,17,18
 1270 0 1270 0 1200 0 c 2,19,-1
 840 0 l 1,20,-1
 840 -300 l 2,21,22
 840 -370 840 -370 780 -370 c 2,23,-1
 650 -370 l 2,24,25
 590 -370 590 -370 590 -300 c 2,26,-1
 590 0 l 1,27,-1
 230 0 l 2,0,1
EndSplineSet
EndChar

StartChar: afii10018
Encoding: 1041 1041 447
Width: 1370
GlyphClass: 2
Flags: W
AnchorPoint: "Anchor-3" 718 1468 basechar 0
LayerCount: 2
Fore
SplineSet
230 0 m 2,0,1
 160 0 160 0 160 75 c 2,2,-1
 160 1359 l 2,3,4
 160 1434 160 1434 230 1434 c 2,5,-1
 1079 1434 l 2,6,7
 1154 1434 1154 1434 1154 1369 c 2,8,-1
 1154 1251 l 2,9,10
 1154 1186 1154 1186 1079 1186 c 2,11,-1
 452 1186 l 1,12,-1
 452 876 l 1,13,-1
 617 876 l 2,14,15
 987 876 987 876 1131 757 c 128,-1,16
 1275 638 1275 638 1275 438 c 256,17,18
 1275 238 1275 238 1131 119 c 128,-1,19
 987 0 987 0 617 0 c 2,20,-1
 230 0 l 2,0,1
452 244 m 1,21,-1
 588 244 l 2,22,23
 798 244 798 244 880.5 281 c 128,-1,24
 963 318 963 318 963 438 c 256,25,26
 963 558 963 558 880.5 595 c 128,-1,27
 798 632 798 632 588 632 c 2,28,-1
 452 632 l 1,29,-1
 452 244 l 1,21,-1
EndSplineSet
EndChar

StartChar: afii10020
Encoding: 1043 1043 449
Width: 1118
GlyphClass: 2
Flags: W
AnchorPoint: "Anchor-3" 622 1468 basechar 0
LayerCount: 2
Fore
SplineSet
230 0 m 2,0,1
 160 0 160 0 160 75 c 2,2,-1
 160 1359 l 2,3,4
 160 1434 160 1434 230 1434 c 2,5,-1
 1009 1434 l 2,6,7
 1084 1434 1084 1434 1084 1369 c 2,8,-1
 1084 1251 l 2,9,10
 1084 1186 1084 1186 1009 1186 c 2,11,-1
 452 1186 l 1,12,-1
 452 75 l 2,13,14
 452 0 452 0 382 0 c 2,15,-1
 230 0 l 2,0,1
EndSplineSet
EndChar

StartChar: afii10021
Encoding: 1044 1044 450
Width: 1550
GlyphClass: 2
Flags: W
AnchorPoint: "Anchor-3" 851 1468 basechar 0
LayerCount: 2
Fore
SplineSet
120 -370 m 2,0,1
 60 -370 60 -370 60 -300 c 2,2,-1
 60 173 l 2,3,4
 60 248 60 248 150 248 c 2,5,-1
 193 248 l 1,6,7
 324 384 324 384 372 550 c 128,-1,8
 420 716 420 716 420 1100 c 2,9,-1
 420 1359 l 2,10,11
 420 1434 420 1434 490 1434 c 2,12,-1
 1230 1434 l 2,13,14
 1300 1434 1300 1434 1300 1359 c 2,15,-1
 1300 248 l 1,16,-1
 1400 248 l 2,17,18
 1490 248 1490 248 1490 173 c 2,19,-1
 1490 -300 l 2,20,21
 1490 -370 1490 -370 1430 -370 c 2,22,-1
 1300 -370 l 2,23,24
 1240 -370 1240 -370 1240 -300 c 2,25,-1
 1240 0 l 1,26,-1
 310 0 l 1,27,-1
 310 -300 l 2,28,29
 310 -370 310 -370 250 -370 c 2,30,-1
 120 -370 l 2,0,1
489 248 m 1,31,-1
 1008 248 l 1,32,-1
 1008 1186 l 1,33,-1
 670 1186 l 1,34,-1
 670 1044 l 2,35,36
 670 688 670 688 619 496 c 128,-1,37
 568 304 568 304 489 248 c 1,31,-1
EndSplineSet
EndChar

StartChar: afii10024
Encoding: 1046 1046 452
Width: 2040
GlyphClass: 2
Flags: W
AnchorPoint: "Anchor-3" 1020 1468 basechar 0
LayerCount: 2
Fore
SplineSet
96 0 m 2,0,1
 5 0 5 0 58 86 c 2,2,-1
 299 480 l 2,3,4
 370 596 370 596 433.5 650.5 c 128,-1,5
 497 705 497 705 573 734 c 1,6,-1
 573 735 l 1,7,8
 516 765 516 765 454 830.5 c 128,-1,9
 392 896 392 896 353 954 c 2,10,-1
 89 1348 l 2,11,12
 31 1434 31 1434 127 1434 c 2,13,-1
 304 1434 l 2,14,15
 357 1434 357 1434 394 1375 c 2,16,-1
 599 1050 l 2,17,18
 651 968 651 968 722.5 911.5 c 128,-1,19
 794 855 794 855 851 855 c 2,20,-1
 874 855 l 1,21,-1
 874 1359 l 2,22,23
 874 1434 874 1434 944 1434 c 2,24,-1
 1096 1434 l 2,25,26
 1166 1434 1166 1434 1166 1359 c 2,27,-1
 1166 855 l 1,28,-1
 1189 855 l 2,29,30
 1246 855 1246 855 1317.5 911.5 c 128,-1,31
 1389 968 1389 968 1441 1050 c 2,32,-1
 1646 1375 l 2,33,34
 1683 1434 1683 1434 1736 1434 c 2,35,-1
 1913 1434 l 2,36,37
 2009 1434 2009 1434 1951 1348 c 2,38,-1
 1687 954 l 2,39,40
 1648 896 1648 896 1586 830.5 c 128,-1,41
 1524 765 1524 765 1467 735 c 1,42,-1
 1467 734 l 1,43,44
 1543 705 1543 705 1606.5 650.5 c 128,-1,45
 1670 596 1670 596 1741 480 c 2,46,-1
 1982 86 l 2,47,48
 2035 0 2035 0 1944 0 c 2,49,-1
 1757 0 l 2,50,51
 1700 0 1700 0 1667 59 c 2,52,-1
 1483 384 l 2,53,54
 1431 476 1431 476 1349 543.5 c 128,-1,55
 1267 611 1267 611 1204 611 c 2,56,-1
 1166 611 l 1,57,-1
 1166 75 l 2,58,59
 1166 0 1166 0 1096 0 c 2,60,-1
 944 0 l 2,61,62
 874 0 874 0 874 75 c 2,63,-1
 874 611 l 1,64,-1
 836 611 l 2,65,66
 773 611 773 611 691 543.5 c 128,-1,67
 609 476 609 476 557 384 c 2,68,-1
 373 59 l 2,69,70
 340 0 340 0 283 0 c 2,71,-1
 96 0 l 2,0,1
EndSplineSet
EndChar

StartChar: afii10025
Encoding: 1047 1047 453
Width: 1354
GlyphClass: 2
Flags: W
AnchorPoint: "Anchor-3" 653 1468 basechar 0
LayerCount: 2
Fore
SplineSet
124 150 m 0,0,1
 74 207 74 207 115 249 c 2,2,-1
 211 348 l 2,3,4
 253 392 253 392 321 331 c 0,5,6
 369 288 369 288 444 245 c 128,-1,7
 519 202 519 202 642 202 c 0,8,9
 759 202 759 202 848.5 245 c 128,-1,10
 938 288 938 288 938 414 c 256,11,12
 938 540 938 540 863.5 588 c 128,-1,13
 789 636 789 636 666 636 c 2,14,-1
 500 636 l 2,15,16
 425 636 425 636 425 699 c 2,17,-1
 425 807 l 2,18,19
 425 872 425 872 500 872 c 2,20,-1
 624 872 l 2,21,22
 793 872 793 872 848 925 c 128,-1,23
 903 978 903 978 903 1062 c 0,24,25
 903 1149 903 1149 840.5 1190.5 c 128,-1,26
 778 1232 778 1232 642 1232 c 0,27,28
 537 1232 537 1232 458.5 1199.5 c 128,-1,29
 380 1167 380 1167 341 1131 c 0,30,31
 276 1072 276 1072 230 1122 c 2,32,-1
 147 1213 l 2,33,34
 100 1264 100 1264 160 1313 c 0,35,36
 267 1401 267 1401 385.5 1434.5 c 128,-1,37
 504 1468 504 1468 652 1468 c 0,38,39
 922 1468 922 1468 1060.5 1364 c 128,-1,40
 1199 1260 1199 1260 1199 1092 c 0,41,42
 1199 948 1199 948 1121.5 871.5 c 128,-1,43
 1044 795 1044 795 931 767 c 1,44,-1
 931 763 l 1,45,46
 1056 750 1056 750 1153 651 c 128,-1,47
 1250 552 1250 552 1250 397 c 0,48,49
 1250 195 1250 195 1088.5 80.5 c 128,-1,50
 927 -34 927 -34 637 -34 c 0,51,52
 431 -34 431 -34 315.5 14.5 c 128,-1,53
 200 63 200 63 124 150 c 0,0,1
EndSplineSet
EndChar

StartChar: afii10026
Encoding: 1048 1048 454
Width: 1492
GlyphClass: 2
Flags: W
AnchorPoint: "Anchor-3" 746 1468 basechar 0
LayerCount: 2
Fore
SplineSet
230 0 m 2,0,1
 160 0 160 0 160 75 c 2,2,-1
 160 1359 l 2,3,4
 160 1434 160 1434 230 1434 c 2,5,-1
 382 1434 l 2,6,7
 452 1434 452 1434 452 1359 c 2,8,-1
 452 570 l 2,9,10
 452 510 452 510 447 450 c 1,11,-1
 454 450 l 1,12,-1
 944 1364 l 2,13,14
 982 1434 982 1434 1074 1434 c 2,15,-1
 1262 1434 l 2,16,17
 1332 1434 1332 1434 1332 1359 c 2,18,-1
 1332 75 l 2,19,20
 1332 0 1332 0 1262 0 c 2,21,-1
 1110 0 l 2,22,23
 1040 0 1040 0 1040 75 c 2,24,-1
 1040 864 l 2,25,26
 1040 924 1040 924 1045 984 c 1,27,-1
 1038 984 l 1,28,-1
 548 70 l 2,29,30
 510 0 510 0 418 0 c 2,31,-1
 230 0 l 2,0,1
EndSplineSet
EndChar

StartChar: afii10028
Encoding: 1050 1050 456
Width: 1348
GlyphClass: 2
Flags: W
AnchorPoint: "Anchor-3" 735 1468 basechar 0
LayerCount: 2
Fore
SplineSet
230 0 m 2,0,1
 160 0 160 0 160 75 c 2,2,-1
 160 1359 l 2,3,4
 160 1434 160 1434 230 1434 c 2,5,-1
 382 1434 l 2,6,7
 452 1434 452 1434 452 1359 c 2,8,-1
 452 855 l 1,9,-1
 482 855 l 2,10,11
 549 855 549 855 620 911 c 128,-1,12
 691 967 691 967 744 1050 c 2,13,-1
 954 1375 l 2,14,15
 992 1434 992 1434 1044 1434 c 2,16,-1
 1221 1434 l 2,17,18
 1318 1434 1318 1434 1259 1348 c 2,19,-1
 990 954 l 2,20,21
 940 881 940 881 891.5 832 c 128,-1,22
 843 783 843 783 770 735 c 1,23,-1
 770 734 l 1,24,25
 846 705 846 705 908 651.5 c 128,-1,26
 970 598 970 598 1044 480 c 2,27,-1
 1290 86 l 2,28,29
 1344 0 1344 0 1252 0 c 2,30,-1
 1065 0 l 2,31,32
 1009 0 1009 0 975 59 c 2,33,-1
 786 384 l 2,34,35
 733 476 733 476 651.5 543.5 c 128,-1,36
 570 611 570 611 497 611 c 2,37,-1
 452 611 l 1,38,-1
 452 75 l 2,39,40
 452 0 452 0 382 0 c 2,41,-1
 230 0 l 2,0,1
EndSplineSet
EndChar

StartChar: afii10029
Encoding: 1051 1051 457
Width: 1494
GlyphClass: 2
Flags: W
AnchorPoint: "Anchor-3" 888 1468 basechar 0
LayerCount: 2
Fore
SplineSet
68 -10 m 0,0,1
 26 4 26 4 38 58 c 2,2,-1
 64 172 l 2,3,4
 76 225 76 225 127 210 c 0,5,6
 155 202 155 202 185 202 c 0,7,8
 338 202 338 202 396 420.5 c 128,-1,9
 454 639 454 639 454 1090 c 2,10,-1
 454 1359 l 2,11,12
 454 1434 454 1434 524 1434 c 2,13,-1
 1264 1434 l 2,14,15
 1334 1434 1334 1434 1334 1359 c 2,16,-1
 1334 75 l 2,17,18
 1334 0 1334 0 1264 0 c 2,19,-1
 1112 0 l 2,20,21
 1042 0 1042 0 1042 75 c 2,22,-1
 1042 1186 l 1,23,-1
 704 1186 l 1,24,-1
 704 1034 l 2,25,26
 704 439 704 439 587 202.5 c 128,-1,27
 470 -34 470 -34 208 -34 c 0,28,29
 142 -34 142 -34 68 -10 c 0,0,1
EndSplineSet
EndChar

StartChar: afii10033
Encoding: 1055 1055 461
Width: 1436
GlyphClass: 2
Flags: W
AnchorPoint: "Anchor-3" 718 1468 basechar 0
LayerCount: 2
Fore
SplineSet
230 0 m 2,0,1
 160 0 160 0 160 75 c 2,2,-1
 160 1359 l 2,3,4
 160 1434 160 1434 230 1434 c 2,5,-1
 1206 1434 l 2,6,7
 1276 1434 1276 1434 1276 1359 c 2,8,-1
 1276 75 l 2,9,10
 1276 0 1276 0 1206 0 c 2,11,-1
 1054 0 l 2,12,13
 984 0 984 0 984 75 c 2,14,-1
 984 1186 l 1,15,-1
 452 1186 l 1,16,-1
 452 75 l 2,17,18
 452 0 452 0 382 0 c 2,19,-1
 230 0 l 2,0,1
EndSplineSet
EndChar

StartChar: afii10037
Encoding: 1059 1059 465
Width: 1382
GlyphClass: 2
Flags: W
AnchorPoint: "Anchor-3" 695 1468 basechar 0
LayerCount: 2
Fore
SplineSet
62 1348 m 2,0,1
 17 1434 17 1434 109 1434 c 2,2,-1
 286 1434 l 2,3,4
 344 1434 344 1434 378 1365 c 2,5,-1
 676 754 l 2,6,7
 705 695 705 695 720 637 c 128,-1,8
 735 579 735 579 743 524 c 1,9,-1
 747 524 l 1,10,11
 756 582 756 582 768 639.5 c 128,-1,12
 780 697 780 697 800 754 c 2,13,-1
 1021 1365 l 2,14,15
 1046 1434 1046 1434 1113 1434 c 2,16,-1
 1285 1434 l 2,17,18
 1367 1434 1367 1434 1332 1348 c 2,19,-1
 915 331 l 2,20,21
 824 109 824 109 727 37.5 c 128,-1,22
 630 -34 630 -34 452 -34 c 0,23,24
 323 -34 323 -34 245 0 c 0,25,26
 184 27 184 27 199 78 c 2,27,-1
 236 207 l 2,28,29
 249 252 249 252 310 227 c 0,30,31
 372 202 372 202 419 202 c 0,32,33
 477 202 477 202 521 218 c 128,-1,34
 565 234 565 234 589 291 c 2,35,-1
 603 324 l 1,36,-1
 62 1348 l 2,0,1
EndSplineSet
EndChar

StartChar: afii10038
Encoding: 1060 1060 466
Width: 1858
GlyphClass: 2
Flags: W
AnchorPoint: "Anchor-3" 928 1468 basechar 0
LayerCount: 2
Fore
SplineSet
86 730 m 256,0,1
 86 1000 86 1000 258 1150 c 128,-1,2
 430 1300 430 1300 740 1300 c 2,3,-1
 783 1300 l 1,4,-1
 783 1367 l 2,5,6
 783 1442 783 1442 853 1442 c 2,7,-1
 1005 1442 l 2,8,9
 1075 1442 1075 1442 1075 1367 c 2,10,-1
 1075 1300 l 1,11,-1
 1118 1300 l 2,12,13
 1428 1300 1428 1300 1600 1150 c 128,-1,14
 1772 1000 1772 1000 1772 730 c 256,15,16
 1772 460 1772 460 1600 310 c 128,-1,17
 1428 160 1428 160 1118 160 c 2,18,-1
 1075 160 l 1,19,-1
 1075 60 l 2,20,21
 1075 -15 1075 -15 1005 -15 c 2,22,-1
 853 -15 l 2,23,24
 783 -15 783 -15 783 60 c 2,25,-1
 783 160 l 1,26,-1
 740 160 l 2,27,28
 430 160 430 160 258 310 c 128,-1,29
 86 460 86 460 86 730 c 256,0,1
388 730 m 256,30,31
 388 575 388 575 468 482.5 c 128,-1,32
 548 390 548 390 753 390 c 2,33,-1
 783 390 l 1,34,-1
 783 1070 l 1,35,-1
 753 1070 l 2,36,37
 548 1070 548 1070 468 977.5 c 128,-1,38
 388 885 388 885 388 730 c 256,30,31
1075 390 m 1,39,-1
 1105 390 l 2,40,41
 1310 390 1310 390 1390 482.5 c 128,-1,42
 1470 575 1470 575 1470 730 c 256,43,44
 1470 885 1470 885 1390 977.5 c 128,-1,45
 1310 1070 1310 1070 1105 1070 c 2,46,-1
 1075 1070 l 1,47,-1
 1075 390 l 1,39,-1
EndSplineSet
EndChar

StartChar: afii10040
Encoding: 1062 1062 468
Width: 1522
GlyphClass: 2
Flags: W
AnchorPoint: "Anchor-3" 715 1468 basechar 0
LayerCount: 2
Fore
SplineSet
230 0 m 2,0,1
 160 0 160 0 160 75 c 2,2,-1
 160 1359 l 2,3,4
 160 1434 160 1434 230 1434 c 2,5,-1
 382 1434 l 2,6,7
 452 1434 452 1434 452 1359 c 2,8,-1
 452 248 l 1,9,-1
 978 248 l 1,10,-1
 978 1359 l 2,11,12
 978 1434 978 1434 1048 1434 c 2,13,-1
 1200 1434 l 2,14,15
 1270 1434 1270 1434 1270 1359 c 2,16,-1
 1270 248 l 1,17,-1
 1392 248 l 2,18,19
 1462 248 1462 248 1462 173 c 2,20,-1
 1462 -300 l 2,21,22
 1462 -370 1462 -370 1402 -370 c 2,23,-1
 1272 -370 l 2,24,25
 1212 -370 1212 -370 1212 -300 c 2,26,-1
 1212 0 l 1,27,-1
 230 0 l 2,0,1
EndSplineSet
EndChar

StartChar: afii10041
Encoding: 1063 1063 469
Width: 1308
GlyphClass: 2
Flags: W
AnchorPoint: "Anchor-3" 630 1468 basechar 0
LayerCount: 2
Fore
SplineSet
112 932 m 2,0,-1
 112 1359 l 2,1,2
 112 1434 112 1434 182 1434 c 2,3,-1
 334 1434 l 2,4,5
 404 1434 404 1434 404 1359 c 2,6,-1
 404 980 l 2,7,8
 404 858 404 858 448 809 c 128,-1,9
 492 760 492 760 569 760 c 0,10,11
 641 760 641 760 704.5 773 c 128,-1,12
 768 786 768 786 856 827 c 1,13,-1
 856 1359 l 2,14,15
 856 1434 856 1434 926 1434 c 2,16,-1
 1078 1434 l 2,17,18
 1148 1434 1148 1434 1148 1359 c 2,19,-1
 1148 75 l 2,20,21
 1148 0 1148 0 1078 0 c 2,22,-1
 926 0 l 2,23,24
 856 0 856 0 856 75 c 2,25,-1
 856 491 l 2,26,27
 856 551 856 551 861 611 c 1,28,-1
 854 611 l 1,29,30
 782 574 782 574 681 549 c 128,-1,31
 580 524 580 524 495 524 c 0,32,33
 320 524 320 524 216 646 c 128,-1,34
 112 768 112 768 112 932 c 2,0,-1
EndSplineSet
EndChar

StartChar: afii10042
Encoding: 1064 1064 470
Width: 2140
GlyphClass: 2
Flags: W
AnchorPoint: "Anchor-3" 1070 1468 basechar 0
LayerCount: 2
Fore
SplineSet
230 0 m 2,0,1
 160 0 160 0 160 75 c 2,2,-1
 160 1359 l 2,3,4
 160 1434 160 1434 230 1434 c 2,5,-1
 382 1434 l 2,6,7
 452 1434 452 1434 452 1359 c 2,8,-1
 452 248 l 1,9,-1
 924 248 l 1,10,-1
 924 1359 l 2,11,12
 924 1434 924 1434 994 1434 c 2,13,-1
 1146 1434 l 2,14,15
 1216 1434 1216 1434 1216 1359 c 2,16,-1
 1216 248 l 1,17,-1
 1688 248 l 1,18,-1
 1688 1359 l 2,19,20
 1688 1434 1688 1434 1758 1434 c 2,21,-1
 1910 1434 l 2,22,23
 1980 1434 1980 1434 1980 1359 c 2,24,-1
 1980 75 l 2,25,26
 1980 0 1980 0 1910 0 c 2,27,-1
 230 0 l 2,0,1
EndSplineSet
EndChar

StartChar: afii10043
Encoding: 1065 1065 471
Width: 2232
GlyphClass: 2
Flags: W
AnchorPoint: "Anchor-3" 1070 1468 basechar 0
LayerCount: 2
Fore
SplineSet
230 0 m 2,0,1
 160 0 160 0 160 75 c 2,2,-1
 160 1359 l 2,3,4
 160 1434 160 1434 230 1434 c 2,5,-1
 382 1434 l 2,6,7
 452 1434 452 1434 452 1359 c 2,8,-1
 452 248 l 1,9,-1
 924 248 l 1,10,-1
 924 1359 l 2,11,12
 924 1434 924 1434 994 1434 c 2,13,-1
 1146 1434 l 2,14,15
 1216 1434 1216 1434 1216 1359 c 2,16,-1
 1216 248 l 1,17,-1
 1688 248 l 1,18,-1
 1688 1359 l 2,19,20
 1688 1434 1688 1434 1758 1434 c 2,21,-1
 1910 1434 l 2,22,23
 1980 1434 1980 1434 1980 1359 c 2,24,-1
 1980 248 l 1,25,-1
 2102 248 l 2,26,27
 2172 248 2172 248 2172 173 c 2,28,-1
 2172 -300 l 2,29,30
 2172 -370 2172 -370 2112 -370 c 2,31,-1
 1982 -370 l 2,32,33
 1922 -370 1922 -370 1922 -300 c 2,34,-1
 1922 0 l 1,35,-1
 230 0 l 2,0,1
EndSplineSet
EndChar

StartChar: afii10044
Encoding: 1066 1066 472
Width: 1746
GlyphClass: 2
Flags: W
AnchorPoint: "Anchor-3" 848 1468 basechar 0
LayerCount: 2
Fore
SplineSet
109 1186 m 2,0,1
 34 1186 34 1186 34 1251 c 2,2,-1
 34 1369 l 2,3,4
 34 1434 34 1434 109 1434 c 2,5,-1
 778 1434 l 2,6,7
 848 1434 848 1434 848 1359 c 2,8,-1
 848 870 l 1,9,-1
 1003 870 l 2,10,11
 1373 870 1373 870 1517 752.5 c 128,-1,12
 1661 635 1661 635 1661 435 c 256,13,14
 1661 235 1661 235 1517 117.5 c 128,-1,15
 1373 0 1373 0 1003 0 c 2,16,-1
 626 0 l 2,17,18
 556 0 556 0 556 75 c 2,19,-1
 556 1186 l 1,20,-1
 109 1186 l 2,0,1
848 244 m 1,21,-1
 974 244 l 2,22,23
 1184 244 1184 244 1266.5 279.5 c 128,-1,24
 1349 315 1349 315 1349 435 c 256,25,26
 1349 555 1349 555 1266.5 590.5 c 128,-1,27
 1184 626 1184 626 974 626 c 2,28,-1
 848 626 l 1,29,-1
 848 244 l 1,21,-1
EndSplineSet
EndChar

StartChar: afii10046
Encoding: 1068 1068 474
Width: 1350
GlyphClass: 2
Flags: W
AnchorPoint: "Anchor-3" 712 1468 basechar 0
LayerCount: 2
Fore
SplineSet
230 0 m 2,0,1
 160 0 160 0 160 75 c 2,2,-1
 160 1359 l 2,3,4
 160 1434 160 1434 230 1434 c 2,5,-1
 382 1434 l 2,6,7
 452 1434 452 1434 452 1359 c 2,8,-1
 452 870 l 1,9,-1
 607 870 l 2,10,11
 977 870 977 870 1121 752.5 c 128,-1,12
 1265 635 1265 635 1265 435 c 256,13,14
 1265 235 1265 235 1121 117.5 c 128,-1,15
 977 0 977 0 607 0 c 2,16,-1
 230 0 l 2,0,1
452 244 m 1,17,-1
 578 244 l 2,18,19
 788 244 788 244 870.5 279.5 c 128,-1,20
 953 315 953 315 953 435 c 256,21,22
 953 555 953 555 870.5 590.5 c 128,-1,23
 788 626 788 626 578 626 c 2,24,-1
 452 626 l 1,25,-1
 452 244 l 1,17,-1
EndSplineSet
EndChar

StartChar: afii10047
Encoding: 1069 1069 475
Width: 1418
GlyphClass: 2
Flags: W
AnchorPoint: "Anchor-3" 652 1468 basechar 0
LayerCount: 2
Fore
SplineSet
119 161 m 0,0,1
 71 222 71 222 115 261 c 2,2,-1
 222 357 l 2,3,4
 272 401 272 401 331 334 c 0,5,6
 367 292 367 292 441.5 247 c 128,-1,7
 516 202 516 202 642 202 c 0,8,9
 852 202 852 202 926.5 313 c 128,-1,10
 1001 424 1001 424 1014 622 c 1,11,-1
 479 622 l 2,12,13
 404 622 404 622 404 687 c 2,14,-1
 404 805 l 2,15,16
 404 870 404 870 479 870 c 2,17,-1
 1012 870 l 1,18,19
 994 1027 994 1027 923 1129.5 c 128,-1,20
 852 1232 852 1232 642 1232 c 0,21,22
 540 1232 540 1232 462 1198.5 c 128,-1,23
 384 1165 384 1165 348 1126 c 0,24,25
 288 1061 288 1061 238 1107 c 2,26,-1
 147 1190 l 2,27,28
 98 1234 98 1234 152 1291 c 0,29,30
 248 1392 248 1392 360 1430 c 128,-1,31
 472 1468 472 1468 652 1468 c 0,32,33
 982 1468 982 1468 1157 1281.5 c 128,-1,34
 1332 1095 1332 1095 1332 717 c 256,35,36
 1332 339 1332 339 1154.5 152.5 c 128,-1,37
 977 -34 977 -34 652 -34 c 0,38,39
 428 -34 428 -34 309 18 c 128,-1,40
 190 70 190 70 119 161 c 0,0,1
EndSplineSet
EndChar

StartChar: afii10048
Encoding: 1070 1070 476
Width: 2096
GlyphClass: 2
Flags: W
AnchorPoint: "Anchor-3" 1085 1468 basechar 0
LayerCount: 2
Fore
SplineSet
230 0 m 2,0,1
 160 0 160 0 160 75 c 2,2,-1
 160 1359 l 2,3,4
 160 1434 160 1434 230 1434 c 2,5,-1
 382 1434 l 2,6,7
 452 1434 452 1434 452 1359 c 2,8,-1
 452 870 l 1,9,-1
 648 870 l 1,10,11
 656 1080 656 1080 825 1274 c 128,-1,12
 994 1468 994 1468 1324 1468 c 256,13,14
 1654 1468 1654 1468 1832 1265 c 128,-1,15
 2010 1062 2010 1062 2010 717 c 256,16,17
 2010 372 2010 372 1832 169 c 128,-1,18
 1654 -34 1654 -34 1324 -34 c 256,19,20
 994 -34 994 -34 824.5 160.5 c 128,-1,21
 655 355 655 355 642 622 c 1,22,-1
 452 622 l 1,23,-1
 452 75 l 2,24,25
 452 0 452 0 382 0 c 2,26,-1
 230 0 l 2,0,1
950 717 m 256,27,28
 950 467 950 467 1039.5 334.5 c 128,-1,29
 1129 202 1129 202 1324 202 c 256,30,31
 1519 202 1519 202 1608.5 334.5 c 128,-1,32
 1698 467 1698 467 1698 717 c 256,33,34
 1698 967 1698 967 1608.5 1099.5 c 128,-1,35
 1519 1232 1519 1232 1324 1232 c 256,36,37
 1129 1232 1129 1232 1039.5 1099.5 c 128,-1,38
 950 967 950 967 950 717 c 256,27,28
EndSplineSet
EndChar

StartChar: afii10049
Encoding: 1071 1071 477
Width: 1426
GlyphClass: 2
Flags: W
AnchorPoint: "Anchor-3" 766 1468 basechar 0
LayerCount: 2
Fore
SplineSet
151 0 m 2,0,1
 55 0 55 0 113 86 c 2,2,-1
 327 406 l 2,3,4
 356 449 356 449 422.5 523.5 c 128,-1,5
 489 598 489 598 553 636 c 1,6,-1
 553 638 l 1,7,8
 352 648 352 648 242.5 757.5 c 128,-1,9
 133 867 133 867 133 1011 c 0,10,11
 133 1218 133 1218 271 1326 c 128,-1,12
 409 1434 409 1434 732 1434 c 2,13,-1
 1196 1434 l 2,14,15
 1266 1434 1266 1434 1266 1359 c 2,16,-1
 1266 75 l 2,17,18
 1266 0 1266 0 1196 0 c 2,19,-1
 1044 0 l 2,20,21
 974 0 974 0 974 75 c 2,22,-1
 974 573 l 1,23,-1
 913 573 l 2,24,25
 816 573 816 573 757 523 c 128,-1,26
 698 473 698 473 639 382 c 2,27,-1
 430 59 l 2,28,29
 392 0 392 0 340 0 c 2,30,-1
 151 0 l 2,0,1
429 1013 m 0,31,32
 429 882 429 882 536 849.5 c 128,-1,33
 643 817 643 817 784 817 c 2,34,-1
 974 817 l 1,35,-1
 974 1190 l 1,36,-1
 746 1190 l 2,37,38
 595 1190 595 1190 512 1150 c 128,-1,39
 429 1110 429 1110 429 1013 c 0,31,32
EndSplineSet
EndChar

StartChar: afii10066
Encoding: 1073 1073 479
Width: 1210
GlyphClass: 2
Flags: W
AnchorPoint: "Anchor-3" 607 1476 basechar 0
LayerCount: 2
Fore
SplineSet
84 598 m 0,0,1
 84 712 84 712 105.5 869 c 128,-1,2
 127 1026 127 1026 164.5 1125 c 128,-1,3
 202 1224 202 1224 259 1283 c 128,-1,4
 316 1342 316 1342 396 1381.5 c 128,-1,5
 476 1421 476 1421 544 1430 c 0,6,7
 644 1444 644 1444 725.5 1446.5 c 128,-1,8
 807 1449 807 1449 843 1457 c 0,9,10
 882 1466 882 1466 898 1490 c 128,-1,11
 914 1514 914 1514 960 1514 c 2,12,-1
 1030 1514 l 2,13,14
 1069 1514 1069 1514 1069 1469 c 0,15,16
 1069 1394 1069 1394 1019.5 1336.5 c 128,-1,17
 970 1279 970 1279 882 1264 c 0,18,19
 841 1257 841 1257 770.5 1252.5 c 128,-1,20
 700 1248 700 1248 615 1239 c 128,-1,21
 530 1230 530 1230 442 1186 c 0,22,23
 261 1095 261 1095 253 845 c 1,24,-1
 261 841 l 1,25,26
 281 915 281 915 379 992.5 c 128,-1,27
 477 1070 477 1070 633 1070 c 0,28,29
 864 1070 864 1070 997 925 c 128,-1,30
 1130 780 1130 780 1130 525 c 256,31,32
 1130 270 1130 270 998.5 125 c 128,-1,33
 867 -20 867 -20 607 -20 c 0,34,35
 334 -20 334 -20 209 143 c 128,-1,36
 84 306 84 306 84 598 c 0,0,1
380 525 m 256,37,38
 380 335 380 335 438.5 255.5 c 128,-1,39
 497 176 497 176 607 176 c 256,40,41
 717 176 717 176 775.5 255.5 c 128,-1,42
 834 335 834 335 834 525 c 256,43,44
 834 715 834 715 775.5 794.5 c 128,-1,45
 717 874 717 874 607 874 c 256,46,47
 497 874 497 874 438.5 794.5 c 128,-1,48
 380 715 380 715 380 525 c 256,37,38
EndSplineSet
EndChar

StartChar: afii10067
Encoding: 1074 1074 480
Width: 1106
GlyphClass: 2
Flags: W
AnchorPoint: "Anchor-3" 539 1070 basechar 0
LayerCount: 2
Fore
SplineSet
196 0 m 2,0,1
 136 0 136 0 136 60 c 2,2,-1
 136 990 l 2,3,4
 136 1050 136 1050 196 1050 c 2,5,-1
 555 1050 l 2,6,7
 768 1050 768 1050 873.5 975 c 128,-1,8
 979 900 979 900 979 797 c 0,9,10
 979 687 979 687 922.5 631.5 c 128,-1,11
 866 576 866 576 799 553 c 1,12,-1
 799 550 l 1,13,14
 917 510 917 510 964.5 448.5 c 128,-1,15
 1012 387 1012 387 1012 296 c 0,16,17
 1012 165 1012 165 931.5 82.5 c 128,-1,18
 851 0 851 0 623 0 c 2,19,-1
 196 0 l 2,0,1
416 196 m 1,20,-1
 505 196 l 2,21,22
 625 196 625 196 670.5 225.5 c 128,-1,23
 716 255 716 255 716 312 c 0,24,25
 716 375 716 375 670.5 411 c 128,-1,26
 625 447 625 447 505 447 c 2,27,-1
 416 447 l 1,28,-1
 416 196 l 1,20,-1
416 637 m 1,29,-1
 510 637 l 2,30,31
 597 637 597 637 648 671 c 128,-1,32
 699 705 699 705 699 761 c 0,33,34
 699 825 699 825 636 839.5 c 128,-1,35
 573 854 573 854 515 854 c 2,36,-1
 416 854 l 1,37,-1
 416 637 l 1,29,-1
EndSplineSet
EndChar

StartChar: afii10068
Encoding: 1075 1075 481
Width: 916
GlyphClass: 2
Flags: W
AnchorPoint: "Anchor-3" 511 1070 basechar 0
LayerCount: 2
Fore
SplineSet
196 0 m 2,0,1
 136 0 136 0 136 60 c 2,2,-1
 136 990 l 2,3,4
 136 1050 136 1050 196 1050 c 2,5,-1
 826 1050 l 2,6,7
 886 1050 886 1050 886 1000 c 2,8,-1
 886 900 l 2,9,10
 886 850 886 850 826 850 c 2,11,-1
 416 850 l 1,12,-1
 416 60 l 2,13,14
 416 0 416 0 356 0 c 2,15,-1
 196 0 l 2,0,1
EndSplineSet
EndChar

StartChar: afii10069
Encoding: 1076 1076 482
Width: 1222
GlyphClass: 2
Flags: W
AnchorPoint: "Anchor-3" 658 1070 basechar 0
LayerCount: 2
Fore
SplineSet
97 -310 m 2,0,1
 42 -310 42 -310 42 -250 c 2,2,-1
 42 140 l 2,3,4
 42 200 42 200 102 200 c 2,5,-1
 133 200 l 1,6,7
 229 258 229 258 268.5 405 c 128,-1,8
 308 552 308 552 308 774 c 2,9,-1
 308 990 l 2,10,11
 308 1050 308 1050 368 1050 c 2,12,-1
 964 1050 l 2,13,14
 1024 1050 1024 1050 1024 990 c 2,15,-1
 1024 200 l 1,16,-1
 1110 200 l 2,17,18
 1170 200 1170 200 1170 140 c 2,19,-1
 1170 -250 l 2,20,21
 1170 -310 1170 -310 1115 -310 c 2,22,-1
 995 -310 l 2,23,24
 940 -310 940 -310 940 -250 c 2,25,-1
 940 0 l 1,26,-1
 272 0 l 1,27,-1
 272 -250 l 2,28,29
 272 -310 272 -310 217 -310 c 2,30,-1
 97 -310 l 2,0,1
419 200 m 1,31,-1
 744 200 l 1,32,-1
 744 850 l 1,33,-1
 538 850 l 1,34,-1
 538 723 l 2,35,36
 538 492 538 492 503.5 363 c 128,-1,37
 469 234 469 234 419 200 c 1,31,-1
EndSplineSet
EndChar

StartChar: afii10072
Encoding: 1078 1078 484
Width: 1574
GlyphClass: 2
Flags: W
AnchorPoint: "Anchor-3" 786 1070 basechar 0
LayerCount: 2
Fore
SplineSet
92 0 m 2,0,1
 19 0 19 0 61 74 c 2,2,-1
 230 372 l 2,3,4
 281 462 281 462 319 499 c 128,-1,5
 357 536 357 536 431 552 c 1,6,-1
 431 554 l 1,7,8
 367 570 367 570 324 612 c 128,-1,9
 281 654 281 654 243 716 c 2,10,-1
 83 976 l 2,11,12
 37 1050 37 1050 114 1050 c 2,13,-1
 274 1050 l 2,14,15
 328 1050 328 1050 352 1009 c 2,16,-1
 486 776 l 2,17,18
 513 729 513 729 546 688.5 c 128,-1,19
 579 648 579 648 631 648 c 2,20,-1
 647 648 l 1,21,-1
 647 990 l 2,22,23
 647 1050 647 1050 707 1050 c 2,24,-1
 867 1050 l 2,25,26
 927 1050 927 1050 927 990 c 2,27,-1
 927 648 l 1,28,-1
 943 648 l 2,29,30
 995 648 995 648 1028 688.5 c 128,-1,31
 1061 729 1061 729 1088 776 c 2,32,-1
 1222 1009 l 2,33,34
 1246 1050 1246 1050 1300 1050 c 2,35,-1
 1460 1050 l 2,36,37
 1537 1050 1537 1050 1491 976 c 2,38,-1
 1331 716 l 2,39,40
 1293 654 1293 654 1250 612 c 128,-1,41
 1207 570 1207 570 1143 554 c 1,42,-1
 1143 552 l 1,43,44
 1217 536 1217 536 1255 499 c 128,-1,45
 1293 462 1293 462 1344 372 c 2,46,-1
 1513 74 l 2,47,48
 1555 0 1555 0 1482 0 c 2,49,-1
 1315 0 l 2,50,51
 1260 0 1260 0 1233 52 c 2,52,-1
 1082 338 l 2,53,54
 1064 372 1064 372 1032.5 410 c 128,-1,55
 1001 448 1001 448 944 448 c 2,56,-1
 927 448 l 1,57,-1
 927 60 l 2,58,59
 927 0 927 0 867 0 c 2,60,-1
 707 0 l 2,61,62
 647 0 647 0 647 60 c 2,63,-1
 647 448 l 1,64,-1
 630 448 l 2,65,66
 573 448 573 448 541.5 410 c 128,-1,67
 510 372 510 372 492 338 c 2,68,-1
 341 52 l 2,69,70
 314 0 314 0 259 0 c 2,71,-1
 92 0 l 2,0,1
EndSplineSet
EndChar

StartChar: afii10073
Encoding: 1079 1079 485
Width: 1049
GlyphClass: 2
Flags: W
AnchorPoint: "Anchor-3" 458 1070 basechar 0
LayerCount: 2
Fore
SplineSet
81 89 m 0,0,1
 37 123 37 123 74 171 c 2,2,-1
 144 262 l 2,3,4
 175 303 175 303 239 265 c 0,5,6
 282 239 282 239 342 207.5 c 128,-1,7
 402 176 402 176 476 176 c 0,8,9
 584 176 584 176 621.5 224 c 128,-1,10
 659 272 659 272 659 324 c 0,11,12
 659 372 659 372 636.5 410 c 128,-1,13
 614 448 614 448 498 448 c 2,14,-1
 353 448 l 2,15,16
 293 448 293 448 293 498 c 2,17,-1
 293 598 l 2,18,19
 293 648 293 648 353 648 c 2,20,-1
 485 648 l 2,21,22
 557 648 557 648 599.5 679.5 c 128,-1,23
 642 711 642 711 642 771 c 0,24,25
 642 828 642 828 587 851 c 128,-1,26
 532 874 532 874 458 874 c 0,27,28
 385 874 385 874 337 855 c 128,-1,29
 289 836 289 836 240 800 c 0,30,31
 194 766 194 766 163 803 c 2,32,-1
 86 897 l 2,33,34
 51 939 51 939 93 972 c 0,35,36
 163 1027 163 1027 239.5 1048.5 c 128,-1,37
 316 1070 316 1070 458 1070 c 0,38,39
 655 1070 655 1070 788.5 994 c 128,-1,40
 922 918 922 918 922 807 c 0,41,42
 922 699 922 699 865.5 640.5 c 128,-1,43
 809 582 809 582 742 559 c 1,44,-1
 742 556 l 1,45,46
 860 516 860 516 907.5 453 c 128,-1,47
 955 390 955 390 955 308 c 0,48,49
 955 153 955 153 829.5 66.5 c 128,-1,50
 704 -20 704 -20 476 -20 c 0,51,52
 290 -20 290 -20 210.5 15.5 c 128,-1,53
 131 51 131 51 81 89 c 0,0,1
EndSplineSet
EndChar

StartChar: afii10074
Encoding: 1080 1080 486
Width: 1212
GlyphClass: 2
Flags: W
AnchorPoint: "Anchor-3" 606 1070 basechar 0
LayerCount: 2
Fore
SplineSet
187 0 m 2,0,1
 136 0 136 0 136 60 c 2,2,-1
 136 990 l 2,3,4
 136 1050 136 1050 196 1050 c 2,5,-1
 356 1050 l 2,6,7
 416 1050 416 1050 416 990 c 2,8,-1
 416 487 l 2,9,10
 416 447 416 447 412 407 c 1,11,-1
 416 407 l 1,12,-1
 710 985 l 2,13,14
 743 1050 743 1050 815 1050 c 2,15,-1
 1016 1050 l 2,16,17
 1076 1050 1076 1050 1076 990 c 2,18,-1
 1076 60 l 2,19,20
 1076 0 1076 0 1016 0 c 2,21,-1
 856 0 l 2,22,23
 796 0 796 0 796 60 c 2,24,-1
 796 563 l 2,25,26
 796 604 796 604 800 643 c 1,27,-1
 796 643 l 1,28,-1
 502 65 l 2,29,30
 469 0 469 0 397 0 c 2,31,-1
 187 0 l 2,0,1
EndSplineSet
EndChar

StartChar: afii10076
Encoding: 1082 1082 488
Width: 1085
GlyphClass: 2
Flags: W
AnchorPoint: "Anchor-3" 588 1070 basechar 0
LayerCount: 2
Fore
SplineSet
196 0 m 2,0,1
 136 0 136 0 136 60 c 2,2,-1
 136 990 l 2,3,4
 136 1050 136 1050 196 1050 c 2,5,-1
 356 1050 l 2,6,7
 416 1050 416 1050 416 990 c 2,8,-1
 416 648 l 1,9,-1
 439 648 l 2,10,11
 488 648 488 648 525 688 c 128,-1,12
 562 728 562 728 590 776 c 2,13,-1
 728 1009 l 2,14,15
 752 1050 752 1050 806 1050 c 2,16,-1
 970 1050 l 2,17,18
 1048 1050 1048 1050 1001 976 c 2,19,-1
 837 716 l 2,20,21
 800 657 800 657 748.5 611.5 c 128,-1,22
 697 566 697 566 647 554 c 1,23,-1
 647 552 l 1,24,25
 721 536 721 536 759 500.5 c 128,-1,26
 797 465 797 465 851 372 c 2,27,-1
 1024 74 l 2,28,29
 1067 0 1067 0 993 0 c 2,30,-1
 822 0 l 2,31,32
 768 0 768 0 740 52 c 2,33,-1
 585 338 l 2,34,35
 566 373 566 373 526 410.5 c 128,-1,36
 486 448 486 448 440 448 c 2,37,-1
 416 448 l 1,38,-1
 416 60 l 2,39,40
 416 0 416 0 356 0 c 2,41,-1
 196 0 l 2,0,1
EndSplineSet
EndChar

StartChar: afii10077
Encoding: 1083 1083 489
Width: 1194
GlyphClass: 2
Flags: W
AnchorPoint: "Anchor-3" 700 1070 basechar 0
LayerCount: 2
Fore
SplineSet
63 -8 m 0,0,1
 32 5 32 5 38 33 c 2,2,-1
 63 158 l 2,3,4
 69 190 69 190 96 183 c 0,5,6
 124 176 124 176 146 176 c 0,7,8
 243 176 243 176 292.5 275.5 c 128,-1,9
 342 375 342 375 342 774 c 2,10,-1
 342 990 l 2,11,12
 342 1050 342 1050 402 1050 c 2,13,-1
 998 1050 l 2,14,15
 1058 1050 1058 1050 1058 990 c 2,16,-1
 1058 60 l 2,17,18
 1058 0 1058 0 998 0 c 2,19,-1
 838 0 l 2,20,21
 778 0 778 0 778 60 c 2,22,-1
 778 850 l 1,23,-1
 572 850 l 1,24,-1
 572 723 l 2,25,26
 572 321 572 321 490 150.5 c 128,-1,27
 408 -20 408 -20 168 -20 c 0,28,29
 92 -20 92 -20 63 -8 c 0,0,1
EndSplineSet
EndChar

StartChar: afii10078
Encoding: 1084 1084 490
Width: 1500
GlyphClass: 2
Flags: W
AnchorPoint: "Anchor-3" 750 1070 basechar 0
LayerCount: 2
Fore
SplineSet
196 0 m 2,0,1
 136 0 136 0 136 60 c 2,2,-1
 136 990 l 2,3,4
 136 1050 136 1050 196 1050 c 2,5,-1
 465 1050 l 2,6,7
 531 1050 531 1050 550 985 c 2,8,-1
 719 394 l 2,9,10
 729 359 729 359 738.5 311.5 c 128,-1,11
 748 264 748 264 748 235 c 1,12,-1
 752 235 l 1,13,14
 752 264 752 264 761.5 311.5 c 128,-1,15
 771 359 771 359 781 394 c 2,16,-1
 950 985 l 2,17,18
 969 1050 969 1050 1035 1050 c 2,19,-1
 1304 1050 l 2,20,21
 1364 1050 1364 1050 1364 990 c 2,22,-1
 1364 60 l 2,23,24
 1364 0 1364 0 1304 0 c 2,25,-1
 1144 0 l 2,26,27
 1084 0 1084 0 1084 60 c 2,28,-1
 1084 565 l 2,29,30
 1084 606 1084 606 1088 645 c 1,31,-1
 1084 645 l 1,32,-1
 911 61 l 2,33,34
 893 0 893 0 857 0 c 2,35,-1
 643 0 l 2,36,37
 607 0 607 0 589 61 c 2,38,-1
 416 645 l 1,39,-1
 412 645 l 1,40,41
 416 606 416 606 416 565 c 2,42,-1
 416 60 l 2,43,44
 416 0 416 0 356 0 c 2,45,-1
 196 0 l 2,0,1
EndSplineSet
EndChar

